<?xml version="1.0" encoding="utf-8" standalone="no"?>
<!DOCTYPE svg PUBLIC "-//W3C//DTD SVG 1.1//EN"
  "http://www.w3.org/Graphics/SVG/1.1/DTD/svg11.dtd">
<svg xmlns:xlink="http://www.w3.org/1999/xlink" width="648pt" height="288pt" viewBox="0 0 648 288" xmlns="http://www.w3.org/2000/svg" version="1.1">
 <metadata>
  <rdf:RDF xmlns:dc="http://purl.org/dc/elements/1.1/" xmlns:cc="http://creativecommons.org/ns#" xmlns:rdf="http://www.w3.org/1999/02/22-rdf-syntax-ns#">
   <cc:Work>
    <dc:type rdf:resource="http://purl.org/dc/dcmitype/StillImage"/>
    <dc:date>2023-09-29T11:13:06.173136</dc:date>
    <dc:format>image/svg+xml</dc:format>
    <dc:creator>
     <cc:Agent>
      <dc:title>Matplotlib v3.6.3, https://matplotlib.org/</dc:title>
     </cc:Agent>
    </dc:creator>
   </cc:Work>
  </rdf:RDF>
 </metadata>
 <defs>
  <style type="text/css">*{stroke-linejoin: round; stroke-linecap: butt}</style>
 </defs>
 <g id="figure_1">
  <g id="patch_1">
   <path d="M 0 288 
L 648 288 
L 648 0 
L 0 0 
z
" style="fill: #ffffff"/>
  </g>
  <g id="axes_1">
   <g id="patch_2">
    <path d="M 39.8313 274.465354 
L 327.515556 274.465354 
L 327.515556 19.634646 
L 39.8313 19.634646 
z
" style="fill: #ffffff"/>
   </g>
   <g id="patch_3">
    <path d="M 50.634094 19.634646 
L 50.634094 274.465354 
L 139.326983 274.465354 
L 139.326983 19.634646 
L 50.634094 19.634646 
" clip-path="url(#pacb0f85c69)" style="fill: #63ac9a; stroke: #000000; stroke-linejoin: miter"/>
   </g>
   <g id="PathCollection_1">
    <defs>
     <path id="mb5013ff0dc" d="M 0 0 
C 0 0 0 0 0 0 
C 0 0 0 0 0 0 
C 0 0 0 0 0 0 
C 0 0 0 0 0 0 
C 0 0 0 0 0 0 
C 0 0 0 0 0 0 
C 0 0 0 0 0 0 
C 0 0 0 0 0 0 
z
" style="stroke: #000000; stroke-opacity: 0"/>
    </defs>
    <g clip-path="url(#pacb0f85c69)">
     <use xlink:href="#mb5013ff0dc" x="94.980538" y="19.634646" style="fill: #63ac9a; fill-opacity: 0; stroke: #000000; stroke-opacity: 0"/>
    </g>
   </g>
   <g id="matplotlib.axis_1">
    <g id="xtick_1">
     <g id="line2d_1">
      <defs>
       <path id="m4ed9fbecfa" d="M 0 0 
L 0 -2.5 
" style="stroke: #000000; stroke-width: 0.5"/>
      </defs>
      <g>
       <use xlink:href="#m4ed9fbecfa" x="183.673428" y="274.465354" style="stroke: #000000; stroke-width: 0.5"/>
      </g>
     </g>
     <g id="text_1">
      <!--  map  -->
      <g transform="translate(172.244053 284.044104) scale(0.08 -0.08)">
       <defs>
        <path id="DejaVuSans-20" transform="scale(0.015625)"/>
        <path id="DejaVuSans-6d" d="M 3328 2828 
Q 3544 3216 3844 3400 
Q 4144 3584 4550 3584 
Q 5097 3584 5394 3201 
Q 5691 2819 5691 2113 
L 5691 0 
L 5113 0 
L 5113 2094 
Q 5113 2597 4934 2840 
Q 4756 3084 4391 3084 
Q 3944 3084 3684 2787 
Q 3425 2491 3425 1978 
L 3425 0 
L 2847 0 
L 2847 2094 
Q 2847 2600 2669 2842 
Q 2491 3084 2119 3084 
Q 1678 3084 1418 2786 
Q 1159 2488 1159 1978 
L 1159 0 
L 581 0 
L 581 3500 
L 1159 3500 
L 1159 2956 
Q 1356 3278 1631 3431 
Q 1906 3584 2284 3584 
Q 2666 3584 2933 3390 
Q 3200 3197 3328 2828 
z
" transform="scale(0.015625)"/>
        <path id="DejaVuSans-61" d="M 2194 1759 
Q 1497 1759 1228 1600 
Q 959 1441 959 1056 
Q 959 750 1161 570 
Q 1363 391 1709 391 
Q 2188 391 2477 730 
Q 2766 1069 2766 1631 
L 2766 1759 
L 2194 1759 
z
M 3341 1997 
L 3341 0 
L 2766 0 
L 2766 531 
Q 2569 213 2275 61 
Q 1981 -91 1556 -91 
Q 1019 -91 701 211 
Q 384 513 384 1019 
Q 384 1609 779 1909 
Q 1175 2209 1959 2209 
L 2766 2209 
L 2766 2266 
Q 2766 2663 2505 2880 
Q 2244 3097 1772 3097 
Q 1472 3097 1187 3025 
Q 903 2953 641 2809 
L 641 3341 
Q 956 3463 1253 3523 
Q 1550 3584 1831 3584 
Q 2591 3584 2966 3190 
Q 3341 2797 3341 1997 
z
" transform="scale(0.015625)"/>
        <path id="DejaVuSans-70" d="M 1159 525 
L 1159 -1331 
L 581 -1331 
L 581 3500 
L 1159 3500 
L 1159 2969 
Q 1341 3281 1617 3432 
Q 1894 3584 2278 3584 
Q 2916 3584 3314 3078 
Q 3713 2572 3713 1747 
Q 3713 922 3314 415 
Q 2916 -91 2278 -91 
Q 1894 -91 1617 61 
Q 1341 213 1159 525 
z
M 3116 1747 
Q 3116 2381 2855 2742 
Q 2594 3103 2138 3103 
Q 1681 3103 1420 2742 
Q 1159 2381 1159 1747 
Q 1159 1113 1420 752 
Q 1681 391 2138 391 
Q 2594 391 2855 752 
Q 3116 1113 3116 1747 
z
" transform="scale(0.015625)"/>
       </defs>
       <use xlink:href="#DejaVuSans-20"/>
       <use xlink:href="#DejaVuSans-6d" x="31.787109"/>
       <use xlink:href="#DejaVuSans-61" x="129.199219"/>
       <use xlink:href="#DejaVuSans-70" x="190.478516"/>
       <use xlink:href="#DejaVuSans-20" x="253.955078"/>
      </g>
     </g>
    </g>
   </g>
   <g id="matplotlib.axis_2">
    <g id="ytick_1">
     <g id="line2d_2">
      <defs>
       <path id="md2fbc7a301" d="M 0 0 
L 2.5 0 
" style="stroke: #000000; stroke-width: 0.5"/>
      </defs>
      <g>
       <use xlink:href="#md2fbc7a301" x="39.8313" y="274.465354" style="stroke: #000000; stroke-width: 0.5"/>
      </g>
     </g>
     <g id="text_2">
      <!-- $0.0$ -->
      <g transform="translate(23.5313 277.504729) scale(0.08 -0.08)">
       <defs>
        <path id="DejaVuSans-30" d="M 2034 4250 
Q 1547 4250 1301 3770 
Q 1056 3291 1056 2328 
Q 1056 1369 1301 889 
Q 1547 409 2034 409 
Q 2525 409 2770 889 
Q 3016 1369 3016 2328 
Q 3016 3291 2770 3770 
Q 2525 4250 2034 4250 
z
M 2034 4750 
Q 2819 4750 3233 4129 
Q 3647 3509 3647 2328 
Q 3647 1150 3233 529 
Q 2819 -91 2034 -91 
Q 1250 -91 836 529 
Q 422 1150 422 2328 
Q 422 3509 836 4129 
Q 1250 4750 2034 4750 
z
" transform="scale(0.015625)"/>
        <path id="DejaVuSans-2e" d="M 684 794 
L 1344 794 
L 1344 0 
L 684 0 
L 684 794 
z
" transform="scale(0.015625)"/>
       </defs>
       <use xlink:href="#DejaVuSans-30" transform="translate(0 0.78125)"/>
       <use xlink:href="#DejaVuSans-2e" transform="translate(63.623047 0.78125)"/>
       <use xlink:href="#DejaVuSans-30" transform="translate(95.410156 0.78125)"/>
      </g>
     </g>
    </g>
    <g id="ytick_2">
     <g id="line2d_3">
      <g>
       <use xlink:href="#md2fbc7a301" x="39.8313" y="231.391372" style="stroke: #000000; stroke-width: 0.5"/>
      </g>
     </g>
     <g id="text_3">
      <!-- $2.5$ -->
      <g transform="translate(23.5313 234.430747) scale(0.08 -0.08)">
       <defs>
        <path id="DejaVuSans-32" d="M 1228 531 
L 3431 531 
L 3431 0 
L 469 0 
L 469 531 
Q 828 903 1448 1529 
Q 2069 2156 2228 2338 
Q 2531 2678 2651 2914 
Q 2772 3150 2772 3378 
Q 2772 3750 2511 3984 
Q 2250 4219 1831 4219 
Q 1534 4219 1204 4116 
Q 875 4013 500 3803 
L 500 4441 
Q 881 4594 1212 4672 
Q 1544 4750 1819 4750 
Q 2544 4750 2975 4387 
Q 3406 4025 3406 3419 
Q 3406 3131 3298 2873 
Q 3191 2616 2906 2266 
Q 2828 2175 2409 1742 
Q 1991 1309 1228 531 
z
" transform="scale(0.015625)"/>
        <path id="DejaVuSans-35" d="M 691 4666 
L 3169 4666 
L 3169 4134 
L 1269 4134 
L 1269 2991 
Q 1406 3038 1543 3061 
Q 1681 3084 1819 3084 
Q 2600 3084 3056 2656 
Q 3513 2228 3513 1497 
Q 3513 744 3044 326 
Q 2575 -91 1722 -91 
Q 1428 -91 1123 -41 
Q 819 9 494 109 
L 494 744 
Q 775 591 1075 516 
Q 1375 441 1709 441 
Q 2250 441 2565 725 
Q 2881 1009 2881 1497 
Q 2881 1984 2565 2268 
Q 2250 2553 1709 2553 
Q 1456 2553 1204 2497 
Q 953 2441 691 2322 
L 691 4666 
z
" transform="scale(0.015625)"/>
       </defs>
       <use xlink:href="#DejaVuSans-32" transform="translate(0 0.78125)"/>
       <use xlink:href="#DejaVuSans-2e" transform="translate(63.623047 0.78125)"/>
       <use xlink:href="#DejaVuSans-35" transform="translate(95.410156 0.78125)"/>
      </g>
     </g>
    </g>
    <g id="ytick_3">
     <g id="line2d_4">
      <g>
       <use xlink:href="#md2fbc7a301" x="39.8313" y="188.31739" style="stroke: #000000; stroke-width: 0.5"/>
      </g>
     </g>
     <g id="text_4">
      <!-- $5.0$ -->
      <g transform="translate(23.5313 191.356765) scale(0.08 -0.08)">
       <use xlink:href="#DejaVuSans-35" transform="translate(0 0.78125)"/>
       <use xlink:href="#DejaVuSans-2e" transform="translate(63.623047 0.78125)"/>
       <use xlink:href="#DejaVuSans-30" transform="translate(95.410156 0.78125)"/>
      </g>
     </g>
    </g>
    <g id="ytick_4">
     <g id="line2d_5">
      <g>
       <use xlink:href="#md2fbc7a301" x="39.8313" y="145.243408" style="stroke: #000000; stroke-width: 0.5"/>
      </g>
     </g>
     <g id="text_5">
      <!-- $7.5$ -->
      <g transform="translate(23.5313 148.282783) scale(0.08 -0.08)">
       <defs>
        <path id="DejaVuSans-37" d="M 525 4666 
L 3525 4666 
L 3525 4397 
L 1831 0 
L 1172 0 
L 2766 4134 
L 525 4134 
L 525 4666 
z
" transform="scale(0.015625)"/>
       </defs>
       <use xlink:href="#DejaVuSans-37" transform="translate(0 0.09375)"/>
       <use xlink:href="#DejaVuSans-2e" transform="translate(63.623047 0.09375)"/>
       <use xlink:href="#DejaVuSans-35" transform="translate(95.410156 0.09375)"/>
      </g>
     </g>
    </g>
    <g id="ytick_5">
     <g id="line2d_6">
      <g>
       <use xlink:href="#md2fbc7a301" x="39.8313" y="102.169426" style="stroke: #000000; stroke-width: 0.5"/>
      </g>
     </g>
     <g id="text_6">
      <!-- $10.0$ -->
      <g transform="translate(18.4913 105.208801) scale(0.08 -0.08)">
       <defs>
        <path id="DejaVuSans-31" d="M 794 531 
L 1825 531 
L 1825 4091 
L 703 3866 
L 703 4441 
L 1819 4666 
L 2450 4666 
L 2450 531 
L 3481 531 
L 3481 0 
L 794 0 
L 794 531 
z
" transform="scale(0.015625)"/>
       </defs>
       <use xlink:href="#DejaVuSans-31" transform="translate(0 0.78125)"/>
       <use xlink:href="#DejaVuSans-30" transform="translate(63.623047 0.78125)"/>
       <use xlink:href="#DejaVuSans-2e" transform="translate(127.246094 0.78125)"/>
       <use xlink:href="#DejaVuSans-30" transform="translate(159.033203 0.78125)"/>
      </g>
     </g>
    </g>
    <g id="ytick_6">
     <g id="line2d_7">
      <g>
       <use xlink:href="#md2fbc7a301" x="39.8313" y="59.095444" style="stroke: #000000; stroke-width: 0.5"/>
      </g>
     </g>
     <g id="text_7">
      <!-- $12.5$ -->
      <g transform="translate(18.4913 62.134819) scale(0.08 -0.08)">
       <use xlink:href="#DejaVuSans-31" transform="translate(0 0.78125)"/>
       <use xlink:href="#DejaVuSans-32" transform="translate(63.623047 0.78125)"/>
       <use xlink:href="#DejaVuSans-2e" transform="translate(127.246094 0.78125)"/>
       <use xlink:href="#DejaVuSans-35" transform="translate(159.033203 0.78125)"/>
      </g>
     </g>
    </g>
    <g id="text_8">
     <!-- Time in ms (lower is better) -->
     <g transform="translate(12.203643 223.037656) rotate(-90) scale(0.11 -0.11)">
      <defs>
       <path id="DejaVuSans-54" d="M -19 4666 
L 3928 4666 
L 3928 4134 
L 2272 4134 
L 2272 0 
L 1638 0 
L 1638 4134 
L -19 4134 
L -19 4666 
z
" transform="scale(0.015625)"/>
       <path id="DejaVuSans-69" d="M 603 3500 
L 1178 3500 
L 1178 0 
L 603 0 
L 603 3500 
z
M 603 4863 
L 1178 4863 
L 1178 4134 
L 603 4134 
L 603 4863 
z
" transform="scale(0.015625)"/>
       <path id="DejaVuSans-65" d="M 3597 1894 
L 3597 1613 
L 953 1613 
Q 991 1019 1311 708 
Q 1631 397 2203 397 
Q 2534 397 2845 478 
Q 3156 559 3463 722 
L 3463 178 
Q 3153 47 2828 -22 
Q 2503 -91 2169 -91 
Q 1331 -91 842 396 
Q 353 884 353 1716 
Q 353 2575 817 3079 
Q 1281 3584 2069 3584 
Q 2775 3584 3186 3129 
Q 3597 2675 3597 1894 
z
M 3022 2063 
Q 3016 2534 2758 2815 
Q 2500 3097 2075 3097 
Q 1594 3097 1305 2825 
Q 1016 2553 972 2059 
L 3022 2063 
z
" transform="scale(0.015625)"/>
       <path id="DejaVuSans-6e" d="M 3513 2113 
L 3513 0 
L 2938 0 
L 2938 2094 
Q 2938 2591 2744 2837 
Q 2550 3084 2163 3084 
Q 1697 3084 1428 2787 
Q 1159 2491 1159 1978 
L 1159 0 
L 581 0 
L 581 3500 
L 1159 3500 
L 1159 2956 
Q 1366 3272 1645 3428 
Q 1925 3584 2291 3584 
Q 2894 3584 3203 3211 
Q 3513 2838 3513 2113 
z
" transform="scale(0.015625)"/>
       <path id="DejaVuSans-73" d="M 2834 3397 
L 2834 2853 
Q 2591 2978 2328 3040 
Q 2066 3103 1784 3103 
Q 1356 3103 1142 2972 
Q 928 2841 928 2578 
Q 928 2378 1081 2264 
Q 1234 2150 1697 2047 
L 1894 2003 
Q 2506 1872 2764 1633 
Q 3022 1394 3022 966 
Q 3022 478 2636 193 
Q 2250 -91 1575 -91 
Q 1294 -91 989 -36 
Q 684 19 347 128 
L 347 722 
Q 666 556 975 473 
Q 1284 391 1588 391 
Q 1994 391 2212 530 
Q 2431 669 2431 922 
Q 2431 1156 2273 1281 
Q 2116 1406 1581 1522 
L 1381 1569 
Q 847 1681 609 1914 
Q 372 2147 372 2553 
Q 372 3047 722 3315 
Q 1072 3584 1716 3584 
Q 2034 3584 2315 3537 
Q 2597 3491 2834 3397 
z
" transform="scale(0.015625)"/>
       <path id="DejaVuSans-28" d="M 1984 4856 
Q 1566 4138 1362 3434 
Q 1159 2731 1159 2009 
Q 1159 1288 1364 580 
Q 1569 -128 1984 -844 
L 1484 -844 
Q 1016 -109 783 600 
Q 550 1309 550 2009 
Q 550 2706 781 3412 
Q 1013 4119 1484 4856 
L 1984 4856 
z
" transform="scale(0.015625)"/>
       <path id="DejaVuSans-6c" d="M 603 4863 
L 1178 4863 
L 1178 0 
L 603 0 
L 603 4863 
z
" transform="scale(0.015625)"/>
       <path id="DejaVuSans-6f" d="M 1959 3097 
Q 1497 3097 1228 2736 
Q 959 2375 959 1747 
Q 959 1119 1226 758 
Q 1494 397 1959 397 
Q 2419 397 2687 759 
Q 2956 1122 2956 1747 
Q 2956 2369 2687 2733 
Q 2419 3097 1959 3097 
z
M 1959 3584 
Q 2709 3584 3137 3096 
Q 3566 2609 3566 1747 
Q 3566 888 3137 398 
Q 2709 -91 1959 -91 
Q 1206 -91 779 398 
Q 353 888 353 1747 
Q 353 2609 779 3096 
Q 1206 3584 1959 3584 
z
" transform="scale(0.015625)"/>
       <path id="DejaVuSans-77" d="M 269 3500 
L 844 3500 
L 1563 769 
L 2278 3500 
L 2956 3500 
L 3675 769 
L 4391 3500 
L 4966 3500 
L 4050 0 
L 3372 0 
L 2619 2869 
L 1863 0 
L 1184 0 
L 269 3500 
z
" transform="scale(0.015625)"/>
       <path id="DejaVuSans-72" d="M 2631 2963 
Q 2534 3019 2420 3045 
Q 2306 3072 2169 3072 
Q 1681 3072 1420 2755 
Q 1159 2438 1159 1844 
L 1159 0 
L 581 0 
L 581 3500 
L 1159 3500 
L 1159 2956 
Q 1341 3275 1631 3429 
Q 1922 3584 2338 3584 
Q 2397 3584 2469 3576 
Q 2541 3569 2628 3553 
L 2631 2963 
z
" transform="scale(0.015625)"/>
       <path id="DejaVuSans-62" d="M 3116 1747 
Q 3116 2381 2855 2742 
Q 2594 3103 2138 3103 
Q 1681 3103 1420 2742 
Q 1159 2381 1159 1747 
Q 1159 1113 1420 752 
Q 1681 391 2138 391 
Q 2594 391 2855 752 
Q 3116 1113 3116 1747 
z
M 1159 2969 
Q 1341 3281 1617 3432 
Q 1894 3584 2278 3584 
Q 2916 3584 3314 3078 
Q 3713 2572 3713 1747 
Q 3713 922 3314 415 
Q 2916 -91 2278 -91 
Q 1894 -91 1617 61 
Q 1341 213 1159 525 
L 1159 0 
L 581 0 
L 581 4863 
L 1159 4863 
L 1159 2969 
z
" transform="scale(0.015625)"/>
       <path id="DejaVuSans-74" d="M 1172 4494 
L 1172 3500 
L 2356 3500 
L 2356 3053 
L 1172 3053 
L 1172 1153 
Q 1172 725 1289 603 
Q 1406 481 1766 481 
L 2356 481 
L 2356 0 
L 1766 0 
Q 1100 0 847 248 
Q 594 497 594 1153 
L 594 3053 
L 172 3053 
L 172 3500 
L 594 3500 
L 594 4494 
L 1172 4494 
z
" transform="scale(0.015625)"/>
       <path id="DejaVuSans-29" d="M 513 4856 
L 1013 4856 
Q 1481 4119 1714 3412 
Q 1947 2706 1947 2009 
Q 1947 1309 1714 600 
Q 1481 -109 1013 -844 
L 513 -844 
Q 928 -128 1133 580 
Q 1338 1288 1338 2009 
Q 1338 2731 1133 3434 
Q 928 4138 513 4856 
z
" transform="scale(0.015625)"/>
      </defs>
      <use xlink:href="#DejaVuSans-54"/>
      <use xlink:href="#DejaVuSans-69" x="57.958984"/>
      <use xlink:href="#DejaVuSans-6d" x="85.742188"/>
      <use xlink:href="#DejaVuSans-65" x="183.154297"/>
      <use xlink:href="#DejaVuSans-20" x="244.677734"/>
      <use xlink:href="#DejaVuSans-69" x="276.464844"/>
      <use xlink:href="#DejaVuSans-6e" x="304.248047"/>
      <use xlink:href="#DejaVuSans-20" x="367.626953"/>
      <use xlink:href="#DejaVuSans-6d" x="399.414062"/>
      <use xlink:href="#DejaVuSans-73" x="496.826172"/>
      <use xlink:href="#DejaVuSans-20" x="548.925781"/>
      <use xlink:href="#DejaVuSans-28" x="580.712891"/>
      <use xlink:href="#DejaVuSans-6c" x="619.726562"/>
      <use xlink:href="#DejaVuSans-6f" x="647.509766"/>
      <use xlink:href="#DejaVuSans-77" x="708.691406"/>
      <use xlink:href="#DejaVuSans-65" x="790.478516"/>
      <use xlink:href="#DejaVuSans-72" x="852.001953"/>
      <use xlink:href="#DejaVuSans-20" x="893.115234"/>
      <use xlink:href="#DejaVuSans-69" x="924.902344"/>
      <use xlink:href="#DejaVuSans-73" x="952.685547"/>
      <use xlink:href="#DejaVuSans-20" x="1004.785156"/>
      <use xlink:href="#DejaVuSans-62" x="1036.572266"/>
      <use xlink:href="#DejaVuSans-65" x="1100.048828"/>
      <use xlink:href="#DejaVuSans-74" x="1161.572266"/>
      <use xlink:href="#DejaVuSans-74" x="1200.78125"/>
      <use xlink:href="#DejaVuSans-65" x="1239.990234"/>
      <use xlink:href="#DejaVuSans-72" x="1301.513672"/>
      <use xlink:href="#DejaVuSans-29" x="1342.626953"/>
     </g>
    </g>
   </g>
   <g id="patch_4">
    <path d="M 139.326983 223.041481 
L 139.326983 274.465354 
L 228.019873 274.465354 
L 228.019873 223.041481 
L 139.326983 223.041481 
" clip-path="url(#pacb0f85c69)" style="fill: #e49938; stroke: #000000; stroke-linejoin: miter"/>
   </g>
   <g id="PathCollection_2">
    <defs>
     <path id="m6bb4aed2e3" d="M 0 0 
C 0 0 0 0 0 0 
C 0 0 0 0 0 0 
C 0 0 0 0 0 0 
C 0 0 0 0 0 0 
C 0 0 0 0 0 0 
C 0 0 0 0 0 0 
C 0 0 0 0 0 0 
C 0 0 0 0 0 0 
z
" style="stroke: #000000; stroke-opacity: 0"/>
    </defs>
    <g clip-path="url(#pacb0f85c69)">
     <use xlink:href="#m6bb4aed2e3" x="183.673428" y="223.041481" style="fill: #e49938; fill-opacity: 0; stroke: #000000; stroke-opacity: 0"/>
    </g>
   </g>
   <g id="patch_5">
    <path d="M 39.8313 274.465354 
L 39.8313 19.634646 
" style="fill: none; stroke: #000000; stroke-linejoin: miter; stroke-linecap: square"/>
   </g>
   <g id="patch_6">
    <path d="M 39.8313 274.465354 
L 327.515556 274.465354 
" style="fill: none; stroke: #000000; stroke-linejoin: miter; stroke-linecap: square"/>
   </g>
   <g id="patch_7">
    <path d="M 228.019873 258.070673 
L 228.019873 274.465354 
L 316.712762 274.465354 
L 316.712762 258.070673 
L 228.019873 258.070673 
" clip-path="url(#pacb0f85c69)" style="fill: #e4632e; stroke: #000000; stroke-linejoin: miter"/>
   </g>
   <g id="text_9">
    <!-- Observables.jl vs Rocket.jl (time) -->
    <g transform="translate(68.612022 13.634646) scale(0.14 -0.14)">
     <defs>
      <path id="DejaVuSans-4f" d="M 2522 4238 
Q 1834 4238 1429 3725 
Q 1025 3213 1025 2328 
Q 1025 1447 1429 934 
Q 1834 422 2522 422 
Q 3209 422 3611 934 
Q 4013 1447 4013 2328 
Q 4013 3213 3611 3725 
Q 3209 4238 2522 4238 
z
M 2522 4750 
Q 3503 4750 4090 4092 
Q 4678 3434 4678 2328 
Q 4678 1225 4090 567 
Q 3503 -91 2522 -91 
Q 1538 -91 948 565 
Q 359 1222 359 2328 
Q 359 3434 948 4092 
Q 1538 4750 2522 4750 
z
" transform="scale(0.015625)"/>
      <path id="DejaVuSans-76" d="M 191 3500 
L 800 3500 
L 1894 563 
L 2988 3500 
L 3597 3500 
L 2284 0 
L 1503 0 
L 191 3500 
z
" transform="scale(0.015625)"/>
      <path id="DejaVuSans-6a" d="M 603 3500 
L 1178 3500 
L 1178 -63 
Q 1178 -731 923 -1031 
Q 669 -1331 103 -1331 
L -116 -1331 
L -116 -844 
L 38 -844 
Q 366 -844 484 -692 
Q 603 -541 603 -63 
L 603 3500 
z
M 603 4863 
L 1178 4863 
L 1178 4134 
L 603 4134 
L 603 4863 
z
" transform="scale(0.015625)"/>
      <path id="DejaVuSans-52" d="M 2841 2188 
Q 3044 2119 3236 1894 
Q 3428 1669 3622 1275 
L 4263 0 
L 3584 0 
L 2988 1197 
Q 2756 1666 2539 1819 
Q 2322 1972 1947 1972 
L 1259 1972 
L 1259 0 
L 628 0 
L 628 4666 
L 2053 4666 
Q 2853 4666 3247 4331 
Q 3641 3997 3641 3322 
Q 3641 2881 3436 2590 
Q 3231 2300 2841 2188 
z
M 1259 4147 
L 1259 2491 
L 2053 2491 
Q 2509 2491 2742 2702 
Q 2975 2913 2975 3322 
Q 2975 3731 2742 3939 
Q 2509 4147 2053 4147 
L 1259 4147 
z
" transform="scale(0.015625)"/>
      <path id="DejaVuSans-63" d="M 3122 3366 
L 3122 2828 
Q 2878 2963 2633 3030 
Q 2388 3097 2138 3097 
Q 1578 3097 1268 2742 
Q 959 2388 959 1747 
Q 959 1106 1268 751 
Q 1578 397 2138 397 
Q 2388 397 2633 464 
Q 2878 531 3122 666 
L 3122 134 
Q 2881 22 2623 -34 
Q 2366 -91 2075 -91 
Q 1284 -91 818 406 
Q 353 903 353 1747 
Q 353 2603 823 3093 
Q 1294 3584 2113 3584 
Q 2378 3584 2631 3529 
Q 2884 3475 3122 3366 
z
" transform="scale(0.015625)"/>
      <path id="DejaVuSans-6b" d="M 581 4863 
L 1159 4863 
L 1159 1991 
L 2875 3500 
L 3609 3500 
L 1753 1863 
L 3688 0 
L 2938 0 
L 1159 1709 
L 1159 0 
L 581 0 
L 581 4863 
z
" transform="scale(0.015625)"/>
     </defs>
     <use xlink:href="#DejaVuSans-4f"/>
     <use xlink:href="#DejaVuSans-62" x="78.710938"/>
     <use xlink:href="#DejaVuSans-73" x="142.1875"/>
     <use xlink:href="#DejaVuSans-65" x="194.287109"/>
     <use xlink:href="#DejaVuSans-72" x="255.810547"/>
     <use xlink:href="#DejaVuSans-76" x="296.923828"/>
     <use xlink:href="#DejaVuSans-61" x="356.103516"/>
     <use xlink:href="#DejaVuSans-62" x="417.382812"/>
     <use xlink:href="#DejaVuSans-6c" x="480.859375"/>
     <use xlink:href="#DejaVuSans-65" x="508.642578"/>
     <use xlink:href="#DejaVuSans-73" x="570.166016"/>
     <use xlink:href="#DejaVuSans-2e" x="622.265625"/>
     <use xlink:href="#DejaVuSans-6a" x="654.052734"/>
     <use xlink:href="#DejaVuSans-6c" x="681.835938"/>
     <use xlink:href="#DejaVuSans-20" x="709.619141"/>
     <use xlink:href="#DejaVuSans-76" x="741.40625"/>
     <use xlink:href="#DejaVuSans-73" x="800.585938"/>
     <use xlink:href="#DejaVuSans-20" x="852.685547"/>
     <use xlink:href="#DejaVuSans-52" x="884.472656"/>
     <use xlink:href="#DejaVuSans-6f" x="949.455078"/>
     <use xlink:href="#DejaVuSans-63" x="1010.636719"/>
     <use xlink:href="#DejaVuSans-6b" x="1065.617188"/>
     <use xlink:href="#DejaVuSans-65" x="1119.902344"/>
     <use xlink:href="#DejaVuSans-74" x="1181.425781"/>
     <use xlink:href="#DejaVuSans-2e" x="1220.634766"/>
     <use xlink:href="#DejaVuSans-6a" x="1252.421875"/>
     <use xlink:href="#DejaVuSans-6c" x="1280.205078"/>
     <use xlink:href="#DejaVuSans-20" x="1307.988281"/>
     <use xlink:href="#DejaVuSans-28" x="1339.775391"/>
     <use xlink:href="#DejaVuSans-74" x="1378.789062"/>
     <use xlink:href="#DejaVuSans-69" x="1417.998047"/>
     <use xlink:href="#DejaVuSans-6d" x="1445.78125"/>
     <use xlink:href="#DejaVuSans-65" x="1543.193359"/>
     <use xlink:href="#DejaVuSans-29" x="1604.716797"/>
    </g>
   </g>
   <g id="PathCollection_3">
    <defs>
     <path id="m439764386a" d="M 0 0 
C 0 0 0 0 0 0 
C 0 0 0 0 0 0 
C 0 0 0 0 0 0 
C 0 0 0 0 0 0 
C 0 0 0 0 0 0 
C 0 0 0 0 0 0 
C 0 0 0 0 0 0 
C 0 0 0 0 0 0 
z
" style="stroke: #000000; stroke-opacity: 0"/>
    </defs>
    <g clip-path="url(#pacb0f85c69)">
     <use xlink:href="#m439764386a" x="272.366318" y="258.070673" style="fill: #e4632e; fill-opacity: 0; stroke: #000000; stroke-opacity: 0"/>
    </g>
   </g>
   <g id="legend_1">
    <g id="patch_8">
     <path d="M 222.375556 67.662146 
L 323.515556 67.662146 
L 323.515556 23.634646 
L 222.375556 23.634646 
z
" style="fill: #ffffff; stroke: #000000; stroke-linejoin: miter"/>
    </g>
    <g id="patch_9">
     <path d="M 228.775556 36.113396 
L 244.775556 36.113396 
L 244.775556 30.513396 
L 228.775556 30.513396 
z
" style="fill: #63ac9a; stroke: #000000; stroke-linejoin: miter"/>
    </g>
    <g id="text_10">
     <!-- Observables.jl -->
     <g transform="translate(251.175556 36.113396) scale(0.08 -0.08)">
      <use xlink:href="#DejaVuSans-4f"/>
      <use xlink:href="#DejaVuSans-62" x="78.710938"/>
      <use xlink:href="#DejaVuSans-73" x="142.1875"/>
      <use xlink:href="#DejaVuSans-65" x="194.287109"/>
      <use xlink:href="#DejaVuSans-72" x="255.810547"/>
      <use xlink:href="#DejaVuSans-76" x="296.923828"/>
      <use xlink:href="#DejaVuSans-61" x="356.103516"/>
      <use xlink:href="#DejaVuSans-62" x="417.382812"/>
      <use xlink:href="#DejaVuSans-6c" x="480.859375"/>
      <use xlink:href="#DejaVuSans-65" x="508.642578"/>
      <use xlink:href="#DejaVuSans-73" x="570.166016"/>
      <use xlink:href="#DejaVuSans-2e" x="622.265625"/>
      <use xlink:href="#DejaVuSans-6a" x="654.052734"/>
      <use xlink:href="#DejaVuSans-6c" x="681.835938"/>
     </g>
    </g>
    <g id="patch_10">
     <path d="M 228.775556 47.855896 
L 244.775556 47.855896 
L 244.775556 42.255896 
L 228.775556 42.255896 
z
" style="fill: #e49938; stroke: #000000; stroke-linejoin: miter"/>
    </g>
    <g id="text_11">
     <!-- Rocket.jl (async) -->
     <g transform="translate(251.175556 47.855896) scale(0.08 -0.08)">
      <defs>
       <path id="DejaVuSans-79" d="M 2059 -325 
Q 1816 -950 1584 -1140 
Q 1353 -1331 966 -1331 
L 506 -1331 
L 506 -850 
L 844 -850 
Q 1081 -850 1212 -737 
Q 1344 -625 1503 -206 
L 1606 56 
L 191 3500 
L 800 3500 
L 1894 763 
L 2988 3500 
L 3597 3500 
L 2059 -325 
z
" transform="scale(0.015625)"/>
      </defs>
      <use xlink:href="#DejaVuSans-52"/>
      <use xlink:href="#DejaVuSans-6f" x="64.982422"/>
      <use xlink:href="#DejaVuSans-63" x="126.164062"/>
      <use xlink:href="#DejaVuSans-6b" x="181.144531"/>
      <use xlink:href="#DejaVuSans-65" x="235.429688"/>
      <use xlink:href="#DejaVuSans-74" x="296.953125"/>
      <use xlink:href="#DejaVuSans-2e" x="336.162109"/>
      <use xlink:href="#DejaVuSans-6a" x="367.949219"/>
      <use xlink:href="#DejaVuSans-6c" x="395.732422"/>
      <use xlink:href="#DejaVuSans-20" x="423.515625"/>
      <use xlink:href="#DejaVuSans-28" x="455.302734"/>
      <use xlink:href="#DejaVuSans-61" x="494.316406"/>
      <use xlink:href="#DejaVuSans-73" x="555.595703"/>
      <use xlink:href="#DejaVuSans-79" x="607.695312"/>
      <use xlink:href="#DejaVuSans-6e" x="666.875"/>
      <use xlink:href="#DejaVuSans-63" x="730.253906"/>
      <use xlink:href="#DejaVuSans-29" x="785.234375"/>
     </g>
    </g>
    <g id="patch_11">
     <path d="M 228.775556 59.598396 
L 244.775556 59.598396 
L 244.775556 53.998396 
L 228.775556 53.998396 
z
" style="fill: #e4632e; stroke: #000000; stroke-linejoin: miter"/>
    </g>
    <g id="text_12">
     <!-- Rocket.jl (sync) -->
     <g transform="translate(251.175556 59.598396) scale(0.08 -0.08)">
      <use xlink:href="#DejaVuSans-52"/>
      <use xlink:href="#DejaVuSans-6f" x="64.982422"/>
      <use xlink:href="#DejaVuSans-63" x="126.164062"/>
      <use xlink:href="#DejaVuSans-6b" x="181.144531"/>
      <use xlink:href="#DejaVuSans-65" x="235.429688"/>
      <use xlink:href="#DejaVuSans-74" x="296.953125"/>
      <use xlink:href="#DejaVuSans-2e" x="336.162109"/>
      <use xlink:href="#DejaVuSans-6a" x="367.949219"/>
      <use xlink:href="#DejaVuSans-6c" x="395.732422"/>
      <use xlink:href="#DejaVuSans-20" x="423.515625"/>
      <use xlink:href="#DejaVuSans-28" x="455.302734"/>
      <use xlink:href="#DejaVuSans-73" x="494.316406"/>
      <use xlink:href="#DejaVuSans-79" x="546.416016"/>
      <use xlink:href="#DejaVuSans-6e" x="605.595703"/>
      <use xlink:href="#DejaVuSans-63" x="668.974609"/>
      <use xlink:href="#DejaVuSans-29" x="723.955078"/>
     </g>
    </g>
   </g>
  </g>
  <g id="axes_2">
   <g id="patch_12">
    <path d="M 357.481098 274.465354 
L 645.165354 274.465354 
L 645.165354 19.634646 
L 357.481098 19.634646 
z
" style="fill: #ffffff"/>
   </g>
   <g id="patch_13">
    <path d="M 368.283892 19.634646 
L 368.283892 274.465354 
L 456.976781 274.465354 
L 456.976781 19.634646 
L 368.283892 19.634646 
" clip-path="url(#pac64f00919)" style="fill: #63ac9a; stroke: #000000; stroke-linejoin: miter"/>
   </g>
   <g id="PathCollection_4">
    <g clip-path="url(#pac64f00919)">
     <use xlink:href="#mb5013ff0dc" x="412.630336" y="19.634646" style="fill: #63ac9a; fill-opacity: 0; stroke: #000000; stroke-opacity: 0"/>
    </g>
   </g>
   <g id="matplotlib.axis_3">
    <g id="xtick_2">
     <g id="line2d_8">
      <g>
       <use xlink:href="#m4ed9fbecfa" x="501.323226" y="274.465354" style="stroke: #000000; stroke-width: 0.5"/>
      </g>
     </g>
     <g id="text_13">
      <!--  map  -->
      <g transform="translate(489.893851 284.044104) scale(0.08 -0.08)">
       <use xlink:href="#DejaVuSans-20"/>
       <use xlink:href="#DejaVuSans-6d" x="31.787109"/>
       <use xlink:href="#DejaVuSans-61" x="129.199219"/>
       <use xlink:href="#DejaVuSans-70" x="190.478516"/>
       <use xlink:href="#DejaVuSans-20" x="253.955078"/>
      </g>
     </g>
    </g>
   </g>
   <g id="matplotlib.axis_4">
    <g id="ytick_7">
     <g id="line2d_9">
      <g>
       <use xlink:href="#md2fbc7a301" x="357.481098" y="274.465354" style="stroke: #000000; stroke-width: 0.5"/>
      </g>
     </g>
     <g id="text_14">
      <!-- $0$ -->
      <g transform="translate(348.861098 277.504729) scale(0.08 -0.08)">
       <use xlink:href="#DejaVuSans-30" transform="translate(0 0.78125)"/>
      </g>
     </g>
    </g>
    <g id="ytick_8">
     <g id="line2d_10">
      <g>
       <use xlink:href="#md2fbc7a301" x="357.481098" y="226.742579" style="stroke: #000000; stroke-width: 0.5"/>
      </g>
     </g>
     <g id="text_15">
      <!-- $1$ -->
      <g transform="translate(348.861098 229.781954) scale(0.08 -0.08)">
       <use xlink:href="#DejaVuSans-31" transform="translate(0 0.09375)"/>
      </g>
     </g>
    </g>
    <g id="ytick_9">
     <g id="line2d_11">
      <g>
       <use xlink:href="#md2fbc7a301" x="357.481098" y="179.019803" style="stroke: #000000; stroke-width: 0.5"/>
      </g>
     </g>
     <g id="text_16">
      <!-- $2$ -->
      <g transform="translate(348.861098 182.059178) scale(0.08 -0.08)">
       <use xlink:href="#DejaVuSans-32" transform="translate(0 0.78125)"/>
      </g>
     </g>
    </g>
    <g id="ytick_10">
     <g id="line2d_12">
      <g>
       <use xlink:href="#md2fbc7a301" x="357.481098" y="131.297028" style="stroke: #000000; stroke-width: 0.5"/>
      </g>
     </g>
     <g id="text_17">
      <!-- $3$ -->
      <g transform="translate(348.861098 134.336403) scale(0.08 -0.08)">
       <defs>
        <path id="DejaVuSans-33" d="M 2597 2516 
Q 3050 2419 3304 2112 
Q 3559 1806 3559 1356 
Q 3559 666 3084 287 
Q 2609 -91 1734 -91 
Q 1441 -91 1130 -33 
Q 819 25 488 141 
L 488 750 
Q 750 597 1062 519 
Q 1375 441 1716 441 
Q 2309 441 2620 675 
Q 2931 909 2931 1356 
Q 2931 1769 2642 2001 
Q 2353 2234 1838 2234 
L 1294 2234 
L 1294 2753 
L 1863 2753 
Q 2328 2753 2575 2939 
Q 2822 3125 2822 3475 
Q 2822 3834 2567 4026 
Q 2313 4219 1838 4219 
Q 1578 4219 1281 4162 
Q 984 4106 628 3988 
L 628 4550 
Q 988 4650 1302 4700 
Q 1616 4750 1894 4750 
Q 2613 4750 3031 4423 
Q 3450 4097 3450 3541 
Q 3450 3153 3228 2886 
Q 3006 2619 2597 2516 
z
" transform="scale(0.015625)"/>
       </defs>
       <use xlink:href="#DejaVuSans-33" transform="translate(0 0.78125)"/>
      </g>
     </g>
    </g>
    <g id="ytick_11">
     <g id="line2d_13">
      <g>
       <use xlink:href="#md2fbc7a301" x="357.481098" y="83.574252" style="stroke: #000000; stroke-width: 0.5"/>
      </g>
     </g>
     <g id="text_18">
      <!-- $4$ -->
      <g transform="translate(348.861098 86.613627) scale(0.08 -0.08)">
       <defs>
        <path id="DejaVuSans-34" d="M 2419 4116 
L 825 1625 
L 2419 1625 
L 2419 4116 
z
M 2253 4666 
L 3047 4666 
L 3047 1625 
L 3713 1625 
L 3713 1100 
L 3047 1100 
L 3047 0 
L 2419 0 
L 2419 1100 
L 313 1100 
L 313 1709 
L 2253 4666 
z
" transform="scale(0.015625)"/>
       </defs>
       <use xlink:href="#DejaVuSans-34" transform="translate(0 0.09375)"/>
      </g>
     </g>
    </g>
    <g id="ytick_12">
     <g id="line2d_14">
      <g>
       <use xlink:href="#md2fbc7a301" x="357.481098" y="35.851476" style="stroke: #000000; stroke-width: 0.5"/>
      </g>
     </g>
     <g id="text_19">
      <!-- $5$ -->
      <g transform="translate(348.861098 38.890851) scale(0.08 -0.08)">
       <use xlink:href="#DejaVuSans-35" transform="translate(0 0.09375)"/>
      </g>
     </g>
    </g>
    <g id="text_20">
     <!-- Memory in MiB (lower is better) -->
     <g transform="translate(342.573441 233.773828) rotate(-90) scale(0.11 -0.11)">
      <defs>
       <path id="DejaVuSans-4d" d="M 628 4666 
L 1569 4666 
L 2759 1491 
L 3956 4666 
L 4897 4666 
L 4897 0 
L 4281 0 
L 4281 4097 
L 3078 897 
L 2444 897 
L 1241 4097 
L 1241 0 
L 628 0 
L 628 4666 
z
" transform="scale(0.015625)"/>
       <path id="DejaVuSans-42" d="M 1259 2228 
L 1259 519 
L 2272 519 
Q 2781 519 3026 730 
Q 3272 941 3272 1375 
Q 3272 1813 3026 2020 
Q 2781 2228 2272 2228 
L 1259 2228 
z
M 1259 4147 
L 1259 2741 
L 2194 2741 
Q 2656 2741 2882 2914 
Q 3109 3088 3109 3444 
Q 3109 3797 2882 3972 
Q 2656 4147 2194 4147 
L 1259 4147 
z
M 628 4666 
L 2241 4666 
Q 2963 4666 3353 4366 
Q 3744 4066 3744 3513 
Q 3744 3084 3544 2831 
Q 3344 2578 2956 2516 
Q 3422 2416 3680 2098 
Q 3938 1781 3938 1306 
Q 3938 681 3513 340 
Q 3088 0 2303 0 
L 628 0 
L 628 4666 
z
" transform="scale(0.015625)"/>
      </defs>
      <use xlink:href="#DejaVuSans-4d"/>
      <use xlink:href="#DejaVuSans-65" x="86.279297"/>
      <use xlink:href="#DejaVuSans-6d" x="147.802734"/>
      <use xlink:href="#DejaVuSans-6f" x="245.214844"/>
      <use xlink:href="#DejaVuSans-72" x="306.396484"/>
      <use xlink:href="#DejaVuSans-79" x="347.509766"/>
      <use xlink:href="#DejaVuSans-20" x="406.689453"/>
      <use xlink:href="#DejaVuSans-69" x="438.476562"/>
      <use xlink:href="#DejaVuSans-6e" x="466.259766"/>
      <use xlink:href="#DejaVuSans-20" x="529.638672"/>
      <use xlink:href="#DejaVuSans-4d" x="561.425781"/>
      <use xlink:href="#DejaVuSans-69" x="647.705078"/>
      <use xlink:href="#DejaVuSans-42" x="675.488281"/>
      <use xlink:href="#DejaVuSans-20" x="744.091797"/>
      <use xlink:href="#DejaVuSans-28" x="775.878906"/>
      <use xlink:href="#DejaVuSans-6c" x="814.892578"/>
      <use xlink:href="#DejaVuSans-6f" x="842.675781"/>
      <use xlink:href="#DejaVuSans-77" x="903.857422"/>
      <use xlink:href="#DejaVuSans-65" x="985.644531"/>
      <use xlink:href="#DejaVuSans-72" x="1047.167969"/>
      <use xlink:href="#DejaVuSans-20" x="1088.28125"/>
      <use xlink:href="#DejaVuSans-69" x="1120.068359"/>
      <use xlink:href="#DejaVuSans-73" x="1147.851562"/>
      <use xlink:href="#DejaVuSans-20" x="1199.951172"/>
      <use xlink:href="#DejaVuSans-62" x="1231.738281"/>
      <use xlink:href="#DejaVuSans-65" x="1295.214844"/>
      <use xlink:href="#DejaVuSans-74" x="1356.738281"/>
      <use xlink:href="#DejaVuSans-74" x="1395.947266"/>
      <use xlink:href="#DejaVuSans-65" x="1435.15625"/>
      <use xlink:href="#DejaVuSans-72" x="1496.679688"/>
      <use xlink:href="#DejaVuSans-29" x="1537.792969"/>
     </g>
    </g>
   </g>
   <g id="patch_14">
    <path d="M 456.976781 176.726727 
L 456.976781 274.465354 
L 545.669671 274.465354 
L 545.669671 176.726727 
L 456.976781 176.726727 
" clip-path="url(#pac64f00919)" style="fill: #e49938; stroke: #000000; stroke-linejoin: miter"/>
   </g>
   <g id="PathCollection_5">
    <g clip-path="url(#pac64f00919)">
     <use xlink:href="#m6bb4aed2e3" x="501.323226" y="176.726727" style="fill: #e49938; fill-opacity: 0; stroke: #000000; stroke-opacity: 0"/>
    </g>
   </g>
   <g id="patch_15">
    <path d="M 357.481098 274.465354 
L 357.481098 19.634646 
" style="fill: none; stroke: #000000; stroke-linejoin: miter; stroke-linecap: square"/>
   </g>
   <g id="patch_16">
    <path d="M 357.481098 274.465354 
L 645.165354 274.465354 
" style="fill: none; stroke: #000000; stroke-linejoin: miter; stroke-linecap: square"/>
   </g>
   <g id="patch_17">
    <path d="M 545.669671 215.090054 
L 545.669671 274.465354 
L 634.36256 274.465354 
L 634.36256 215.090054 
L 545.669671 215.090054 
" clip-path="url(#pac64f00919)" style="fill: #e4632e; stroke: #000000; stroke-linejoin: miter"/>
   </g>
   <g id="text_21">
    <!-- Observables.jl vs Rocket.jl (memory) -->
    <g transform="translate(372.828382 13.634646) scale(0.14 -0.14)">
     <use xlink:href="#DejaVuSans-4f"/>
     <use xlink:href="#DejaVuSans-62" x="78.710938"/>
     <use xlink:href="#DejaVuSans-73" x="142.1875"/>
     <use xlink:href="#DejaVuSans-65" x="194.287109"/>
     <use xlink:href="#DejaVuSans-72" x="255.810547"/>
     <use xlink:href="#DejaVuSans-76" x="296.923828"/>
     <use xlink:href="#DejaVuSans-61" x="356.103516"/>
     <use xlink:href="#DejaVuSans-62" x="417.382812"/>
     <use xlink:href="#DejaVuSans-6c" x="480.859375"/>
     <use xlink:href="#DejaVuSans-65" x="508.642578"/>
     <use xlink:href="#DejaVuSans-73" x="570.166016"/>
     <use xlink:href="#DejaVuSans-2e" x="622.265625"/>
     <use xlink:href="#DejaVuSans-6a" x="654.052734"/>
     <use xlink:href="#DejaVuSans-6c" x="681.835938"/>
     <use xlink:href="#DejaVuSans-20" x="709.619141"/>
     <use xlink:href="#DejaVuSans-76" x="741.40625"/>
     <use xlink:href="#DejaVuSans-73" x="800.585938"/>
     <use xlink:href="#DejaVuSans-20" x="852.685547"/>
     <use xlink:href="#DejaVuSans-52" x="884.472656"/>
     <use xlink:href="#DejaVuSans-6f" x="949.455078"/>
     <use xlink:href="#DejaVuSans-63" x="1010.636719"/>
     <use xlink:href="#DejaVuSans-6b" x="1065.617188"/>
     <use xlink:href="#DejaVuSans-65" x="1119.902344"/>
     <use xlink:href="#DejaVuSans-74" x="1181.425781"/>
     <use xlink:href="#DejaVuSans-2e" x="1220.634766"/>
     <use xlink:href="#DejaVuSans-6a" x="1252.421875"/>
     <use xlink:href="#DejaVuSans-6c" x="1280.205078"/>
     <use xlink:href="#DejaVuSans-20" x="1307.988281"/>
     <use xlink:href="#DejaVuSans-28" x="1339.775391"/>
     <use xlink:href="#DejaVuSans-6d" x="1378.789062"/>
     <use xlink:href="#DejaVuSans-65" x="1476.201172"/>
     <use xlink:href="#DejaVuSans-6d" x="1537.724609"/>
     <use xlink:href="#DejaVuSans-6f" x="1635.136719"/>
     <use xlink:href="#DejaVuSans-72" x="1696.318359"/>
     <use xlink:href="#DejaVuSans-79" x="1737.431641"/>
     <use xlink:href="#DejaVuSans-29" x="1796.611328"/>
    </g>
   </g>
   <g id="PathCollection_6">
    <g clip-path="url(#pac64f00919)">
     <use xlink:href="#m439764386a" x="590.016116" y="215.090054" style="fill: #e4632e; fill-opacity: 0; stroke: #000000; stroke-opacity: 0"/>
    </g>
   </g>
   <g id="legend_2">
    <g id="patch_18">
     <path d="M 540.025354 67.662146 
L 641.165354 67.662146 
L 641.165354 23.634646 
L 540.025354 23.634646 
z
" style="fill: #ffffff; stroke: #000000; stroke-linejoin: miter"/>
    </g>
    <g id="patch_19">
     <path d="M 546.425354 36.113396 
L 562.425354 36.113396 
L 562.425354 30.513396 
L 546.425354 30.513396 
z
" style="fill: #63ac9a; stroke: #000000; stroke-linejoin: miter"/>
    </g>
    <g id="text_22">
     <!-- Observables.jl -->
     <g transform="translate(568.825354 36.113396) scale(0.08 -0.08)">
      <use xlink:href="#DejaVuSans-4f"/>
      <use xlink:href="#DejaVuSans-62" x="78.710938"/>
      <use xlink:href="#DejaVuSans-73" x="142.1875"/>
      <use xlink:href="#DejaVuSans-65" x="194.287109"/>
      <use xlink:href="#DejaVuSans-72" x="255.810547"/>
      <use xlink:href="#DejaVuSans-76" x="296.923828"/>
      <use xlink:href="#DejaVuSans-61" x="356.103516"/>
      <use xlink:href="#DejaVuSans-62" x="417.382812"/>
      <use xlink:href="#DejaVuSans-6c" x="480.859375"/>
      <use xlink:href="#DejaVuSans-65" x="508.642578"/>
      <use xlink:href="#DejaVuSans-73" x="570.166016"/>
      <use xlink:href="#DejaVuSans-2e" x="622.265625"/>
      <use xlink:href="#DejaVuSans-6a" x="654.052734"/>
      <use xlink:href="#DejaVuSans-6c" x="681.835938"/>
     </g>
    </g>
    <g id="patch_20">
     <path d="M 546.425354 47.855896 
L 562.425354 47.855896 
L 562.425354 42.255896 
L 546.425354 42.255896 
z
" style="fill: #e49938; stroke: #000000; stroke-linejoin: miter"/>
    </g>
    <g id="text_23">
     <!-- Rocket.jl (async) -->
     <g transform="translate(568.825354 47.855896) scale(0.08 -0.08)">
      <use xlink:href="#DejaVuSans-52"/>
      <use xlink:href="#DejaVuSans-6f" x="64.982422"/>
      <use xlink:href="#DejaVuSans-63" x="126.164062"/>
      <use xlink:href="#DejaVuSans-6b" x="181.144531"/>
      <use xlink:href="#DejaVuSans-65" x="235.429688"/>
      <use xlink:href="#DejaVuSans-74" x="296.953125"/>
      <use xlink:href="#DejaVuSans-2e" x="336.162109"/>
      <use xlink:href="#DejaVuSans-6a" x="367.949219"/>
      <use xlink:href="#DejaVuSans-6c" x="395.732422"/>
      <use xlink:href="#DejaVuSans-20" x="423.515625"/>
      <use xlink:href="#DejaVuSans-28" x="455.302734"/>
      <use xlink:href="#DejaVuSans-61" x="494.316406"/>
      <use xlink:href="#DejaVuSans-73" x="555.595703"/>
      <use xlink:href="#DejaVuSans-79" x="607.695312"/>
      <use xlink:href="#DejaVuSans-6e" x="666.875"/>
      <use xlink:href="#DejaVuSans-63" x="730.253906"/>
      <use xlink:href="#DejaVuSans-29" x="785.234375"/>
     </g>
    </g>
    <g id="patch_21">
     <path d="M 546.425354 59.598396 
L 562.425354 59.598396 
L 562.425354 53.998396 
L 546.425354 53.998396 
z
" style="fill: #e4632e; stroke: #000000; stroke-linejoin: miter"/>
    </g>
    <g id="text_24">
     <!-- Rocket.jl (sync) -->
     <g transform="translate(568.825354 59.598396) scale(0.08 -0.08)">
      <use xlink:href="#DejaVuSans-52"/>
      <use xlink:href="#DejaVuSans-6f" x="64.982422"/>
      <use xlink:href="#DejaVuSans-63" x="126.164062"/>
      <use xlink:href="#DejaVuSans-6b" x="181.144531"/>
      <use xlink:href="#DejaVuSans-65" x="235.429688"/>
      <use xlink:href="#DejaVuSans-74" x="296.953125"/>
      <use xlink:href="#DejaVuSans-2e" x="336.162109"/>
      <use xlink:href="#DejaVuSans-6a" x="367.949219"/>
      <use xlink:href="#DejaVuSans-6c" x="395.732422"/>
      <use xlink:href="#DejaVuSans-20" x="423.515625"/>
      <use xlink:href="#DejaVuSans-28" x="455.302734"/>
      <use xlink:href="#DejaVuSans-73" x="494.316406"/>
      <use xlink:href="#DejaVuSans-79" x="546.416016"/>
      <use xlink:href="#DejaVuSans-6e" x="605.595703"/>
      <use xlink:href="#DejaVuSans-63" x="668.974609"/>
      <use xlink:href="#DejaVuSans-29" x="723.955078"/>
     </g>
    </g>
   </g>
  </g>
 </g>
 <defs>
  <clipPath id="pacb0f85c69">
   <rect x="39.8313" y="19.634646" width="287.684257" height="254.830709"/>
  </clipPath>
  <clipPath id="pac64f00919">
   <rect x="357.481098" y="19.634646" width="287.684257" height="254.830709"/>
  </clipPath>
 </defs>
</svg>
