<?xml version="1.0" encoding="utf-8" standalone="no"?>
<!DOCTYPE svg PUBLIC "-//W3C//DTD SVG 1.1//EN"
  "http://www.w3.org/Graphics/SVG/1.1/DTD/svg11.dtd">
<!-- Created with matplotlib (https://matplotlib.org/) -->
<svg height="288pt" version="1.1" viewBox="0 0 648 288" width="648pt" xmlns="http://www.w3.org/2000/svg" xmlns:xlink="http://www.w3.org/1999/xlink">
 <defs>
  <style type="text/css">
*{stroke-linecap:butt;stroke-linejoin:round;}
  </style>
 </defs>
 <g id="figure_1">
  <g id="patch_1">
   <path d="M 0 288 
L 648 288 
L 648 0 
L 0 0 
z
" style="fill:#ffffff;"/>
  </g>
  <g id="axes_1">
   <g id="patch_2">
    <path d="M 27.130896 273.025354 
L 321.165354 273.025354 
L 321.165354 19.634646 
L 27.130896 19.634646 
z
" style="fill:#ffffff;"/>
   </g>
   <g id="patch_3">
    <path clip-path="url(#p3751da733f)" d="M 38.172145 159.126563 
L 38.172145 265.853919 
L 128.822798 265.853919 
L 128.822798 159.126563 
L 38.172145 159.126563 
" style="fill:#63ac9a;stroke:#000000;stroke-linejoin:miter;"/>
   </g>
   <g id="matplotlib.axis_1">
    <g id="xtick_1">
     <g id="line2d_1">
      <defs>
       <path d="M 0 0 
L 0 -2.5 
" id="m9c20563b9a" style="stroke:#000000;stroke-width:0.5;"/>
      </defs>
      <g>
       <use style="stroke:#000000;stroke-width:0.5;" x="174.148125" xlink:href="#m9c20563b9a" y="273.025354"/>
      </g>
     </g>
     <g id="text_1">
      <!-- $\mathregular{ map }$ -->
      <defs>
       <path d="M 52 44.1875 
Q 55.375 50.25 60.0625 53.125 
Q 64.75 56 71.09375 56 
Q 79.640625 56 84.28125 50.015625 
Q 88.921875 44.046875 88.921875 33.015625 
L 88.921875 0 
L 79.890625 0 
L 79.890625 32.71875 
Q 79.890625 40.578125 77.09375 44.375 
Q 74.3125 48.1875 68.609375 48.1875 
Q 61.625 48.1875 57.5625 43.546875 
Q 53.515625 38.921875 53.515625 30.90625 
L 53.515625 0 
L 44.484375 0 
L 44.484375 32.71875 
Q 44.484375 40.625 41.703125 44.40625 
Q 38.921875 48.1875 33.109375 48.1875 
Q 26.21875 48.1875 22.15625 43.53125 
Q 18.109375 38.875 18.109375 30.90625 
L 18.109375 0 
L 9.078125 0 
L 9.078125 54.6875 
L 18.109375 54.6875 
L 18.109375 46.1875 
Q 21.1875 51.21875 25.484375 53.609375 
Q 29.78125 56 35.6875 56 
Q 41.65625 56 45.828125 52.96875 
Q 50 49.953125 52 44.1875 
z
" id="DejaVuSans-109"/>
       <path d="M 34.28125 27.484375 
Q 23.390625 27.484375 19.1875 25 
Q 14.984375 22.515625 14.984375 16.5 
Q 14.984375 11.71875 18.140625 8.90625 
Q 21.296875 6.109375 26.703125 6.109375 
Q 34.1875 6.109375 38.703125 11.40625 
Q 43.21875 16.703125 43.21875 25.484375 
L 43.21875 27.484375 
z
M 52.203125 31.203125 
L 52.203125 0 
L 43.21875 0 
L 43.21875 8.296875 
Q 40.140625 3.328125 35.546875 0.953125 
Q 30.953125 -1.421875 24.3125 -1.421875 
Q 15.921875 -1.421875 10.953125 3.296875 
Q 6 8.015625 6 15.921875 
Q 6 25.140625 12.171875 29.828125 
Q 18.359375 34.515625 30.609375 34.515625 
L 43.21875 34.515625 
L 43.21875 35.40625 
Q 43.21875 41.609375 39.140625 45 
Q 35.0625 48.390625 27.6875 48.390625 
Q 23 48.390625 18.546875 47.265625 
Q 14.109375 46.140625 10.015625 43.890625 
L 10.015625 52.203125 
Q 14.9375 54.109375 19.578125 55.046875 
Q 24.21875 56 28.609375 56 
Q 40.484375 56 46.34375 49.84375 
Q 52.203125 43.703125 52.203125 31.203125 
z
" id="DejaVuSans-97"/>
       <path d="M 18.109375 8.203125 
L 18.109375 -20.796875 
L 9.078125 -20.796875 
L 9.078125 54.6875 
L 18.109375 54.6875 
L 18.109375 46.390625 
Q 20.953125 51.265625 25.265625 53.625 
Q 29.59375 56 35.59375 56 
Q 45.5625 56 51.78125 48.09375 
Q 58.015625 40.1875 58.015625 27.296875 
Q 58.015625 14.40625 51.78125 6.484375 
Q 45.5625 -1.421875 35.59375 -1.421875 
Q 29.59375 -1.421875 25.265625 0.953125 
Q 20.953125 3.328125 18.109375 8.203125 
z
M 48.6875 27.296875 
Q 48.6875 37.203125 44.609375 42.84375 
Q 40.53125 48.484375 33.40625 48.484375 
Q 26.265625 48.484375 22.1875 42.84375 
Q 18.109375 37.203125 18.109375 27.296875 
Q 18.109375 17.390625 22.1875 11.75 
Q 26.265625 6.109375 33.40625 6.109375 
Q 40.53125 6.109375 44.609375 11.75 
Q 48.6875 17.390625 48.6875 27.296875 
z
" id="DejaVuSans-112"/>
      </defs>
      <g transform="translate(165.228125 282.587854)scale(0.08 -0.08)">
       <use xlink:href="#DejaVuSans-109"/>
       <use transform="translate(97.412109 0)" xlink:href="#DejaVuSans-97"/>
       <use transform="translate(158.691406 0)" xlink:href="#DejaVuSans-112"/>
      </g>
     </g>
    </g>
   </g>
   <g id="matplotlib.axis_2">
    <g id="ytick_1">
     <g id="line2d_2">
      <defs>
       <path d="M 0 0 
L 2.5 0 
" id="mef7da8c1d6" style="stroke:#000000;stroke-width:0.5;"/>
      </defs>
      <g>
       <use style="stroke:#000000;stroke-width:0.5;" x="27.130896" xlink:href="#mef7da8c1d6" y="265.853919"/>
      </g>
     </g>
     <g id="text_2">
      <!-- $\mathregular{0}$ -->
      <defs>
       <path d="M 31.78125 66.40625 
Q 24.171875 66.40625 20.328125 58.90625 
Q 16.5 51.421875 16.5 36.375 
Q 16.5 21.390625 20.328125 13.890625 
Q 24.171875 6.390625 31.78125 6.390625 
Q 39.453125 6.390625 43.28125 13.890625 
Q 47.125 21.390625 47.125 36.375 
Q 47.125 51.421875 43.28125 58.90625 
Q 39.453125 66.40625 31.78125 66.40625 
z
M 31.78125 74.21875 
Q 44.046875 74.21875 50.515625 64.515625 
Q 56.984375 54.828125 56.984375 36.375 
Q 56.984375 17.96875 50.515625 8.265625 
Q 44.046875 -1.421875 31.78125 -1.421875 
Q 19.53125 -1.421875 13.0625 8.265625 
Q 6.59375 17.96875 6.59375 36.375 
Q 6.59375 54.828125 13.0625 64.515625 
Q 19.53125 74.21875 31.78125 74.21875 
z
" id="DejaVuSans-48"/>
      </defs>
      <g transform="translate(18.510896 268.893294)scale(0.08 -0.08)">
       <use transform="translate(0 0.78125)" xlink:href="#DejaVuSans-48"/>
      </g>
     </g>
    </g>
    <g id="ytick_2">
     <g id="line2d_3">
      <g>
       <use style="stroke:#000000;stroke-width:0.5;" x="27.130896" xlink:href="#mef7da8c1d6" y="228.93307"/>
      </g>
     </g>
     <g id="text_3">
      <!-- $\mathregular{1}$ -->
      <defs>
       <path d="M 12.40625 8.296875 
L 28.515625 8.296875 
L 28.515625 63.921875 
L 10.984375 60.40625 
L 10.984375 69.390625 
L 28.421875 72.90625 
L 38.28125 72.90625 
L 38.28125 8.296875 
L 54.390625 8.296875 
L 54.390625 0 
L 12.40625 0 
z
" id="DejaVuSans-49"/>
      </defs>
      <g transform="translate(18.510896 231.972445)scale(0.08 -0.08)">
       <use transform="translate(0 0.09375)" xlink:href="#DejaVuSans-49"/>
      </g>
     </g>
    </g>
    <g id="ytick_3">
     <g id="line2d_4">
      <g>
       <use style="stroke:#000000;stroke-width:0.5;" x="27.130896" xlink:href="#mef7da8c1d6" y="192.012222"/>
      </g>
     </g>
     <g id="text_4">
      <!-- $\mathregular{2}$ -->
      <defs>
       <path d="M 19.1875 8.296875 
L 53.609375 8.296875 
L 53.609375 0 
L 7.328125 0 
L 7.328125 8.296875 
Q 12.9375 14.109375 22.625 23.890625 
Q 32.328125 33.6875 34.8125 36.53125 
Q 39.546875 41.84375 41.421875 45.53125 
Q 43.3125 49.21875 43.3125 52.78125 
Q 43.3125 58.59375 39.234375 62.25 
Q 35.15625 65.921875 28.609375 65.921875 
Q 23.96875 65.921875 18.8125 64.3125 
Q 13.671875 62.703125 7.8125 59.421875 
L 7.8125 69.390625 
Q 13.765625 71.78125 18.9375 73 
Q 24.125 74.21875 28.421875 74.21875 
Q 39.75 74.21875 46.484375 68.546875 
Q 53.21875 62.890625 53.21875 53.421875 
Q 53.21875 48.921875 51.53125 44.890625 
Q 49.859375 40.875 45.40625 35.40625 
Q 44.1875 33.984375 37.640625 27.21875 
Q 31.109375 20.453125 19.1875 8.296875 
z
" id="DejaVuSans-50"/>
      </defs>
      <g transform="translate(18.510896 195.051597)scale(0.08 -0.08)">
       <use transform="translate(0 0.78125)" xlink:href="#DejaVuSans-50"/>
      </g>
     </g>
    </g>
    <g id="ytick_4">
     <g id="line2d_5">
      <g>
       <use style="stroke:#000000;stroke-width:0.5;" x="27.130896" xlink:href="#mef7da8c1d6" y="155.091373"/>
      </g>
     </g>
     <g id="text_5">
      <!-- $\mathregular{3}$ -->
      <defs>
       <path d="M 40.578125 39.3125 
Q 47.65625 37.796875 51.625 33 
Q 55.609375 28.21875 55.609375 21.1875 
Q 55.609375 10.40625 48.1875 4.484375 
Q 40.765625 -1.421875 27.09375 -1.421875 
Q 22.515625 -1.421875 17.65625 -0.515625 
Q 12.796875 0.390625 7.625 2.203125 
L 7.625 11.71875 
Q 11.71875 9.328125 16.59375 8.109375 
Q 21.484375 6.890625 26.8125 6.890625 
Q 36.078125 6.890625 40.9375 10.546875 
Q 45.796875 14.203125 45.796875 21.1875 
Q 45.796875 27.640625 41.28125 31.265625 
Q 36.765625 34.90625 28.71875 34.90625 
L 20.21875 34.90625 
L 20.21875 43.015625 
L 29.109375 43.015625 
Q 36.375 43.015625 40.234375 45.921875 
Q 44.09375 48.828125 44.09375 54.296875 
Q 44.09375 59.90625 40.109375 62.90625 
Q 36.140625 65.921875 28.71875 65.921875 
Q 24.65625 65.921875 20.015625 65.03125 
Q 15.375 64.15625 9.8125 62.3125 
L 9.8125 71.09375 
Q 15.4375 72.65625 20.34375 73.4375 
Q 25.25 74.21875 29.59375 74.21875 
Q 40.828125 74.21875 47.359375 69.109375 
Q 53.90625 64.015625 53.90625 55.328125 
Q 53.90625 49.265625 50.4375 45.09375 
Q 46.96875 40.921875 40.578125 39.3125 
z
" id="DejaVuSans-51"/>
      </defs>
      <g transform="translate(18.510896 158.130748)scale(0.08 -0.08)">
       <use transform="translate(0 0.78125)" xlink:href="#DejaVuSans-51"/>
      </g>
     </g>
    </g>
    <g id="ytick_5">
     <g id="line2d_6">
      <g>
       <use style="stroke:#000000;stroke-width:0.5;" x="27.130896" xlink:href="#mef7da8c1d6" y="118.170524"/>
      </g>
     </g>
     <g id="text_6">
      <!-- $\mathregular{4}$ -->
      <defs>
       <path d="M 37.796875 64.3125 
L 12.890625 25.390625 
L 37.796875 25.390625 
z
M 35.203125 72.90625 
L 47.609375 72.90625 
L 47.609375 25.390625 
L 58.015625 25.390625 
L 58.015625 17.1875 
L 47.609375 17.1875 
L 47.609375 0 
L 37.796875 0 
L 37.796875 17.1875 
L 4.890625 17.1875 
L 4.890625 26.703125 
z
" id="DejaVuSans-52"/>
      </defs>
      <g transform="translate(18.510896 121.209899)scale(0.08 -0.08)">
       <use transform="translate(0 0.09375)" xlink:href="#DejaVuSans-52"/>
      </g>
     </g>
    </g>
    <g id="ytick_6">
     <g id="line2d_7">
      <g>
       <use style="stroke:#000000;stroke-width:0.5;" x="27.130896" xlink:href="#mef7da8c1d6" y="81.249675"/>
      </g>
     </g>
     <g id="text_7">
      <!-- $\mathregular{5}$ -->
      <defs>
       <path d="M 10.796875 72.90625 
L 49.515625 72.90625 
L 49.515625 64.59375 
L 19.828125 64.59375 
L 19.828125 46.734375 
Q 21.96875 47.46875 24.109375 47.828125 
Q 26.265625 48.1875 28.421875 48.1875 
Q 40.625 48.1875 47.75 41.5 
Q 54.890625 34.8125 54.890625 23.390625 
Q 54.890625 11.625 47.5625 5.09375 
Q 40.234375 -1.421875 26.90625 -1.421875 
Q 22.3125 -1.421875 17.546875 -0.640625 
Q 12.796875 0.140625 7.71875 1.703125 
L 7.71875 11.625 
Q 12.109375 9.234375 16.796875 8.0625 
Q 21.484375 6.890625 26.703125 6.890625 
Q 35.15625 6.890625 40.078125 11.328125 
Q 45.015625 15.765625 45.015625 23.390625 
Q 45.015625 31 40.078125 35.4375 
Q 35.15625 39.890625 26.703125 39.890625 
Q 22.75 39.890625 18.8125 39.015625 
Q 14.890625 38.140625 10.796875 36.28125 
z
" id="DejaVuSans-53"/>
      </defs>
      <g transform="translate(18.510896 84.28905)scale(0.08 -0.08)">
       <use transform="translate(0 0.09375)" xlink:href="#DejaVuSans-53"/>
      </g>
     </g>
    </g>
    <g id="ytick_7">
     <g id="line2d_8">
      <g>
       <use style="stroke:#000000;stroke-width:0.5;" x="27.130896" xlink:href="#mef7da8c1d6" y="44.328826"/>
      </g>
     </g>
     <g id="text_8">
      <!-- $\mathregular{6}$ -->
      <defs>
       <path d="M 33.015625 40.375 
Q 26.375 40.375 22.484375 35.828125 
Q 18.609375 31.296875 18.609375 23.390625 
Q 18.609375 15.53125 22.484375 10.953125 
Q 26.375 6.390625 33.015625 6.390625 
Q 39.65625 6.390625 43.53125 10.953125 
Q 47.40625 15.53125 47.40625 23.390625 
Q 47.40625 31.296875 43.53125 35.828125 
Q 39.65625 40.375 33.015625 40.375 
z
M 52.59375 71.296875 
L 52.59375 62.3125 
Q 48.875 64.0625 45.09375 64.984375 
Q 41.3125 65.921875 37.59375 65.921875 
Q 27.828125 65.921875 22.671875 59.328125 
Q 17.53125 52.734375 16.796875 39.40625 
Q 19.671875 43.65625 24.015625 45.921875 
Q 28.375 48.1875 33.59375 48.1875 
Q 44.578125 48.1875 50.953125 41.515625 
Q 57.328125 34.859375 57.328125 23.390625 
Q 57.328125 12.15625 50.6875 5.359375 
Q 44.046875 -1.421875 33.015625 -1.421875 
Q 20.359375 -1.421875 13.671875 8.265625 
Q 6.984375 17.96875 6.984375 36.375 
Q 6.984375 53.65625 15.1875 63.9375 
Q 23.390625 74.21875 37.203125 74.21875 
Q 40.921875 74.21875 44.703125 73.484375 
Q 48.484375 72.75 52.59375 71.296875 
z
" id="DejaVuSans-54"/>
      </defs>
      <g transform="translate(18.510896 47.368201)scale(0.08 -0.08)">
       <use transform="translate(0 0.78125)" xlink:href="#DejaVuSans-54"/>
      </g>
     </g>
    </g>
    <g id="text_9">
     <!-- Time in ms (lower is better) -->
     <defs>
      <path d="M -0.296875 72.90625 
L 61.375 72.90625 
L 61.375 64.59375 
L 35.5 64.59375 
L 35.5 0 
L 25.59375 0 
L 25.59375 64.59375 
L -0.296875 64.59375 
z
" id="DejaVuSans-84"/>
      <path d="M 9.421875 54.6875 
L 18.40625 54.6875 
L 18.40625 0 
L 9.421875 0 
z
M 9.421875 75.984375 
L 18.40625 75.984375 
L 18.40625 64.59375 
L 9.421875 64.59375 
z
" id="DejaVuSans-105"/>
      <path d="M 56.203125 29.59375 
L 56.203125 25.203125 
L 14.890625 25.203125 
Q 15.484375 15.921875 20.484375 11.0625 
Q 25.484375 6.203125 34.421875 6.203125 
Q 39.59375 6.203125 44.453125 7.46875 
Q 49.3125 8.734375 54.109375 11.28125 
L 54.109375 2.78125 
Q 49.265625 0.734375 44.1875 -0.34375 
Q 39.109375 -1.421875 33.890625 -1.421875 
Q 20.796875 -1.421875 13.15625 6.1875 
Q 5.515625 13.8125 5.515625 26.8125 
Q 5.515625 40.234375 12.765625 48.109375 
Q 20.015625 56 32.328125 56 
Q 43.359375 56 49.78125 48.890625 
Q 56.203125 41.796875 56.203125 29.59375 
z
M 47.21875 32.234375 
Q 47.125 39.59375 43.09375 43.984375 
Q 39.0625 48.390625 32.421875 48.390625 
Q 24.90625 48.390625 20.390625 44.140625 
Q 15.875 39.890625 15.1875 32.171875 
z
" id="DejaVuSans-101"/>
      <path id="DejaVuSans-32"/>
      <path d="M 54.890625 33.015625 
L 54.890625 0 
L 45.90625 0 
L 45.90625 32.71875 
Q 45.90625 40.484375 42.875 44.328125 
Q 39.84375 48.1875 33.796875 48.1875 
Q 26.515625 48.1875 22.3125 43.546875 
Q 18.109375 38.921875 18.109375 30.90625 
L 18.109375 0 
L 9.078125 0 
L 9.078125 54.6875 
L 18.109375 54.6875 
L 18.109375 46.1875 
Q 21.34375 51.125 25.703125 53.5625 
Q 30.078125 56 35.796875 56 
Q 45.21875 56 50.046875 50.171875 
Q 54.890625 44.34375 54.890625 33.015625 
z
" id="DejaVuSans-110"/>
      <path d="M 44.28125 53.078125 
L 44.28125 44.578125 
Q 40.484375 46.53125 36.375 47.5 
Q 32.28125 48.484375 27.875 48.484375 
Q 21.1875 48.484375 17.84375 46.4375 
Q 14.5 44.390625 14.5 40.28125 
Q 14.5 37.15625 16.890625 35.375 
Q 19.28125 33.59375 26.515625 31.984375 
L 29.59375 31.296875 
Q 39.15625 29.25 43.1875 25.515625 
Q 47.21875 21.78125 47.21875 15.09375 
Q 47.21875 7.46875 41.1875 3.015625 
Q 35.15625 -1.421875 24.609375 -1.421875 
Q 20.21875 -1.421875 15.453125 -0.5625 
Q 10.6875 0.296875 5.421875 2 
L 5.421875 11.28125 
Q 10.40625 8.6875 15.234375 7.390625 
Q 20.0625 6.109375 24.8125 6.109375 
Q 31.15625 6.109375 34.5625 8.28125 
Q 37.984375 10.453125 37.984375 14.40625 
Q 37.984375 18.0625 35.515625 20.015625 
Q 33.0625 21.96875 24.703125 23.78125 
L 21.578125 24.515625 
Q 13.234375 26.265625 9.515625 29.90625 
Q 5.8125 33.546875 5.8125 39.890625 
Q 5.8125 47.609375 11.28125 51.796875 
Q 16.75 56 26.8125 56 
Q 31.78125 56 36.171875 55.265625 
Q 40.578125 54.546875 44.28125 53.078125 
z
" id="DejaVuSans-115"/>
      <path d="M 31 75.875 
Q 24.46875 64.65625 21.28125 53.65625 
Q 18.109375 42.671875 18.109375 31.390625 
Q 18.109375 20.125 21.3125 9.0625 
Q 24.515625 -2 31 -13.1875 
L 23.1875 -13.1875 
Q 15.875 -1.703125 12.234375 9.375 
Q 8.59375 20.453125 8.59375 31.390625 
Q 8.59375 42.28125 12.203125 53.3125 
Q 15.828125 64.359375 23.1875 75.875 
z
" id="DejaVuSans-40"/>
      <path d="M 9.421875 75.984375 
L 18.40625 75.984375 
L 18.40625 0 
L 9.421875 0 
z
" id="DejaVuSans-108"/>
      <path d="M 30.609375 48.390625 
Q 23.390625 48.390625 19.1875 42.75 
Q 14.984375 37.109375 14.984375 27.296875 
Q 14.984375 17.484375 19.15625 11.84375 
Q 23.34375 6.203125 30.609375 6.203125 
Q 37.796875 6.203125 41.984375 11.859375 
Q 46.1875 17.53125 46.1875 27.296875 
Q 46.1875 37.015625 41.984375 42.703125 
Q 37.796875 48.390625 30.609375 48.390625 
z
M 30.609375 56 
Q 42.328125 56 49.015625 48.375 
Q 55.71875 40.765625 55.71875 27.296875 
Q 55.71875 13.875 49.015625 6.21875 
Q 42.328125 -1.421875 30.609375 -1.421875 
Q 18.84375 -1.421875 12.171875 6.21875 
Q 5.515625 13.875 5.515625 27.296875 
Q 5.515625 40.765625 12.171875 48.375 
Q 18.84375 56 30.609375 56 
z
" id="DejaVuSans-111"/>
      <path d="M 4.203125 54.6875 
L 13.1875 54.6875 
L 24.421875 12.015625 
L 35.59375 54.6875 
L 46.1875 54.6875 
L 57.421875 12.015625 
L 68.609375 54.6875 
L 77.59375 54.6875 
L 63.28125 0 
L 52.6875 0 
L 40.921875 44.828125 
L 29.109375 0 
L 18.5 0 
z
" id="DejaVuSans-119"/>
      <path d="M 41.109375 46.296875 
Q 39.59375 47.171875 37.8125 47.578125 
Q 36.03125 48 33.890625 48 
Q 26.265625 48 22.1875 43.046875 
Q 18.109375 38.09375 18.109375 28.8125 
L 18.109375 0 
L 9.078125 0 
L 9.078125 54.6875 
L 18.109375 54.6875 
L 18.109375 46.1875 
Q 20.953125 51.171875 25.484375 53.578125 
Q 30.03125 56 36.53125 56 
Q 37.453125 56 38.578125 55.875 
Q 39.703125 55.765625 41.0625 55.515625 
z
" id="DejaVuSans-114"/>
      <path d="M 48.6875 27.296875 
Q 48.6875 37.203125 44.609375 42.84375 
Q 40.53125 48.484375 33.40625 48.484375 
Q 26.265625 48.484375 22.1875 42.84375 
Q 18.109375 37.203125 18.109375 27.296875 
Q 18.109375 17.390625 22.1875 11.75 
Q 26.265625 6.109375 33.40625 6.109375 
Q 40.53125 6.109375 44.609375 11.75 
Q 48.6875 17.390625 48.6875 27.296875 
z
M 18.109375 46.390625 
Q 20.953125 51.265625 25.265625 53.625 
Q 29.59375 56 35.59375 56 
Q 45.5625 56 51.78125 48.09375 
Q 58.015625 40.1875 58.015625 27.296875 
Q 58.015625 14.40625 51.78125 6.484375 
Q 45.5625 -1.421875 35.59375 -1.421875 
Q 29.59375 -1.421875 25.265625 0.953125 
Q 20.953125 3.328125 18.109375 8.203125 
L 18.109375 0 
L 9.078125 0 
L 9.078125 75.984375 
L 18.109375 75.984375 
z
" id="DejaVuSans-98"/>
      <path d="M 18.3125 70.21875 
L 18.3125 54.6875 
L 36.8125 54.6875 
L 36.8125 47.703125 
L 18.3125 47.703125 
L 18.3125 18.015625 
Q 18.3125 11.328125 20.140625 9.421875 
Q 21.96875 7.515625 27.59375 7.515625 
L 36.8125 7.515625 
L 36.8125 0 
L 27.59375 0 
Q 17.1875 0 13.234375 3.875 
Q 9.28125 7.765625 9.28125 18.015625 
L 9.28125 47.703125 
L 2.6875 47.703125 
L 2.6875 54.6875 
L 9.28125 54.6875 
L 9.28125 70.21875 
z
" id="DejaVuSans-116"/>
      <path d="M 8.015625 75.875 
L 15.828125 75.875 
Q 23.140625 64.359375 26.78125 53.3125 
Q 30.421875 42.28125 30.421875 31.390625 
Q 30.421875 20.453125 26.78125 9.375 
Q 23.140625 -1.703125 15.828125 -13.1875 
L 8.015625 -13.1875 
Q 14.5 -2 17.703125 9.0625 
Q 20.90625 20.125 20.90625 31.390625 
Q 20.90625 42.671875 17.703125 53.65625 
Q 14.5 64.65625 8.015625 75.875 
z
" id="DejaVuSans-41"/>
     </defs>
     <g transform="translate(12.223239 222.486953)rotate(-90)scale(0.11 -0.11)">
      <use xlink:href="#DejaVuSans-84"/>
      <use x="61.037109" xlink:href="#DejaVuSans-105"/>
      <use x="88.820312" xlink:href="#DejaVuSans-109"/>
      <use x="186.232422" xlink:href="#DejaVuSans-101"/>
      <use x="247.755859" xlink:href="#DejaVuSans-32"/>
      <use x="279.542969" xlink:href="#DejaVuSans-105"/>
      <use x="307.326172" xlink:href="#DejaVuSans-110"/>
      <use x="370.705078" xlink:href="#DejaVuSans-32"/>
      <use x="402.492188" xlink:href="#DejaVuSans-109"/>
      <use x="499.904297" xlink:href="#DejaVuSans-115"/>
      <use x="552.003906" xlink:href="#DejaVuSans-32"/>
      <use x="583.791016" xlink:href="#DejaVuSans-40"/>
      <use x="622.804688" xlink:href="#DejaVuSans-108"/>
      <use x="650.587891" xlink:href="#DejaVuSans-111"/>
      <use x="711.769531" xlink:href="#DejaVuSans-119"/>
      <use x="793.556641" xlink:href="#DejaVuSans-101"/>
      <use x="855.080078" xlink:href="#DejaVuSans-114"/>
      <use x="896.193359" xlink:href="#DejaVuSans-32"/>
      <use x="927.980469" xlink:href="#DejaVuSans-105"/>
      <use x="955.763672" xlink:href="#DejaVuSans-115"/>
      <use x="1007.863281" xlink:href="#DejaVuSans-32"/>
      <use x="1039.650391" xlink:href="#DejaVuSans-98"/>
      <use x="1103.126953" xlink:href="#DejaVuSans-101"/>
      <use x="1164.650391" xlink:href="#DejaVuSans-116"/>
      <use x="1203.859375" xlink:href="#DejaVuSans-116"/>
      <use x="1243.068359" xlink:href="#DejaVuSans-101"/>
      <use x="1304.591797" xlink:href="#DejaVuSans-114"/>
      <use x="1345.705078" xlink:href="#DejaVuSans-41"/>
     </g>
    </g>
   </g>
   <g id="patch_4">
    <path clip-path="url(#p3751da733f)" d="M 128.822798 26.806081 
L 128.822798 265.853919 
L 219.473452 265.853919 
L 219.473452 26.806081 
L 128.822798 26.806081 
" style="fill:#e49938;stroke:#000000;stroke-linejoin:miter;"/>
   </g>
   <g id="patch_5">
    <path d="M 27.130896 273.025354 
L 27.130896 19.634646 
" style="fill:none;stroke:#000000;stroke-linecap:square;stroke-linejoin:miter;"/>
   </g>
   <g id="patch_6">
    <path d="M 27.130896 273.025354 
L 321.165354 273.025354 
" style="fill:none;stroke:#000000;stroke-linecap:square;stroke-linejoin:miter;"/>
   </g>
   <g id="patch_7">
    <path clip-path="url(#p3751da733f)" d="M 219.473452 191.12542 
L 219.473452 265.853919 
L 310.124105 265.853919 
L 310.124105 191.12542 
L 219.473452 191.12542 
" style="fill:#e4632e;stroke:#000000;stroke-linejoin:miter;"/>
   </g>
   <g id="text_10">
    <!-- Observables.jl vs Rocket.jl (time) -->
    <defs>
     <path d="M 39.40625 66.21875 
Q 28.65625 66.21875 22.328125 58.203125 
Q 16.015625 50.203125 16.015625 36.375 
Q 16.015625 22.609375 22.328125 14.59375 
Q 28.65625 6.59375 39.40625 6.59375 
Q 50.140625 6.59375 56.421875 14.59375 
Q 62.703125 22.609375 62.703125 36.375 
Q 62.703125 50.203125 56.421875 58.203125 
Q 50.140625 66.21875 39.40625 66.21875 
z
M 39.40625 74.21875 
Q 54.734375 74.21875 63.90625 63.9375 
Q 73.09375 53.65625 73.09375 36.375 
Q 73.09375 19.140625 63.90625 8.859375 
Q 54.734375 -1.421875 39.40625 -1.421875 
Q 24.03125 -1.421875 14.8125 8.828125 
Q 5.609375 19.09375 5.609375 36.375 
Q 5.609375 53.65625 14.8125 63.9375 
Q 24.03125 74.21875 39.40625 74.21875 
z
" id="DejaVuSans-79"/>
     <path d="M 2.984375 54.6875 
L 12.5 54.6875 
L 29.59375 8.796875 
L 46.6875 54.6875 
L 56.203125 54.6875 
L 35.6875 0 
L 23.484375 0 
z
" id="DejaVuSans-118"/>
     <path d="M 10.6875 12.40625 
L 21 12.40625 
L 21 0 
L 10.6875 0 
z
" id="DejaVuSans-46"/>
     <path d="M 9.421875 54.6875 
L 18.40625 54.6875 
L 18.40625 -0.984375 
Q 18.40625 -11.421875 14.421875 -16.109375 
Q 10.453125 -20.796875 1.609375 -20.796875 
L -1.8125 -20.796875 
L -1.8125 -13.1875 
L 0.59375 -13.1875 
Q 5.71875 -13.1875 7.5625 -10.8125 
Q 9.421875 -8.453125 9.421875 -0.984375 
z
M 9.421875 75.984375 
L 18.40625 75.984375 
L 18.40625 64.59375 
L 9.421875 64.59375 
z
" id="DejaVuSans-106"/>
     <path d="M 44.390625 34.1875 
Q 47.5625 33.109375 50.5625 29.59375 
Q 53.5625 26.078125 56.59375 19.921875 
L 66.609375 0 
L 56 0 
L 46.6875 18.703125 
Q 43.0625 26.03125 39.671875 28.421875 
Q 36.28125 30.8125 30.421875 30.8125 
L 19.671875 30.8125 
L 19.671875 0 
L 9.8125 0 
L 9.8125 72.90625 
L 32.078125 72.90625 
Q 44.578125 72.90625 50.734375 67.671875 
Q 56.890625 62.453125 56.890625 51.90625 
Q 56.890625 45.015625 53.6875 40.46875 
Q 50.484375 35.9375 44.390625 34.1875 
z
M 19.671875 64.796875 
L 19.671875 38.921875 
L 32.078125 38.921875 
Q 39.203125 38.921875 42.84375 42.21875 
Q 46.484375 45.515625 46.484375 51.90625 
Q 46.484375 58.296875 42.84375 61.546875 
Q 39.203125 64.796875 32.078125 64.796875 
z
" id="DejaVuSans-82"/>
     <path d="M 48.78125 52.59375 
L 48.78125 44.1875 
Q 44.96875 46.296875 41.140625 47.34375 
Q 37.3125 48.390625 33.40625 48.390625 
Q 24.65625 48.390625 19.8125 42.84375 
Q 14.984375 37.3125 14.984375 27.296875 
Q 14.984375 17.28125 19.8125 11.734375 
Q 24.65625 6.203125 33.40625 6.203125 
Q 37.3125 6.203125 41.140625 7.25 
Q 44.96875 8.296875 48.78125 10.40625 
L 48.78125 2.09375 
Q 45.015625 0.34375 40.984375 -0.53125 
Q 36.96875 -1.421875 32.421875 -1.421875 
Q 20.0625 -1.421875 12.78125 6.34375 
Q 5.515625 14.109375 5.515625 27.296875 
Q 5.515625 40.671875 12.859375 48.328125 
Q 20.21875 56 33.015625 56 
Q 37.15625 56 41.109375 55.140625 
Q 45.0625 54.296875 48.78125 52.59375 
z
" id="DejaVuSans-99"/>
     <path d="M 9.078125 75.984375 
L 18.109375 75.984375 
L 18.109375 31.109375 
L 44.921875 54.6875 
L 56.390625 54.6875 
L 27.390625 29.109375 
L 57.625 0 
L 45.90625 0 
L 18.109375 26.703125 
L 18.109375 0 
L 9.078125 0 
z
" id="DejaVuSans-107"/>
    </defs>
    <g transform="translate(58.525625 13.634646)scale(0.14 -0.14)">
     <use xlink:href="#DejaVuSans-79"/>
     <use x="78.710938" xlink:href="#DejaVuSans-98"/>
     <use x="142.1875" xlink:href="#DejaVuSans-115"/>
     <use x="194.287109" xlink:href="#DejaVuSans-101"/>
     <use x="255.810547" xlink:href="#DejaVuSans-114"/>
     <use x="296.923828" xlink:href="#DejaVuSans-118"/>
     <use x="356.103516" xlink:href="#DejaVuSans-97"/>
     <use x="417.382812" xlink:href="#DejaVuSans-98"/>
     <use x="480.859375" xlink:href="#DejaVuSans-108"/>
     <use x="508.642578" xlink:href="#DejaVuSans-101"/>
     <use x="570.166016" xlink:href="#DejaVuSans-115"/>
     <use x="622.265625" xlink:href="#DejaVuSans-46"/>
     <use x="654.052734" xlink:href="#DejaVuSans-106"/>
     <use x="681.835938" xlink:href="#DejaVuSans-108"/>
     <use x="709.619141" xlink:href="#DejaVuSans-32"/>
     <use x="741.40625" xlink:href="#DejaVuSans-118"/>
     <use x="800.585938" xlink:href="#DejaVuSans-115"/>
     <use x="852.685547" xlink:href="#DejaVuSans-32"/>
     <use x="884.472656" xlink:href="#DejaVuSans-82"/>
     <use x="953.892578" xlink:href="#DejaVuSans-111"/>
     <use x="1015.074219" xlink:href="#DejaVuSans-99"/>
     <use x="1070.054688" xlink:href="#DejaVuSans-107"/>
     <use x="1127.917969" xlink:href="#DejaVuSans-101"/>
     <use x="1189.441406" xlink:href="#DejaVuSans-116"/>
     <use x="1228.650391" xlink:href="#DejaVuSans-46"/>
     <use x="1260.4375" xlink:href="#DejaVuSans-106"/>
     <use x="1288.220703" xlink:href="#DejaVuSans-108"/>
     <use x="1316.003906" xlink:href="#DejaVuSans-32"/>
     <use x="1347.791016" xlink:href="#DejaVuSans-40"/>
     <use x="1386.804688" xlink:href="#DejaVuSans-116"/>
     <use x="1426.013672" xlink:href="#DejaVuSans-105"/>
     <use x="1453.796875" xlink:href="#DejaVuSans-109"/>
     <use x="1551.208984" xlink:href="#DejaVuSans-101"/>
     <use x="1612.732422" xlink:href="#DejaVuSans-41"/>
    </g>
   </g>
   <g id="legend_1">
    <g id="patch_8">
     <path d="M 215.384104 67.662146 
L 317.165354 67.662146 
L 317.165354 23.634646 
L 215.384104 23.634646 
z
" style="fill:#ffffff;stroke:#000000;stroke-linejoin:miter;"/>
    </g>
    <g id="patch_9">
     <path d="M 221.784104 36.113396 
L 237.784104 36.113396 
L 237.784104 30.513396 
L 221.784104 30.513396 
z
" style="fill:#63ac9a;stroke:#000000;stroke-linejoin:miter;"/>
    </g>
    <g id="text_11">
     <!-- Observables.jl -->
     <g transform="translate(244.184104 36.113396)scale(0.08 -0.08)">
      <use xlink:href="#DejaVuSans-79"/>
      <use x="78.710938" xlink:href="#DejaVuSans-98"/>
      <use x="142.1875" xlink:href="#DejaVuSans-115"/>
      <use x="194.287109" xlink:href="#DejaVuSans-101"/>
      <use x="255.810547" xlink:href="#DejaVuSans-114"/>
      <use x="296.923828" xlink:href="#DejaVuSans-118"/>
      <use x="356.103516" xlink:href="#DejaVuSans-97"/>
      <use x="417.382812" xlink:href="#DejaVuSans-98"/>
      <use x="480.859375" xlink:href="#DejaVuSans-108"/>
      <use x="508.642578" xlink:href="#DejaVuSans-101"/>
      <use x="570.166016" xlink:href="#DejaVuSans-115"/>
      <use x="622.265625" xlink:href="#DejaVuSans-46"/>
      <use x="654.052734" xlink:href="#DejaVuSans-106"/>
      <use x="681.835938" xlink:href="#DejaVuSans-108"/>
     </g>
    </g>
    <g id="patch_10">
     <path d="M 221.784104 47.855896 
L 237.784104 47.855896 
L 237.784104 42.255896 
L 221.784104 42.255896 
z
" style="fill:#e49938;stroke:#000000;stroke-linejoin:miter;"/>
    </g>
    <g id="text_12">
     <!-- Rocket.jl (async) -->
     <defs>
      <path d="M 32.171875 -5.078125 
Q 28.375 -14.84375 24.75 -17.8125 
Q 21.140625 -20.796875 15.09375 -20.796875 
L 7.90625 -20.796875 
L 7.90625 -13.28125 
L 13.1875 -13.28125 
Q 16.890625 -13.28125 18.9375 -11.515625 
Q 21 -9.765625 23.484375 -3.21875 
L 25.09375 0.875 
L 2.984375 54.6875 
L 12.5 54.6875 
L 29.59375 11.921875 
L 46.6875 54.6875 
L 56.203125 54.6875 
z
" id="DejaVuSans-121"/>
     </defs>
     <g transform="translate(244.184104 47.855896)scale(0.08 -0.08)">
      <use xlink:href="#DejaVuSans-82"/>
      <use x="69.419922" xlink:href="#DejaVuSans-111"/>
      <use x="130.601562" xlink:href="#DejaVuSans-99"/>
      <use x="185.582031" xlink:href="#DejaVuSans-107"/>
      <use x="243.445312" xlink:href="#DejaVuSans-101"/>
      <use x="304.96875" xlink:href="#DejaVuSans-116"/>
      <use x="344.177734" xlink:href="#DejaVuSans-46"/>
      <use x="375.964844" xlink:href="#DejaVuSans-106"/>
      <use x="403.748047" xlink:href="#DejaVuSans-108"/>
      <use x="431.53125" xlink:href="#DejaVuSans-32"/>
      <use x="463.318359" xlink:href="#DejaVuSans-40"/>
      <use x="502.332031" xlink:href="#DejaVuSans-97"/>
      <use x="563.611328" xlink:href="#DejaVuSans-115"/>
      <use x="615.710938" xlink:href="#DejaVuSans-121"/>
      <use x="674.890625" xlink:href="#DejaVuSans-110"/>
      <use x="738.269531" xlink:href="#DejaVuSans-99"/>
      <use x="793.25" xlink:href="#DejaVuSans-41"/>
     </g>
    </g>
    <g id="patch_11">
     <path d="M 221.784104 59.598396 
L 237.784104 59.598396 
L 237.784104 53.998396 
L 221.784104 53.998396 
z
" style="fill:#e4632e;stroke:#000000;stroke-linejoin:miter;"/>
    </g>
    <g id="text_13">
     <!-- Rocket.jl (sync) -->
     <g transform="translate(244.184104 59.598396)scale(0.08 -0.08)">
      <use xlink:href="#DejaVuSans-82"/>
      <use x="69.419922" xlink:href="#DejaVuSans-111"/>
      <use x="130.601562" xlink:href="#DejaVuSans-99"/>
      <use x="185.582031" xlink:href="#DejaVuSans-107"/>
      <use x="243.445312" xlink:href="#DejaVuSans-101"/>
      <use x="304.96875" xlink:href="#DejaVuSans-116"/>
      <use x="344.177734" xlink:href="#DejaVuSans-46"/>
      <use x="375.964844" xlink:href="#DejaVuSans-106"/>
      <use x="403.748047" xlink:href="#DejaVuSans-108"/>
      <use x="431.53125" xlink:href="#DejaVuSans-32"/>
      <use x="463.318359" xlink:href="#DejaVuSans-40"/>
      <use x="502.332031" xlink:href="#DejaVuSans-115"/>
      <use x="554.431641" xlink:href="#DejaVuSans-121"/>
      <use x="613.611328" xlink:href="#DejaVuSans-110"/>
      <use x="676.990234" xlink:href="#DejaVuSans-99"/>
      <use x="731.970703" xlink:href="#DejaVuSans-41"/>
     </g>
    </g>
   </g>
  </g>
  <g id="axes_2">
   <g id="patch_12">
    <path d="M 351.130896 273.025354 
L 645.165354 273.025354 
L 645.165354 19.634646 
L 351.130896 19.634646 
z
" style="fill:#ffffff;"/>
   </g>
   <g id="patch_13">
    <path clip-path="url(#p4ffbf2b970)" d="M 362.172145 133.88402 
L 362.172145 265.853919 
L 452.822798 265.853919 
L 452.822798 133.88402 
L 362.172145 133.88402 
" style="fill:#63ac9a;stroke:#000000;stroke-linejoin:miter;"/>
   </g>
   <g id="matplotlib.axis_3">
    <g id="xtick_2">
     <g id="line2d_9">
      <g>
       <use style="stroke:#000000;stroke-width:0.5;" x="498.148125" xlink:href="#m9c20563b9a" y="273.025354"/>
      </g>
     </g>
     <g id="text_14">
      <!-- $\mathregular{ map }$ -->
      <g transform="translate(489.228125 282.587854)scale(0.08 -0.08)">
       <use xlink:href="#DejaVuSans-109"/>
       <use transform="translate(97.412109 0)" xlink:href="#DejaVuSans-97"/>
       <use transform="translate(158.691406 0)" xlink:href="#DejaVuSans-112"/>
      </g>
     </g>
    </g>
   </g>
   <g id="matplotlib.axis_4">
    <g id="ytick_8">
     <g id="line2d_10">
      <g>
       <use style="stroke:#000000;stroke-width:0.5;" x="351.130896" xlink:href="#mef7da8c1d6" y="265.853919"/>
      </g>
     </g>
     <g id="text_15">
      <!-- $\mathregular{0}$ -->
      <g transform="translate(342.510896 268.893294)scale(0.08 -0.08)">
       <use transform="translate(0 0.78125)" xlink:href="#DejaVuSans-48"/>
      </g>
     </g>
    </g>
    <g id="ytick_9">
     <g id="line2d_11">
      <g>
       <use style="stroke:#000000;stroke-width:0.5;" x="351.130896" xlink:href="#mef7da8c1d6" y="209.056067"/>
      </g>
     </g>
     <g id="text_16">
      <!-- $\mathregular{1}$ -->
      <g transform="translate(342.510896 212.095442)scale(0.08 -0.08)">
       <use transform="translate(0 0.09375)" xlink:href="#DejaVuSans-49"/>
      </g>
     </g>
    </g>
    <g id="ytick_10">
     <g id="line2d_12">
      <g>
       <use style="stroke:#000000;stroke-width:0.5;" x="351.130896" xlink:href="#mef7da8c1d6" y="152.258215"/>
      </g>
     </g>
     <g id="text_17">
      <!-- $\mathregular{2}$ -->
      <g transform="translate(342.510896 155.29759)scale(0.08 -0.08)">
       <use transform="translate(0 0.78125)" xlink:href="#DejaVuSans-50"/>
      </g>
     </g>
    </g>
    <g id="ytick_11">
     <g id="line2d_13">
      <g>
       <use style="stroke:#000000;stroke-width:0.5;" x="351.130896" xlink:href="#mef7da8c1d6" y="95.460363"/>
      </g>
     </g>
     <g id="text_18">
      <!-- $\mathregular{3}$ -->
      <g transform="translate(342.510896 98.499738)scale(0.08 -0.08)">
       <use transform="translate(0 0.78125)" xlink:href="#DejaVuSans-51"/>
      </g>
     </g>
    </g>
    <g id="ytick_12">
     <g id="line2d_14">
      <g>
       <use style="stroke:#000000;stroke-width:0.5;" x="351.130896" xlink:href="#mef7da8c1d6" y="38.662511"/>
      </g>
     </g>
     <g id="text_19">
      <!-- $\mathregular{4}$ -->
      <g transform="translate(342.510896 41.701886)scale(0.08 -0.08)">
       <use transform="translate(0 0.09375)" xlink:href="#DejaVuSans-52"/>
      </g>
     </g>
    </g>
    <g id="text_20">
     <!-- Memory in MiB (lower is better) -->
     <defs>
      <path d="M 9.8125 72.90625 
L 24.515625 72.90625 
L 43.109375 23.296875 
L 61.8125 72.90625 
L 76.515625 72.90625 
L 76.515625 0 
L 66.890625 0 
L 66.890625 64.015625 
L 48.09375 14.015625 
L 38.1875 14.015625 
L 19.390625 64.015625 
L 19.390625 0 
L 9.8125 0 
z
" id="DejaVuSans-77"/>
      <path d="M 19.671875 34.8125 
L 19.671875 8.109375 
L 35.5 8.109375 
Q 43.453125 8.109375 47.28125 11.40625 
Q 51.125 14.703125 51.125 21.484375 
Q 51.125 28.328125 47.28125 31.5625 
Q 43.453125 34.8125 35.5 34.8125 
z
M 19.671875 64.796875 
L 19.671875 42.828125 
L 34.28125 42.828125 
Q 41.5 42.828125 45.03125 45.53125 
Q 48.578125 48.25 48.578125 53.8125 
Q 48.578125 59.328125 45.03125 62.0625 
Q 41.5 64.796875 34.28125 64.796875 
z
M 9.8125 72.90625 
L 35.015625 72.90625 
Q 46.296875 72.90625 52.390625 68.21875 
Q 58.5 63.53125 58.5 54.890625 
Q 58.5 48.1875 55.375 44.234375 
Q 52.25 40.28125 46.1875 39.3125 
Q 53.46875 37.75 57.5 32.78125 
Q 61.53125 27.828125 61.53125 20.40625 
Q 61.53125 10.640625 54.890625 5.3125 
Q 48.25 0 35.984375 0 
L 9.8125 0 
z
" id="DejaVuSans-66"/>
     </defs>
     <g transform="translate(336.223239 233.053828)rotate(-90)scale(0.11 -0.11)">
      <use xlink:href="#DejaVuSans-77"/>
      <use x="86.279297" xlink:href="#DejaVuSans-101"/>
      <use x="147.802734" xlink:href="#DejaVuSans-109"/>
      <use x="245.214844" xlink:href="#DejaVuSans-111"/>
      <use x="306.396484" xlink:href="#DejaVuSans-114"/>
      <use x="347.509766" xlink:href="#DejaVuSans-121"/>
      <use x="406.689453" xlink:href="#DejaVuSans-32"/>
      <use x="438.476562" xlink:href="#DejaVuSans-105"/>
      <use x="466.259766" xlink:href="#DejaVuSans-110"/>
      <use x="529.638672" xlink:href="#DejaVuSans-32"/>
      <use x="561.425781" xlink:href="#DejaVuSans-77"/>
      <use x="647.705078" xlink:href="#DejaVuSans-105"/>
      <use x="675.488281" xlink:href="#DejaVuSans-66"/>
      <use x="744.091797" xlink:href="#DejaVuSans-32"/>
      <use x="775.878906" xlink:href="#DejaVuSans-40"/>
      <use x="814.892578" xlink:href="#DejaVuSans-108"/>
      <use x="842.675781" xlink:href="#DejaVuSans-111"/>
      <use x="903.857422" xlink:href="#DejaVuSans-119"/>
      <use x="985.644531" xlink:href="#DejaVuSans-101"/>
      <use x="1047.167969" xlink:href="#DejaVuSans-114"/>
      <use x="1088.28125" xlink:href="#DejaVuSans-32"/>
      <use x="1120.068359" xlink:href="#DejaVuSans-105"/>
      <use x="1147.851562" xlink:href="#DejaVuSans-115"/>
      <use x="1199.951172" xlink:href="#DejaVuSans-32"/>
      <use x="1231.738281" xlink:href="#DejaVuSans-98"/>
      <use x="1295.214844" xlink:href="#DejaVuSans-101"/>
      <use x="1356.738281" xlink:href="#DejaVuSans-116"/>
      <use x="1395.947266" xlink:href="#DejaVuSans-116"/>
      <use x="1435.15625" xlink:href="#DejaVuSans-101"/>
      <use x="1496.679688" xlink:href="#DejaVuSans-114"/>
      <use x="1537.792969" xlink:href="#DejaVuSans-41"/>
     </g>
    </g>
   </g>
   <g id="patch_14">
    <path clip-path="url(#p4ffbf2b970)" d="M 452.822798 26.806081 
L 452.822798 265.853919 
L 543.473452 265.853919 
L 543.473452 26.806081 
L 452.822798 26.806081 
" style="fill:#e49938;stroke:#000000;stroke-linejoin:miter;"/>
   </g>
   <g id="patch_15">
    <path d="M 351.130896 273.025354 
L 351.130896 19.634646 
" style="fill:none;stroke:#000000;stroke-linecap:square;stroke-linejoin:miter;"/>
   </g>
   <g id="patch_16">
    <path d="M 351.130896 273.025354 
L 645.165354 273.025354 
" style="fill:none;stroke:#000000;stroke-linecap:square;stroke-linejoin:miter;"/>
   </g>
   <g id="patch_17">
    <path clip-path="url(#p4ffbf2b970)" d="M 543.473452 55.806473 
L 543.473452 265.853919 
L 634.124105 265.853919 
L 634.124105 55.806473 
L 543.473452 55.806473 
" style="fill:#e4632e;stroke:#000000;stroke-linejoin:miter;"/>
   </g>
   <g id="text_21">
    <!-- Observables.jl vs Rocket.jl (memory) -->
    <g transform="translate(369.092188 13.634646)scale(0.14 -0.14)">
     <use xlink:href="#DejaVuSans-79"/>
     <use x="78.710938" xlink:href="#DejaVuSans-98"/>
     <use x="142.1875" xlink:href="#DejaVuSans-115"/>
     <use x="194.287109" xlink:href="#DejaVuSans-101"/>
     <use x="255.810547" xlink:href="#DejaVuSans-114"/>
     <use x="296.923828" xlink:href="#DejaVuSans-118"/>
     <use x="356.103516" xlink:href="#DejaVuSans-97"/>
     <use x="417.382812" xlink:href="#DejaVuSans-98"/>
     <use x="480.859375" xlink:href="#DejaVuSans-108"/>
     <use x="508.642578" xlink:href="#DejaVuSans-101"/>
     <use x="570.166016" xlink:href="#DejaVuSans-115"/>
     <use x="622.265625" xlink:href="#DejaVuSans-46"/>
     <use x="654.052734" xlink:href="#DejaVuSans-106"/>
     <use x="681.835938" xlink:href="#DejaVuSans-108"/>
     <use x="709.619141" xlink:href="#DejaVuSans-32"/>
     <use x="741.40625" xlink:href="#DejaVuSans-118"/>
     <use x="800.585938" xlink:href="#DejaVuSans-115"/>
     <use x="852.685547" xlink:href="#DejaVuSans-32"/>
     <use x="884.472656" xlink:href="#DejaVuSans-82"/>
     <use x="953.892578" xlink:href="#DejaVuSans-111"/>
     <use x="1015.074219" xlink:href="#DejaVuSans-99"/>
     <use x="1070.054688" xlink:href="#DejaVuSans-107"/>
     <use x="1127.917969" xlink:href="#DejaVuSans-101"/>
     <use x="1189.441406" xlink:href="#DejaVuSans-116"/>
     <use x="1228.650391" xlink:href="#DejaVuSans-46"/>
     <use x="1260.4375" xlink:href="#DejaVuSans-106"/>
     <use x="1288.220703" xlink:href="#DejaVuSans-108"/>
     <use x="1316.003906" xlink:href="#DejaVuSans-32"/>
     <use x="1347.791016" xlink:href="#DejaVuSans-40"/>
     <use x="1386.804688" xlink:href="#DejaVuSans-109"/>
     <use x="1484.216797" xlink:href="#DejaVuSans-101"/>
     <use x="1545.740234" xlink:href="#DejaVuSans-109"/>
     <use x="1643.152344" xlink:href="#DejaVuSans-111"/>
     <use x="1704.333984" xlink:href="#DejaVuSans-114"/>
     <use x="1745.447266" xlink:href="#DejaVuSans-121"/>
     <use x="1804.626953" xlink:href="#DejaVuSans-41"/>
    </g>
   </g>
   <g id="legend_2">
    <g id="patch_18">
     <path d="M 539.384104 67.662146 
L 641.165354 67.662146 
L 641.165354 23.634646 
L 539.384104 23.634646 
z
" style="fill:#ffffff;stroke:#000000;stroke-linejoin:miter;"/>
    </g>
    <g id="patch_19">
     <path d="M 545.784104 36.113396 
L 561.784104 36.113396 
L 561.784104 30.513396 
L 545.784104 30.513396 
z
" style="fill:#63ac9a;stroke:#000000;stroke-linejoin:miter;"/>
    </g>
    <g id="text_22">
     <!-- Observables.jl -->
     <g transform="translate(568.184104 36.113396)scale(0.08 -0.08)">
      <use xlink:href="#DejaVuSans-79"/>
      <use x="78.710938" xlink:href="#DejaVuSans-98"/>
      <use x="142.1875" xlink:href="#DejaVuSans-115"/>
      <use x="194.287109" xlink:href="#DejaVuSans-101"/>
      <use x="255.810547" xlink:href="#DejaVuSans-114"/>
      <use x="296.923828" xlink:href="#DejaVuSans-118"/>
      <use x="356.103516" xlink:href="#DejaVuSans-97"/>
      <use x="417.382812" xlink:href="#DejaVuSans-98"/>
      <use x="480.859375" xlink:href="#DejaVuSans-108"/>
      <use x="508.642578" xlink:href="#DejaVuSans-101"/>
      <use x="570.166016" xlink:href="#DejaVuSans-115"/>
      <use x="622.265625" xlink:href="#DejaVuSans-46"/>
      <use x="654.052734" xlink:href="#DejaVuSans-106"/>
      <use x="681.835938" xlink:href="#DejaVuSans-108"/>
     </g>
    </g>
    <g id="patch_20">
     <path d="M 545.784104 47.855896 
L 561.784104 47.855896 
L 561.784104 42.255896 
L 545.784104 42.255896 
z
" style="fill:#e49938;stroke:#000000;stroke-linejoin:miter;"/>
    </g>
    <g id="text_23">
     <!-- Rocket.jl (async) -->
     <g transform="translate(568.184104 47.855896)scale(0.08 -0.08)">
      <use xlink:href="#DejaVuSans-82"/>
      <use x="69.419922" xlink:href="#DejaVuSans-111"/>
      <use x="130.601562" xlink:href="#DejaVuSans-99"/>
      <use x="185.582031" xlink:href="#DejaVuSans-107"/>
      <use x="243.445312" xlink:href="#DejaVuSans-101"/>
      <use x="304.96875" xlink:href="#DejaVuSans-116"/>
      <use x="344.177734" xlink:href="#DejaVuSans-46"/>
      <use x="375.964844" xlink:href="#DejaVuSans-106"/>
      <use x="403.748047" xlink:href="#DejaVuSans-108"/>
      <use x="431.53125" xlink:href="#DejaVuSans-32"/>
      <use x="463.318359" xlink:href="#DejaVuSans-40"/>
      <use x="502.332031" xlink:href="#DejaVuSans-97"/>
      <use x="563.611328" xlink:href="#DejaVuSans-115"/>
      <use x="615.710938" xlink:href="#DejaVuSans-121"/>
      <use x="674.890625" xlink:href="#DejaVuSans-110"/>
      <use x="738.269531" xlink:href="#DejaVuSans-99"/>
      <use x="793.25" xlink:href="#DejaVuSans-41"/>
     </g>
    </g>
    <g id="patch_21">
     <path d="M 545.784104 59.598396 
L 561.784104 59.598396 
L 561.784104 53.998396 
L 545.784104 53.998396 
z
" style="fill:#e4632e;stroke:#000000;stroke-linejoin:miter;"/>
    </g>
    <g id="text_24">
     <!-- Rocket.jl (sync) -->
     <g transform="translate(568.184104 59.598396)scale(0.08 -0.08)">
      <use xlink:href="#DejaVuSans-82"/>
      <use x="69.419922" xlink:href="#DejaVuSans-111"/>
      <use x="130.601562" xlink:href="#DejaVuSans-99"/>
      <use x="185.582031" xlink:href="#DejaVuSans-107"/>
      <use x="243.445312" xlink:href="#DejaVuSans-101"/>
      <use x="304.96875" xlink:href="#DejaVuSans-116"/>
      <use x="344.177734" xlink:href="#DejaVuSans-46"/>
      <use x="375.964844" xlink:href="#DejaVuSans-106"/>
      <use x="403.748047" xlink:href="#DejaVuSans-108"/>
      <use x="431.53125" xlink:href="#DejaVuSans-32"/>
      <use x="463.318359" xlink:href="#DejaVuSans-40"/>
      <use x="502.332031" xlink:href="#DejaVuSans-115"/>
      <use x="554.431641" xlink:href="#DejaVuSans-121"/>
      <use x="613.611328" xlink:href="#DejaVuSans-110"/>
      <use x="676.990234" xlink:href="#DejaVuSans-99"/>
      <use x="731.970703" xlink:href="#DejaVuSans-41"/>
     </g>
    </g>
   </g>
  </g>
 </g>
 <defs>
  <clipPath id="p3751da733f">
   <rect height="253.390709" width="294.034459" x="27.130896" y="19.634646"/>
  </clipPath>
  <clipPath id="p4ffbf2b970">
   <rect height="253.390709" width="294.034459" x="351.130896" y="19.634646"/>
  </clipPath>
 </defs>
</svg>
