<?xml version="1.0" encoding="utf-8" standalone="no"?>
<!DOCTYPE svg PUBLIC "-//W3C//DTD SVG 1.1//EN"
  "http://www.w3.org/Graphics/SVG/1.1/DTD/svg11.dtd">
<!-- Created with matplotlib (https://matplotlib.org/) -->
<svg height="288pt" version="1.1" viewBox="0 0 648 288" width="648pt" xmlns="http://www.w3.org/2000/svg" xmlns:xlink="http://www.w3.org/1999/xlink">
 <defs>
  <style type="text/css">
*{stroke-linecap:butt;stroke-linejoin:round;}
  </style>
 </defs>
 <g id="figure_1">
  <g id="patch_1">
   <path d="M 0 288 
L 648 288 
L 648 0 
L 0 0 
z
" style="fill:#ffffff;"/>
  </g>
  <g id="axes_1">
   <g id="patch_2">
    <path d="M 29.954646 275.905354 
L 323.730354 275.905354 
L 323.730354 18.194646 
L 29.954646 18.194646 
z
" style="fill:#ffffff;"/>
   </g>
   <g id="patch_3">
    <path clip-path="url(#p7d8c2ddb16)" d="M 43.882902 25.488345 
L 43.882902 268.611655 
L 83.278339 268.611655 
L 83.278339 25.488345 
L 43.882902 25.488345 
" style="fill:#fe4365;stroke:#000000;stroke-linejoin:miter;"/>
   </g>
   <g id="patch_4">
    <path clip-path="url(#p7d8c2ddb16)" d="M 191.615789 40.496843 
L 191.615789 268.611655 
L 231.011225 268.611655 
L 231.011225 40.496843 
L 191.615789 40.496843 
" style="fill:#fe4365;stroke:#000000;stroke-linejoin:miter;"/>
   </g>
   <g id="matplotlib.axis_1">
    <g id="xtick_1">
     <g id="line2d_1">
      <defs>
       <path d="M 0 0 
L 0 -3.5 
" id="m6272cb8c25" style="stroke:#000000;stroke-width:0.8;"/>
      </defs>
      <g>
       <use style="stroke:#000000;stroke-width:0.8;" x="102.976057" xlink:href="#m6272cb8c25" y="275.905354"/>
      </g>
     </g>
     <g id="text_1">
      <!-- filter -->
      <defs>
       <path d="M 37.109375 75.984375 
L 37.109375 68.5 
L 28.515625 68.5 
Q 23.6875 68.5 21.796875 66.546875 
Q 19.921875 64.59375 19.921875 59.515625 
L 19.921875 54.6875 
L 34.71875 54.6875 
L 34.71875 47.703125 
L 19.921875 47.703125 
L 19.921875 0 
L 10.890625 0 
L 10.890625 47.703125 
L 2.296875 47.703125 
L 2.296875 54.6875 
L 10.890625 54.6875 
L 10.890625 58.5 
Q 10.890625 67.625 15.140625 71.796875 
Q 19.390625 75.984375 28.609375 75.984375 
z
" id="DejaVuSans-102"/>
       <path d="M 9.421875 54.6875 
L 18.40625 54.6875 
L 18.40625 0 
L 9.421875 0 
z
M 9.421875 75.984375 
L 18.40625 75.984375 
L 18.40625 64.59375 
L 9.421875 64.59375 
z
" id="DejaVuSans-105"/>
       <path d="M 9.421875 75.984375 
L 18.40625 75.984375 
L 18.40625 0 
L 9.421875 0 
z
" id="DejaVuSans-108"/>
       <path d="M 18.3125 70.21875 
L 18.3125 54.6875 
L 36.8125 54.6875 
L 36.8125 47.703125 
L 18.3125 47.703125 
L 18.3125 18.015625 
Q 18.3125 11.328125 20.140625 9.421875 
Q 21.96875 7.515625 27.59375 7.515625 
L 36.8125 7.515625 
L 36.8125 0 
L 27.59375 0 
Q 17.1875 0 13.234375 3.875 
Q 9.28125 7.765625 9.28125 18.015625 
L 9.28125 47.703125 
L 2.6875 47.703125 
L 2.6875 54.6875 
L 9.28125 54.6875 
L 9.28125 70.21875 
z
" id="DejaVuSans-116"/>
       <path d="M 56.203125 29.59375 
L 56.203125 25.203125 
L 14.890625 25.203125 
Q 15.484375 15.921875 20.484375 11.0625 
Q 25.484375 6.203125 34.421875 6.203125 
Q 39.59375 6.203125 44.453125 7.46875 
Q 49.3125 8.734375 54.109375 11.28125 
L 54.109375 2.78125 
Q 49.265625 0.734375 44.1875 -0.34375 
Q 39.109375 -1.421875 33.890625 -1.421875 
Q 20.796875 -1.421875 13.15625 6.1875 
Q 5.515625 13.8125 5.515625 26.8125 
Q 5.515625 40.234375 12.765625 48.109375 
Q 20.015625 56 32.328125 56 
Q 43.359375 56 49.78125 48.890625 
Q 56.203125 41.796875 56.203125 29.59375 
z
M 47.21875 32.234375 
Q 47.125 39.59375 43.09375 43.984375 
Q 39.0625 48.390625 32.421875 48.390625 
Q 24.90625 48.390625 20.390625 44.140625 
Q 15.875 39.890625 15.1875 32.171875 
z
" id="DejaVuSans-101"/>
       <path d="M 41.109375 46.296875 
Q 39.59375 47.171875 37.8125 47.578125 
Q 36.03125 48 33.890625 48 
Q 26.265625 48 22.1875 43.046875 
Q 18.109375 38.09375 18.109375 28.8125 
L 18.109375 0 
L 9.078125 0 
L 9.078125 54.6875 
L 18.109375 54.6875 
L 18.109375 46.1875 
Q 20.953125 51.171875 25.484375 53.578125 
Q 30.03125 56 36.53125 56 
Q 37.453125 56 38.578125 55.875 
Q 39.703125 55.765625 41.0625 55.515625 
z
" id="DejaVuSans-114"/>
      </defs>
      <g transform="translate(93.671682 285.484104)scale(0.08 -0.08)">
       <use xlink:href="#DejaVuSans-102"/>
       <use x="35.205078" xlink:href="#DejaVuSans-105"/>
       <use x="62.988281" xlink:href="#DejaVuSans-108"/>
       <use x="90.771484" xlink:href="#DejaVuSans-116"/>
       <use x="129.980469" xlink:href="#DejaVuSans-101"/>
       <use x="191.503906" xlink:href="#DejaVuSans-114"/>
      </g>
     </g>
    </g>
    <g id="xtick_2">
     <g id="line2d_2">
      <g>
       <use style="stroke:#000000;stroke-width:0.8;" x="250.708943" xlink:href="#m6272cb8c25" y="275.905354"/>
      </g>
     </g>
     <g id="text_2">
      <!-- map -->
      <defs>
       <path d="M 52 44.1875 
Q 55.375 50.25 60.0625 53.125 
Q 64.75 56 71.09375 56 
Q 79.640625 56 84.28125 50.015625 
Q 88.921875 44.046875 88.921875 33.015625 
L 88.921875 0 
L 79.890625 0 
L 79.890625 32.71875 
Q 79.890625 40.578125 77.09375 44.375 
Q 74.3125 48.1875 68.609375 48.1875 
Q 61.625 48.1875 57.5625 43.546875 
Q 53.515625 38.921875 53.515625 30.90625 
L 53.515625 0 
L 44.484375 0 
L 44.484375 32.71875 
Q 44.484375 40.625 41.703125 44.40625 
Q 38.921875 48.1875 33.109375 48.1875 
Q 26.21875 48.1875 22.15625 43.53125 
Q 18.109375 38.875 18.109375 30.90625 
L 18.109375 0 
L 9.078125 0 
L 9.078125 54.6875 
L 18.109375 54.6875 
L 18.109375 46.1875 
Q 21.1875 51.21875 25.484375 53.609375 
Q 29.78125 56 35.6875 56 
Q 41.65625 56 45.828125 52.96875 
Q 50 49.953125 52 44.1875 
z
" id="DejaVuSans-109"/>
       <path d="M 34.28125 27.484375 
Q 23.390625 27.484375 19.1875 25 
Q 14.984375 22.515625 14.984375 16.5 
Q 14.984375 11.71875 18.140625 8.90625 
Q 21.296875 6.109375 26.703125 6.109375 
Q 34.1875 6.109375 38.703125 11.40625 
Q 43.21875 16.703125 43.21875 25.484375 
L 43.21875 27.484375 
z
M 52.203125 31.203125 
L 52.203125 0 
L 43.21875 0 
L 43.21875 8.296875 
Q 40.140625 3.328125 35.546875 0.953125 
Q 30.953125 -1.421875 24.3125 -1.421875 
Q 15.921875 -1.421875 10.953125 3.296875 
Q 6 8.015625 6 15.921875 
Q 6 25.140625 12.171875 29.828125 
Q 18.359375 34.515625 30.609375 34.515625 
L 43.21875 34.515625 
L 43.21875 35.40625 
Q 43.21875 41.609375 39.140625 45 
Q 35.0625 48.390625 27.6875 48.390625 
Q 23 48.390625 18.546875 47.265625 
Q 14.109375 46.140625 10.015625 43.890625 
L 10.015625 52.203125 
Q 14.9375 54.109375 19.578125 55.046875 
Q 24.21875 56 28.609375 56 
Q 40.484375 56 46.34375 49.84375 
Q 52.203125 43.703125 52.203125 31.203125 
z
" id="DejaVuSans-97"/>
       <path d="M 18.109375 8.203125 
L 18.109375 -20.796875 
L 9.078125 -20.796875 
L 9.078125 54.6875 
L 18.109375 54.6875 
L 18.109375 46.390625 
Q 20.953125 51.265625 25.265625 53.625 
Q 29.59375 56 35.59375 56 
Q 45.5625 56 51.78125 48.09375 
Q 58.015625 40.1875 58.015625 27.296875 
Q 58.015625 14.40625 51.78125 6.484375 
Q 45.5625 -1.421875 35.59375 -1.421875 
Q 29.59375 -1.421875 25.265625 0.953125 
Q 20.953125 3.328125 18.109375 8.203125 
z
M 48.6875 27.296875 
Q 48.6875 37.203125 44.609375 42.84375 
Q 40.53125 48.484375 33.40625 48.484375 
Q 26.265625 48.484375 22.1875 42.84375 
Q 18.109375 37.203125 18.109375 27.296875 
Q 18.109375 17.390625 22.1875 11.75 
Q 26.265625 6.109375 33.40625 6.109375 
Q 40.53125 6.109375 44.609375 11.75 
Q 48.6875 17.390625 48.6875 27.296875 
z
" id="DejaVuSans-112"/>
      </defs>
      <g transform="translate(241.822068 285.484104)scale(0.08 -0.08)">
       <use xlink:href="#DejaVuSans-109"/>
       <use x="97.412109" xlink:href="#DejaVuSans-97"/>
       <use x="158.691406" xlink:href="#DejaVuSans-112"/>
      </g>
     </g>
    </g>
   </g>
   <g id="matplotlib.axis_2">
    <g id="ytick_1">
     <g id="line2d_3">
      <defs>
       <path d="M 0 0 
L 3.5 0 
" id="md24c2a9a2c" style="stroke:#000000;stroke-width:0.8;"/>
      </defs>
      <g>
       <use style="stroke:#000000;stroke-width:0.8;" x="29.954646" xlink:href="#md24c2a9a2c" y="268.611655"/>
      </g>
     </g>
     <g id="text_3">
      <!-- 0 -->
      <defs>
       <path d="M 31.78125 66.40625 
Q 24.171875 66.40625 20.328125 58.90625 
Q 16.5 51.421875 16.5 36.375 
Q 16.5 21.390625 20.328125 13.890625 
Q 24.171875 6.390625 31.78125 6.390625 
Q 39.453125 6.390625 43.28125 13.890625 
Q 47.125 21.390625 47.125 36.375 
Q 47.125 51.421875 43.28125 58.90625 
Q 39.453125 66.40625 31.78125 66.40625 
z
M 31.78125 74.21875 
Q 44.046875 74.21875 50.515625 64.515625 
Q 56.984375 54.828125 56.984375 36.375 
Q 56.984375 17.96875 50.515625 8.265625 
Q 44.046875 -1.421875 31.78125 -1.421875 
Q 19.53125 -1.421875 13.0625 8.265625 
Q 6.59375 17.96875 6.59375 36.375 
Q 6.59375 54.828125 13.0625 64.515625 
Q 19.53125 74.21875 31.78125 74.21875 
z
" id="DejaVuSans-48"/>
      </defs>
      <g transform="translate(21.364646 271.65103)scale(0.08 -0.08)">
       <use xlink:href="#DejaVuSans-48"/>
      </g>
     </g>
    </g>
    <g id="ytick_2">
     <g id="line2d_4">
      <g>
       <use style="stroke:#000000;stroke-width:0.8;" x="29.954646" xlink:href="#md24c2a9a2c" y="213.863009"/>
      </g>
     </g>
     <g id="text_4">
      <!-- 5 -->
      <defs>
       <path d="M 10.796875 72.90625 
L 49.515625 72.90625 
L 49.515625 64.59375 
L 19.828125 64.59375 
L 19.828125 46.734375 
Q 21.96875 47.46875 24.109375 47.828125 
Q 26.265625 48.1875 28.421875 48.1875 
Q 40.625 48.1875 47.75 41.5 
Q 54.890625 34.8125 54.890625 23.390625 
Q 54.890625 11.625 47.5625 5.09375 
Q 40.234375 -1.421875 26.90625 -1.421875 
Q 22.3125 -1.421875 17.546875 -0.640625 
Q 12.796875 0.140625 7.71875 1.703125 
L 7.71875 11.625 
Q 12.109375 9.234375 16.796875 8.0625 
Q 21.484375 6.890625 26.703125 6.890625 
Q 35.15625 6.890625 40.078125 11.328125 
Q 45.015625 15.765625 45.015625 23.390625 
Q 45.015625 31 40.078125 35.4375 
Q 35.15625 39.890625 26.703125 39.890625 
Q 22.75 39.890625 18.8125 39.015625 
Q 14.890625 38.140625 10.796875 36.28125 
z
" id="DejaVuSans-53"/>
      </defs>
      <g transform="translate(21.364646 216.902384)scale(0.08 -0.08)">
       <use xlink:href="#DejaVuSans-53"/>
      </g>
     </g>
    </g>
    <g id="ytick_3">
     <g id="line2d_5">
      <g>
       <use style="stroke:#000000;stroke-width:0.8;" x="29.954646" xlink:href="#md24c2a9a2c" y="159.114362"/>
      </g>
     </g>
     <g id="text_5">
      <!-- 10 -->
      <defs>
       <path d="M 12.40625 8.296875 
L 28.515625 8.296875 
L 28.515625 63.921875 
L 10.984375 60.40625 
L 10.984375 69.390625 
L 28.421875 72.90625 
L 38.28125 72.90625 
L 38.28125 8.296875 
L 54.390625 8.296875 
L 54.390625 0 
L 12.40625 0 
z
" id="DejaVuSans-49"/>
      </defs>
      <g transform="translate(16.274646 162.153737)scale(0.08 -0.08)">
       <use xlink:href="#DejaVuSans-49"/>
       <use x="63.623047" xlink:href="#DejaVuSans-48"/>
      </g>
     </g>
    </g>
    <g id="ytick_4">
     <g id="line2d_6">
      <g>
       <use style="stroke:#000000;stroke-width:0.8;" x="29.954646" xlink:href="#md24c2a9a2c" y="104.365716"/>
      </g>
     </g>
     <g id="text_6">
      <!-- 15 -->
      <g transform="translate(16.274646 107.405091)scale(0.08 -0.08)">
       <use xlink:href="#DejaVuSans-49"/>
       <use x="63.623047" xlink:href="#DejaVuSans-53"/>
      </g>
     </g>
    </g>
    <g id="ytick_5">
     <g id="line2d_7">
      <g>
       <use style="stroke:#000000;stroke-width:0.8;" x="29.954646" xlink:href="#md24c2a9a2c" y="49.61707"/>
      </g>
     </g>
     <g id="text_7">
      <!-- 20 -->
      <defs>
       <path d="M 19.1875 8.296875 
L 53.609375 8.296875 
L 53.609375 0 
L 7.328125 0 
L 7.328125 8.296875 
Q 12.9375 14.109375 22.625 23.890625 
Q 32.328125 33.6875 34.8125 36.53125 
Q 39.546875 41.84375 41.421875 45.53125 
Q 43.3125 49.21875 43.3125 52.78125 
Q 43.3125 58.59375 39.234375 62.25 
Q 35.15625 65.921875 28.609375 65.921875 
Q 23.96875 65.921875 18.8125 64.3125 
Q 13.671875 62.703125 7.8125 59.421875 
L 7.8125 69.390625 
Q 13.765625 71.78125 18.9375 73 
Q 24.125 74.21875 28.421875 74.21875 
Q 39.75 74.21875 46.484375 68.546875 
Q 53.21875 62.890625 53.21875 53.421875 
Q 53.21875 48.921875 51.53125 44.890625 
Q 49.859375 40.875 45.40625 35.40625 
Q 44.1875 33.984375 37.640625 27.21875 
Q 31.109375 20.453125 19.1875 8.296875 
z
" id="DejaVuSans-50"/>
      </defs>
      <g transform="translate(16.274646 52.656445)scale(0.08 -0.08)">
       <use xlink:href="#DejaVuSans-50"/>
       <use x="63.623047" xlink:href="#DejaVuSans-48"/>
      </g>
     </g>
    </g>
    <g id="text_8">
     <!-- Time in ms (lower is better) -->
     <defs>
      <path d="M -0.296875 72.90625 
L 61.375 72.90625 
L 61.375 64.59375 
L 35.5 64.59375 
L 35.5 0 
L 25.59375 0 
L 25.59375 64.59375 
L -0.296875 64.59375 
z
" id="DejaVuSans-84"/>
      <path id="DejaVuSans-32"/>
      <path d="M 54.890625 33.015625 
L 54.890625 0 
L 45.90625 0 
L 45.90625 32.71875 
Q 45.90625 40.484375 42.875 44.328125 
Q 39.84375 48.1875 33.796875 48.1875 
Q 26.515625 48.1875 22.3125 43.546875 
Q 18.109375 38.921875 18.109375 30.90625 
L 18.109375 0 
L 9.078125 0 
L 9.078125 54.6875 
L 18.109375 54.6875 
L 18.109375 46.1875 
Q 21.34375 51.125 25.703125 53.5625 
Q 30.078125 56 35.796875 56 
Q 45.21875 56 50.046875 50.171875 
Q 54.890625 44.34375 54.890625 33.015625 
z
" id="DejaVuSans-110"/>
      <path d="M 44.28125 53.078125 
L 44.28125 44.578125 
Q 40.484375 46.53125 36.375 47.5 
Q 32.28125 48.484375 27.875 48.484375 
Q 21.1875 48.484375 17.84375 46.4375 
Q 14.5 44.390625 14.5 40.28125 
Q 14.5 37.15625 16.890625 35.375 
Q 19.28125 33.59375 26.515625 31.984375 
L 29.59375 31.296875 
Q 39.15625 29.25 43.1875 25.515625 
Q 47.21875 21.78125 47.21875 15.09375 
Q 47.21875 7.46875 41.1875 3.015625 
Q 35.15625 -1.421875 24.609375 -1.421875 
Q 20.21875 -1.421875 15.453125 -0.5625 
Q 10.6875 0.296875 5.421875 2 
L 5.421875 11.28125 
Q 10.40625 8.6875 15.234375 7.390625 
Q 20.0625 6.109375 24.8125 6.109375 
Q 31.15625 6.109375 34.5625 8.28125 
Q 37.984375 10.453125 37.984375 14.40625 
Q 37.984375 18.0625 35.515625 20.015625 
Q 33.0625 21.96875 24.703125 23.78125 
L 21.578125 24.515625 
Q 13.234375 26.265625 9.515625 29.90625 
Q 5.8125 33.546875 5.8125 39.890625 
Q 5.8125 47.609375 11.28125 51.796875 
Q 16.75 56 26.8125 56 
Q 31.78125 56 36.171875 55.265625 
Q 40.578125 54.546875 44.28125 53.078125 
z
" id="DejaVuSans-115"/>
      <path d="M 31 75.875 
Q 24.46875 64.65625 21.28125 53.65625 
Q 18.109375 42.671875 18.109375 31.390625 
Q 18.109375 20.125 21.3125 9.0625 
Q 24.515625 -2 31 -13.1875 
L 23.1875 -13.1875 
Q 15.875 -1.703125 12.234375 9.375 
Q 8.59375 20.453125 8.59375 31.390625 
Q 8.59375 42.28125 12.203125 53.3125 
Q 15.828125 64.359375 23.1875 75.875 
z
" id="DejaVuSans-40"/>
      <path d="M 30.609375 48.390625 
Q 23.390625 48.390625 19.1875 42.75 
Q 14.984375 37.109375 14.984375 27.296875 
Q 14.984375 17.484375 19.15625 11.84375 
Q 23.34375 6.203125 30.609375 6.203125 
Q 37.796875 6.203125 41.984375 11.859375 
Q 46.1875 17.53125 46.1875 27.296875 
Q 46.1875 37.015625 41.984375 42.703125 
Q 37.796875 48.390625 30.609375 48.390625 
z
M 30.609375 56 
Q 42.328125 56 49.015625 48.375 
Q 55.71875 40.765625 55.71875 27.296875 
Q 55.71875 13.875 49.015625 6.21875 
Q 42.328125 -1.421875 30.609375 -1.421875 
Q 18.84375 -1.421875 12.171875 6.21875 
Q 5.515625 13.875 5.515625 27.296875 
Q 5.515625 40.765625 12.171875 48.375 
Q 18.84375 56 30.609375 56 
z
" id="DejaVuSans-111"/>
      <path d="M 4.203125 54.6875 
L 13.1875 54.6875 
L 24.421875 12.015625 
L 35.59375 54.6875 
L 46.1875 54.6875 
L 57.421875 12.015625 
L 68.609375 54.6875 
L 77.59375 54.6875 
L 63.28125 0 
L 52.6875 0 
L 40.921875 44.828125 
L 29.109375 0 
L 18.5 0 
z
" id="DejaVuSans-119"/>
      <path d="M 48.6875 27.296875 
Q 48.6875 37.203125 44.609375 42.84375 
Q 40.53125 48.484375 33.40625 48.484375 
Q 26.265625 48.484375 22.1875 42.84375 
Q 18.109375 37.203125 18.109375 27.296875 
Q 18.109375 17.390625 22.1875 11.75 
Q 26.265625 6.109375 33.40625 6.109375 
Q 40.53125 6.109375 44.609375 11.75 
Q 48.6875 17.390625 48.6875 27.296875 
z
M 18.109375 46.390625 
Q 20.953125 51.265625 25.265625 53.625 
Q 29.59375 56 35.59375 56 
Q 45.5625 56 51.78125 48.09375 
Q 58.015625 40.1875 58.015625 27.296875 
Q 58.015625 14.40625 51.78125 6.484375 
Q 45.5625 -1.421875 35.59375 -1.421875 
Q 29.59375 -1.421875 25.265625 0.953125 
Q 20.953125 3.328125 18.109375 8.203125 
L 18.109375 0 
L 9.078125 0 
L 9.078125 75.984375 
L 18.109375 75.984375 
z
" id="DejaVuSans-98"/>
      <path d="M 8.015625 75.875 
L 15.828125 75.875 
Q 23.140625 64.359375 26.78125 53.3125 
Q 30.421875 42.28125 30.421875 31.390625 
Q 30.421875 20.453125 26.78125 9.375 
Q 23.140625 -1.703125 15.828125 -13.1875 
L 8.015625 -13.1875 
Q 14.5 -2 17.703125 9.0625 
Q 20.90625 20.125 20.90625 31.390625 
Q 20.90625 42.671875 17.703125 53.65625 
Q 14.5 64.65625 8.015625 75.875 
z
" id="DejaVuSans-41"/>
     </defs>
     <g transform="translate(9.986989 223.206953)rotate(-90)scale(0.11 -0.11)">
      <use xlink:href="#DejaVuSans-84"/>
      <use x="61.037109" xlink:href="#DejaVuSans-105"/>
      <use x="88.820312" xlink:href="#DejaVuSans-109"/>
      <use x="186.232422" xlink:href="#DejaVuSans-101"/>
      <use x="247.755859" xlink:href="#DejaVuSans-32"/>
      <use x="279.542969" xlink:href="#DejaVuSans-105"/>
      <use x="307.326172" xlink:href="#DejaVuSans-110"/>
      <use x="370.705078" xlink:href="#DejaVuSans-32"/>
      <use x="402.492188" xlink:href="#DejaVuSans-109"/>
      <use x="499.904297" xlink:href="#DejaVuSans-115"/>
      <use x="552.003906" xlink:href="#DejaVuSans-32"/>
      <use x="583.791016" xlink:href="#DejaVuSans-40"/>
      <use x="622.804688" xlink:href="#DejaVuSans-108"/>
      <use x="650.587891" xlink:href="#DejaVuSans-111"/>
      <use x="711.769531" xlink:href="#DejaVuSans-119"/>
      <use x="793.556641" xlink:href="#DejaVuSans-101"/>
      <use x="855.080078" xlink:href="#DejaVuSans-114"/>
      <use x="896.193359" xlink:href="#DejaVuSans-32"/>
      <use x="927.980469" xlink:href="#DejaVuSans-105"/>
      <use x="955.763672" xlink:href="#DejaVuSans-115"/>
      <use x="1007.863281" xlink:href="#DejaVuSans-32"/>
      <use x="1039.650391" xlink:href="#DejaVuSans-98"/>
      <use x="1103.126953" xlink:href="#DejaVuSans-101"/>
      <use x="1164.650391" xlink:href="#DejaVuSans-116"/>
      <use x="1203.859375" xlink:href="#DejaVuSans-116"/>
      <use x="1243.068359" xlink:href="#DejaVuSans-101"/>
      <use x="1304.591797" xlink:href="#DejaVuSans-114"/>
      <use x="1345.705078" xlink:href="#DejaVuSans-41"/>
     </g>
    </g>
   </g>
   <g id="patch_5">
    <path clip-path="url(#p7d8c2ddb16)" d="M 83.278339 222.803868 
L 83.278339 268.611655 
L 122.673775 268.611655 
L 122.673775 222.803868 
L 83.278339 222.803868 
" style="fill:#00a8ff;stroke:#000000;stroke-linejoin:miter;"/>
   </g>
   <g id="patch_6">
    <path clip-path="url(#p7d8c2ddb16)" d="M 231.011225 221.781546 
L 231.011225 268.611655 
L 270.406661 268.611655 
L 270.406661 221.781546 
L 231.011225 221.781546 
" style="fill:#00a8ff;stroke:#000000;stroke-linejoin:miter;"/>
   </g>
   <g id="patch_7">
    <path d="M 29.954646 275.905354 
L 29.954646 18.194646 
" style="fill:none;stroke:#000000;stroke-linecap:square;stroke-linejoin:miter;"/>
   </g>
   <g id="patch_8">
    <path d="M 29.954646 275.905354 
L 323.730354 275.905354 
" style="fill:none;stroke:#000000;stroke-linecap:square;stroke-linejoin:miter;"/>
   </g>
   <g id="patch_9">
    <path clip-path="url(#p7d8c2ddb16)" d="M 122.673775 244.781113 
L 122.673775 268.611655 
L 162.069211 268.611655 
L 162.069211 244.781113 
L 122.673775 244.781113 
" style="fill:#005d7f;stroke:#000000;stroke-linejoin:miter;"/>
   </g>
   <g id="patch_10">
    <path clip-path="url(#p7d8c2ddb16)" d="M 270.406661 246.564397 
L 270.406661 268.611655 
L 309.802098 268.611655 
L 309.802098 246.564397 
L 270.406661 246.564397 
" style="fill:#005d7f;stroke:#000000;stroke-linejoin:miter;"/>
   </g>
   <g id="text_9">
    <!-- Reactive.jl vs Rocket.jl (time) -->
    <defs>
     <path d="M 44.390625 34.1875 
Q 47.5625 33.109375 50.5625 29.59375 
Q 53.5625 26.078125 56.59375 19.921875 
L 66.609375 0 
L 56 0 
L 46.6875 18.703125 
Q 43.0625 26.03125 39.671875 28.421875 
Q 36.28125 30.8125 30.421875 30.8125 
L 19.671875 30.8125 
L 19.671875 0 
L 9.8125 0 
L 9.8125 72.90625 
L 32.078125 72.90625 
Q 44.578125 72.90625 50.734375 67.671875 
Q 56.890625 62.453125 56.890625 51.90625 
Q 56.890625 45.015625 53.6875 40.46875 
Q 50.484375 35.9375 44.390625 34.1875 
z
M 19.671875 64.796875 
L 19.671875 38.921875 
L 32.078125 38.921875 
Q 39.203125 38.921875 42.84375 42.21875 
Q 46.484375 45.515625 46.484375 51.90625 
Q 46.484375 58.296875 42.84375 61.546875 
Q 39.203125 64.796875 32.078125 64.796875 
z
" id="DejaVuSans-82"/>
     <path d="M 48.78125 52.59375 
L 48.78125 44.1875 
Q 44.96875 46.296875 41.140625 47.34375 
Q 37.3125 48.390625 33.40625 48.390625 
Q 24.65625 48.390625 19.8125 42.84375 
Q 14.984375 37.3125 14.984375 27.296875 
Q 14.984375 17.28125 19.8125 11.734375 
Q 24.65625 6.203125 33.40625 6.203125 
Q 37.3125 6.203125 41.140625 7.25 
Q 44.96875 8.296875 48.78125 10.40625 
L 48.78125 2.09375 
Q 45.015625 0.34375 40.984375 -0.53125 
Q 36.96875 -1.421875 32.421875 -1.421875 
Q 20.0625 -1.421875 12.78125 6.34375 
Q 5.515625 14.109375 5.515625 27.296875 
Q 5.515625 40.671875 12.859375 48.328125 
Q 20.21875 56 33.015625 56 
Q 37.15625 56 41.109375 55.140625 
Q 45.0625 54.296875 48.78125 52.59375 
z
" id="DejaVuSans-99"/>
     <path d="M 2.984375 54.6875 
L 12.5 54.6875 
L 29.59375 8.796875 
L 46.6875 54.6875 
L 56.203125 54.6875 
L 35.6875 0 
L 23.484375 0 
z
" id="DejaVuSans-118"/>
     <path d="M 10.6875 12.40625 
L 21 12.40625 
L 21 0 
L 10.6875 0 
z
" id="DejaVuSans-46"/>
     <path d="M 9.421875 54.6875 
L 18.40625 54.6875 
L 18.40625 -0.984375 
Q 18.40625 -11.421875 14.421875 -16.109375 
Q 10.453125 -20.796875 1.609375 -20.796875 
L -1.8125 -20.796875 
L -1.8125 -13.1875 
L 0.59375 -13.1875 
Q 5.71875 -13.1875 7.5625 -10.8125 
Q 9.421875 -8.453125 9.421875 -0.984375 
z
M 9.421875 75.984375 
L 18.40625 75.984375 
L 18.40625 64.59375 
L 9.421875 64.59375 
z
" id="DejaVuSans-106"/>
     <path d="M 9.078125 75.984375 
L 18.109375 75.984375 
L 18.109375 31.109375 
L 44.921875 54.6875 
L 56.390625 54.6875 
L 27.390625 29.109375 
L 57.625 0 
L 45.90625 0 
L 18.109375 26.703125 
L 18.109375 0 
L 9.078125 0 
z
" id="DejaVuSans-107"/>
    </defs>
    <g transform="translate(74.33625 12.194646)scale(0.14 -0.14)">
     <use xlink:href="#DejaVuSans-82"/>
     <use x="69.419922" xlink:href="#DejaVuSans-101"/>
     <use x="130.943359" xlink:href="#DejaVuSans-97"/>
     <use x="192.222656" xlink:href="#DejaVuSans-99"/>
     <use x="247.203125" xlink:href="#DejaVuSans-116"/>
     <use x="286.412109" xlink:href="#DejaVuSans-105"/>
     <use x="314.195312" xlink:href="#DejaVuSans-118"/>
     <use x="373.375" xlink:href="#DejaVuSans-101"/>
     <use x="434.898438" xlink:href="#DejaVuSans-46"/>
     <use x="466.685547" xlink:href="#DejaVuSans-106"/>
     <use x="494.46875" xlink:href="#DejaVuSans-108"/>
     <use x="522.251953" xlink:href="#DejaVuSans-32"/>
     <use x="554.039062" xlink:href="#DejaVuSans-118"/>
     <use x="613.21875" xlink:href="#DejaVuSans-115"/>
     <use x="665.318359" xlink:href="#DejaVuSans-32"/>
     <use x="697.105469" xlink:href="#DejaVuSans-82"/>
     <use x="766.525391" xlink:href="#DejaVuSans-111"/>
     <use x="827.707031" xlink:href="#DejaVuSans-99"/>
     <use x="882.6875" xlink:href="#DejaVuSans-107"/>
     <use x="940.550781" xlink:href="#DejaVuSans-101"/>
     <use x="1002.074219" xlink:href="#DejaVuSans-116"/>
     <use x="1041.283203" xlink:href="#DejaVuSans-46"/>
     <use x="1073.070312" xlink:href="#DejaVuSans-106"/>
     <use x="1100.853516" xlink:href="#DejaVuSans-108"/>
     <use x="1128.636719" xlink:href="#DejaVuSans-32"/>
     <use x="1160.423828" xlink:href="#DejaVuSans-40"/>
     <use x="1199.4375" xlink:href="#DejaVuSans-116"/>
     <use x="1238.646484" xlink:href="#DejaVuSans-105"/>
     <use x="1266.429688" xlink:href="#DejaVuSans-109"/>
     <use x="1363.841797" xlink:href="#DejaVuSans-101"/>
     <use x="1425.365234" xlink:href="#DejaVuSans-41"/>
    </g>
   </g>
   <g id="legend_1">
    <g id="patch_11">
     <path d="M 225.949104 59.822146 
L 318.130354 59.822146 
Q 319.730354 59.822146 319.730354 58.222146 
L 319.730354 23.794646 
Q 319.730354 22.194646 318.130354 22.194646 
L 225.949104 22.194646 
Q 224.349104 22.194646 224.349104 23.794646 
L 224.349104 58.222146 
Q 224.349104 59.822146 225.949104 59.822146 
z
" style="fill:#ffffff;stroke:#000000;stroke-linejoin:miter;"/>
    </g>
    <g id="patch_12">
     <path d="M 227.549104 31.473396 
L 243.549104 31.473396 
L 243.549104 25.873396 
L 227.549104 25.873396 
z
" style="fill:#fe4365;stroke:#000000;stroke-linejoin:miter;"/>
    </g>
    <g id="text_10">
     <!-- Reactive.jl -->
     <g transform="translate(249.949104 31.473396)scale(0.08 -0.08)">
      <use xlink:href="#DejaVuSans-82"/>
      <use x="69.419922" xlink:href="#DejaVuSans-101"/>
      <use x="130.943359" xlink:href="#DejaVuSans-97"/>
      <use x="192.222656" xlink:href="#DejaVuSans-99"/>
      <use x="247.203125" xlink:href="#DejaVuSans-116"/>
      <use x="286.412109" xlink:href="#DejaVuSans-105"/>
      <use x="314.195312" xlink:href="#DejaVuSans-118"/>
      <use x="373.375" xlink:href="#DejaVuSans-101"/>
      <use x="434.898438" xlink:href="#DejaVuSans-46"/>
      <use x="466.685547" xlink:href="#DejaVuSans-106"/>
      <use x="494.46875" xlink:href="#DejaVuSans-108"/>
     </g>
    </g>
    <g id="patch_13">
     <path d="M 227.549104 43.215896 
L 243.549104 43.215896 
L 243.549104 37.615896 
L 227.549104 37.615896 
z
" style="fill:#00a8ff;stroke:#000000;stroke-linejoin:miter;"/>
    </g>
    <g id="text_11">
     <!-- Rocket.jl (async) -->
     <defs>
      <path d="M 32.171875 -5.078125 
Q 28.375 -14.84375 24.75 -17.8125 
Q 21.140625 -20.796875 15.09375 -20.796875 
L 7.90625 -20.796875 
L 7.90625 -13.28125 
L 13.1875 -13.28125 
Q 16.890625 -13.28125 18.9375 -11.515625 
Q 21 -9.765625 23.484375 -3.21875 
L 25.09375 0.875 
L 2.984375 54.6875 
L 12.5 54.6875 
L 29.59375 11.921875 
L 46.6875 54.6875 
L 56.203125 54.6875 
z
" id="DejaVuSans-121"/>
     </defs>
     <g transform="translate(249.949104 43.215896)scale(0.08 -0.08)">
      <use xlink:href="#DejaVuSans-82"/>
      <use x="69.419922" xlink:href="#DejaVuSans-111"/>
      <use x="130.601562" xlink:href="#DejaVuSans-99"/>
      <use x="185.582031" xlink:href="#DejaVuSans-107"/>
      <use x="243.445312" xlink:href="#DejaVuSans-101"/>
      <use x="304.96875" xlink:href="#DejaVuSans-116"/>
      <use x="344.177734" xlink:href="#DejaVuSans-46"/>
      <use x="375.964844" xlink:href="#DejaVuSans-106"/>
      <use x="403.748047" xlink:href="#DejaVuSans-108"/>
      <use x="431.53125" xlink:href="#DejaVuSans-32"/>
      <use x="463.318359" xlink:href="#DejaVuSans-40"/>
      <use x="502.332031" xlink:href="#DejaVuSans-97"/>
      <use x="563.611328" xlink:href="#DejaVuSans-115"/>
      <use x="615.710938" xlink:href="#DejaVuSans-121"/>
      <use x="674.890625" xlink:href="#DejaVuSans-110"/>
      <use x="738.269531" xlink:href="#DejaVuSans-99"/>
      <use x="793.25" xlink:href="#DejaVuSans-41"/>
     </g>
    </g>
    <g id="patch_14">
     <path d="M 227.549104 54.958396 
L 243.549104 54.958396 
L 243.549104 49.358396 
L 227.549104 49.358396 
z
" style="fill:#005d7f;stroke:#000000;stroke-linejoin:miter;"/>
    </g>
    <g id="text_12">
     <!-- Rocket.jl (sync) -->
     <g transform="translate(249.949104 54.958396)scale(0.08 -0.08)">
      <use xlink:href="#DejaVuSans-82"/>
      <use x="69.419922" xlink:href="#DejaVuSans-111"/>
      <use x="130.601562" xlink:href="#DejaVuSans-99"/>
      <use x="185.582031" xlink:href="#DejaVuSans-107"/>
      <use x="243.445312" xlink:href="#DejaVuSans-101"/>
      <use x="304.96875" xlink:href="#DejaVuSans-116"/>
      <use x="344.177734" xlink:href="#DejaVuSans-46"/>
      <use x="375.964844" xlink:href="#DejaVuSans-106"/>
      <use x="403.748047" xlink:href="#DejaVuSans-108"/>
      <use x="431.53125" xlink:href="#DejaVuSans-32"/>
      <use x="463.318359" xlink:href="#DejaVuSans-40"/>
      <use x="502.332031" xlink:href="#DejaVuSans-115"/>
      <use x="554.431641" xlink:href="#DejaVuSans-121"/>
      <use x="613.611328" xlink:href="#DejaVuSans-110"/>
      <use x="676.990234" xlink:href="#DejaVuSans-99"/>
      <use x="731.970703" xlink:href="#DejaVuSans-41"/>
     </g>
    </g>
   </g>
  </g>
  <g id="axes_2">
   <g id="patch_15">
    <path d="M 351.389646 275.905354 
L 645.165354 275.905354 
L 645.165354 18.194646 
L 351.389646 18.194646 
z
" style="fill:#ffffff;"/>
   </g>
   <g id="patch_16">
    <path clip-path="url(#p3009786b21)" d="M 365.317902 47.895553 
L 365.317902 268.611655 
L 404.713339 268.611655 
L 404.713339 47.895553 
L 365.317902 47.895553 
" style="fill:#fe4365;stroke:#000000;stroke-linejoin:miter;"/>
   </g>
   <g id="patch_17">
    <path clip-path="url(#p3009786b21)" d="M 513.050789 25.488345 
L 513.050789 268.611655 
L 552.446225 268.611655 
L 552.446225 25.488345 
L 513.050789 25.488345 
" style="fill:#fe4365;stroke:#000000;stroke-linejoin:miter;"/>
   </g>
   <g id="matplotlib.axis_3">
    <g id="xtick_3">
     <g id="line2d_8">
      <g>
       <use style="stroke:#000000;stroke-width:0.8;" x="424.411057" xlink:href="#m6272cb8c25" y="275.905354"/>
      </g>
     </g>
     <g id="text_13">
      <!-- filter -->
      <g transform="translate(415.106682 285.484104)scale(0.08 -0.08)">
       <use xlink:href="#DejaVuSans-102"/>
       <use x="35.205078" xlink:href="#DejaVuSans-105"/>
       <use x="62.988281" xlink:href="#DejaVuSans-108"/>
       <use x="90.771484" xlink:href="#DejaVuSans-116"/>
       <use x="129.980469" xlink:href="#DejaVuSans-101"/>
       <use x="191.503906" xlink:href="#DejaVuSans-114"/>
      </g>
     </g>
    </g>
    <g id="xtick_4">
     <g id="line2d_9">
      <g>
       <use style="stroke:#000000;stroke-width:0.8;" x="572.143943" xlink:href="#m6272cb8c25" y="275.905354"/>
      </g>
     </g>
     <g id="text_14">
      <!-- map -->
      <g transform="translate(563.257068 285.484104)scale(0.08 -0.08)">
       <use xlink:href="#DejaVuSans-109"/>
       <use x="97.412109" xlink:href="#DejaVuSans-97"/>
       <use x="158.691406" xlink:href="#DejaVuSans-112"/>
      </g>
     </g>
    </g>
   </g>
   <g id="matplotlib.axis_4">
    <g id="ytick_6">
     <g id="line2d_10">
      <g>
       <use style="stroke:#000000;stroke-width:0.8;" x="351.389646" xlink:href="#md24c2a9a2c" y="268.611655"/>
      </g>
     </g>
     <g id="text_15">
      <!-- 0 -->
      <g transform="translate(342.799646 271.65103)scale(0.08 -0.08)">
       <use xlink:href="#DejaVuSans-48"/>
      </g>
     </g>
    </g>
    <g id="ytick_7">
     <g id="line2d_11">
      <g>
       <use style="stroke:#000000;stroke-width:0.8;" x="351.389646" xlink:href="#md24c2a9a2c" y="213.825847"/>
      </g>
     </g>
     <g id="text_16">
      <!-- 2 -->
      <g transform="translate(342.799646 216.865222)scale(0.08 -0.08)">
       <use xlink:href="#DejaVuSans-50"/>
      </g>
     </g>
    </g>
    <g id="ytick_8">
     <g id="line2d_12">
      <g>
       <use style="stroke:#000000;stroke-width:0.8;" x="351.389646" xlink:href="#md24c2a9a2c" y="159.040038"/>
      </g>
     </g>
     <g id="text_17">
      <!-- 4 -->
      <defs>
       <path d="M 37.796875 64.3125 
L 12.890625 25.390625 
L 37.796875 25.390625 
z
M 35.203125 72.90625 
L 47.609375 72.90625 
L 47.609375 25.390625 
L 58.015625 25.390625 
L 58.015625 17.1875 
L 47.609375 17.1875 
L 47.609375 0 
L 37.796875 0 
L 37.796875 17.1875 
L 4.890625 17.1875 
L 4.890625 26.703125 
z
" id="DejaVuSans-52"/>
      </defs>
      <g transform="translate(342.799646 162.079413)scale(0.08 -0.08)">
       <use xlink:href="#DejaVuSans-52"/>
      </g>
     </g>
    </g>
    <g id="ytick_9">
     <g id="line2d_13">
      <g>
       <use style="stroke:#000000;stroke-width:0.8;" x="351.389646" xlink:href="#md24c2a9a2c" y="104.25423"/>
      </g>
     </g>
     <g id="text_18">
      <!-- 6 -->
      <defs>
       <path d="M 33.015625 40.375 
Q 26.375 40.375 22.484375 35.828125 
Q 18.609375 31.296875 18.609375 23.390625 
Q 18.609375 15.53125 22.484375 10.953125 
Q 26.375 6.390625 33.015625 6.390625 
Q 39.65625 6.390625 43.53125 10.953125 
Q 47.40625 15.53125 47.40625 23.390625 
Q 47.40625 31.296875 43.53125 35.828125 
Q 39.65625 40.375 33.015625 40.375 
z
M 52.59375 71.296875 
L 52.59375 62.3125 
Q 48.875 64.0625 45.09375 64.984375 
Q 41.3125 65.921875 37.59375 65.921875 
Q 27.828125 65.921875 22.671875 59.328125 
Q 17.53125 52.734375 16.796875 39.40625 
Q 19.671875 43.65625 24.015625 45.921875 
Q 28.375 48.1875 33.59375 48.1875 
Q 44.578125 48.1875 50.953125 41.515625 
Q 57.328125 34.859375 57.328125 23.390625 
Q 57.328125 12.15625 50.6875 5.359375 
Q 44.046875 -1.421875 33.015625 -1.421875 
Q 20.359375 -1.421875 13.671875 8.265625 
Q 6.984375 17.96875 6.984375 36.375 
Q 6.984375 53.65625 15.1875 63.9375 
Q 23.390625 74.21875 37.203125 74.21875 
Q 40.921875 74.21875 44.703125 73.484375 
Q 48.484375 72.75 52.59375 71.296875 
z
" id="DejaVuSans-54"/>
      </defs>
      <g transform="translate(342.799646 107.293605)scale(0.08 -0.08)">
       <use xlink:href="#DejaVuSans-54"/>
      </g>
     </g>
    </g>
    <g id="ytick_10">
     <g id="line2d_14">
      <g>
       <use style="stroke:#000000;stroke-width:0.8;" x="351.389646" xlink:href="#md24c2a9a2c" y="49.468422"/>
      </g>
     </g>
     <g id="text_19">
      <!-- 8 -->
      <defs>
       <path d="M 31.78125 34.625 
Q 24.75 34.625 20.71875 30.859375 
Q 16.703125 27.09375 16.703125 20.515625 
Q 16.703125 13.921875 20.71875 10.15625 
Q 24.75 6.390625 31.78125 6.390625 
Q 38.8125 6.390625 42.859375 10.171875 
Q 46.921875 13.96875 46.921875 20.515625 
Q 46.921875 27.09375 42.890625 30.859375 
Q 38.875 34.625 31.78125 34.625 
z
M 21.921875 38.8125 
Q 15.578125 40.375 12.03125 44.71875 
Q 8.5 49.078125 8.5 55.328125 
Q 8.5 64.0625 14.71875 69.140625 
Q 20.953125 74.21875 31.78125 74.21875 
Q 42.671875 74.21875 48.875 69.140625 
Q 55.078125 64.0625 55.078125 55.328125 
Q 55.078125 49.078125 51.53125 44.71875 
Q 48 40.375 41.703125 38.8125 
Q 48.828125 37.15625 52.796875 32.3125 
Q 56.78125 27.484375 56.78125 20.515625 
Q 56.78125 9.90625 50.3125 4.234375 
Q 43.84375 -1.421875 31.78125 -1.421875 
Q 19.734375 -1.421875 13.25 4.234375 
Q 6.78125 9.90625 6.78125 20.515625 
Q 6.78125 27.484375 10.78125 32.3125 
Q 14.796875 37.15625 21.921875 38.8125 
z
M 18.3125 54.390625 
Q 18.3125 48.734375 21.84375 45.5625 
Q 25.390625 42.390625 31.78125 42.390625 
Q 38.140625 42.390625 41.71875 45.5625 
Q 45.3125 48.734375 45.3125 54.390625 
Q 45.3125 60.0625 41.71875 63.234375 
Q 38.140625 66.40625 31.78125 66.40625 
Q 25.390625 66.40625 21.84375 63.234375 
Q 18.3125 60.0625 18.3125 54.390625 
z
" id="DejaVuSans-56"/>
      </defs>
      <g transform="translate(342.799646 52.507797)scale(0.08 -0.08)">
       <use xlink:href="#DejaVuSans-56"/>
      </g>
     </g>
    </g>
    <g id="text_20">
     <!-- Memory in MiB (lower is better) -->
     <defs>
      <path d="M 9.8125 72.90625 
L 24.515625 72.90625 
L 43.109375 23.296875 
L 61.8125 72.90625 
L 76.515625 72.90625 
L 76.515625 0 
L 66.890625 0 
L 66.890625 64.015625 
L 48.09375 14.015625 
L 38.1875 14.015625 
L 19.390625 64.015625 
L 19.390625 0 
L 9.8125 0 
z
" id="DejaVuSans-77"/>
      <path d="M 19.671875 34.8125 
L 19.671875 8.109375 
L 35.5 8.109375 
Q 43.453125 8.109375 47.28125 11.40625 
Q 51.125 14.703125 51.125 21.484375 
Q 51.125 28.328125 47.28125 31.5625 
Q 43.453125 34.8125 35.5 34.8125 
z
M 19.671875 64.796875 
L 19.671875 42.828125 
L 34.28125 42.828125 
Q 41.5 42.828125 45.03125 45.53125 
Q 48.578125 48.25 48.578125 53.8125 
Q 48.578125 59.328125 45.03125 62.0625 
Q 41.5 64.796875 34.28125 64.796875 
z
M 9.8125 72.90625 
L 35.015625 72.90625 
Q 46.296875 72.90625 52.390625 68.21875 
Q 58.5 63.53125 58.5 54.890625 
Q 58.5 48.1875 55.375 44.234375 
Q 52.25 40.28125 46.1875 39.3125 
Q 53.46875 37.75 57.5 32.78125 
Q 61.53125 27.828125 61.53125 20.40625 
Q 61.53125 10.640625 54.890625 5.3125 
Q 48.25 0 35.984375 0 
L 9.8125 0 
z
" id="DejaVuSans-66"/>
     </defs>
     <g transform="translate(336.511989 233.773828)rotate(-90)scale(0.11 -0.11)">
      <use xlink:href="#DejaVuSans-77"/>
      <use x="86.279297" xlink:href="#DejaVuSans-101"/>
      <use x="147.802734" xlink:href="#DejaVuSans-109"/>
      <use x="245.214844" xlink:href="#DejaVuSans-111"/>
      <use x="306.396484" xlink:href="#DejaVuSans-114"/>
      <use x="347.509766" xlink:href="#DejaVuSans-121"/>
      <use x="406.689453" xlink:href="#DejaVuSans-32"/>
      <use x="438.476562" xlink:href="#DejaVuSans-105"/>
      <use x="466.259766" xlink:href="#DejaVuSans-110"/>
      <use x="529.638672" xlink:href="#DejaVuSans-32"/>
      <use x="561.425781" xlink:href="#DejaVuSans-77"/>
      <use x="647.705078" xlink:href="#DejaVuSans-105"/>
      <use x="675.488281" xlink:href="#DejaVuSans-66"/>
      <use x="744.091797" xlink:href="#DejaVuSans-32"/>
      <use x="775.878906" xlink:href="#DejaVuSans-40"/>
      <use x="814.892578" xlink:href="#DejaVuSans-108"/>
      <use x="842.675781" xlink:href="#DejaVuSans-111"/>
      <use x="903.857422" xlink:href="#DejaVuSans-119"/>
      <use x="985.644531" xlink:href="#DejaVuSans-101"/>
      <use x="1047.167969" xlink:href="#DejaVuSans-114"/>
      <use x="1088.28125" xlink:href="#DejaVuSans-32"/>
      <use x="1120.068359" xlink:href="#DejaVuSans-105"/>
      <use x="1147.851562" xlink:href="#DejaVuSans-115"/>
      <use x="1199.951172" xlink:href="#DejaVuSans-32"/>
      <use x="1231.738281" xlink:href="#DejaVuSans-98"/>
      <use x="1295.214844" xlink:href="#DejaVuSans-101"/>
      <use x="1356.738281" xlink:href="#DejaVuSans-116"/>
      <use x="1395.947266" xlink:href="#DejaVuSans-116"/>
      <use x="1435.15625" xlink:href="#DejaVuSans-101"/>
      <use x="1496.679688" xlink:href="#DejaVuSans-114"/>
      <use x="1537.792969" xlink:href="#DejaVuSans-41"/>
     </g>
    </g>
   </g>
   <g id="patch_18">
    <path clip-path="url(#p3009786b21)" d="M 404.713339 174.801324 
L 404.713339 268.611655 
L 444.108775 268.611655 
L 444.108775 174.801324 
L 404.713339 174.801324 
" style="fill:#00a8ff;stroke:#000000;stroke-linejoin:miter;"/>
   </g>
   <g id="patch_19">
    <path clip-path="url(#p3009786b21)" d="M 552.446225 167.951426 
L 552.446225 268.611655 
L 591.841661 268.611655 
L 591.841661 167.951426 
L 552.446225 167.951426 
" style="fill:#00a8ff;stroke:#000000;stroke-linejoin:miter;"/>
   </g>
   <g id="patch_20">
    <path d="M 351.389646 275.905354 
L 351.389646 18.194646 
" style="fill:none;stroke:#000000;stroke-linecap:square;stroke-linejoin:miter;"/>
   </g>
   <g id="patch_21">
    <path d="M 351.389646 275.905354 
L 645.165354 275.905354 
" style="fill:none;stroke:#000000;stroke-linecap:square;stroke-linejoin:miter;"/>
   </g>
   <g id="patch_22">
    <path clip-path="url(#p3009786b21)" d="M 444.108775 188.792036 
L 444.108775 268.611655 
L 483.504211 268.611655 
L 483.504211 188.792036 
L 444.108775 188.792036 
" style="fill:#005d7f;stroke:#000000;stroke-linejoin:miter;"/>
   </g>
   <g id="patch_23">
    <path clip-path="url(#p3009786b21)" d="M 591.841661 181.942138 
L 591.841661 268.611655 
L 631.237098 268.611655 
L 631.237098 181.942138 
L 591.841661 181.942138 
" style="fill:#005d7f;stroke:#000000;stroke-linejoin:miter;"/>
   </g>
   <g id="text_21">
    <!-- Reactive.jl vs Rocket.jl (memory) -->
    <g transform="translate(382.337812 12.194646)scale(0.14 -0.14)">
     <use xlink:href="#DejaVuSans-82"/>
     <use x="69.419922" xlink:href="#DejaVuSans-101"/>
     <use x="130.943359" xlink:href="#DejaVuSans-97"/>
     <use x="192.222656" xlink:href="#DejaVuSans-99"/>
     <use x="247.203125" xlink:href="#DejaVuSans-116"/>
     <use x="286.412109" xlink:href="#DejaVuSans-105"/>
     <use x="314.195312" xlink:href="#DejaVuSans-118"/>
     <use x="373.375" xlink:href="#DejaVuSans-101"/>
     <use x="434.898438" xlink:href="#DejaVuSans-46"/>
     <use x="466.685547" xlink:href="#DejaVuSans-106"/>
     <use x="494.46875" xlink:href="#DejaVuSans-108"/>
     <use x="522.251953" xlink:href="#DejaVuSans-32"/>
     <use x="554.039062" xlink:href="#DejaVuSans-118"/>
     <use x="613.21875" xlink:href="#DejaVuSans-115"/>
     <use x="665.318359" xlink:href="#DejaVuSans-32"/>
     <use x="697.105469" xlink:href="#DejaVuSans-82"/>
     <use x="766.525391" xlink:href="#DejaVuSans-111"/>
     <use x="827.707031" xlink:href="#DejaVuSans-99"/>
     <use x="882.6875" xlink:href="#DejaVuSans-107"/>
     <use x="940.550781" xlink:href="#DejaVuSans-101"/>
     <use x="1002.074219" xlink:href="#DejaVuSans-116"/>
     <use x="1041.283203" xlink:href="#DejaVuSans-46"/>
     <use x="1073.070312" xlink:href="#DejaVuSans-106"/>
     <use x="1100.853516" xlink:href="#DejaVuSans-108"/>
     <use x="1128.636719" xlink:href="#DejaVuSans-32"/>
     <use x="1160.423828" xlink:href="#DejaVuSans-40"/>
     <use x="1199.4375" xlink:href="#DejaVuSans-109"/>
     <use x="1296.849609" xlink:href="#DejaVuSans-101"/>
     <use x="1358.373047" xlink:href="#DejaVuSans-109"/>
     <use x="1455.785156" xlink:href="#DejaVuSans-111"/>
     <use x="1516.966797" xlink:href="#DejaVuSans-114"/>
     <use x="1558.080078" xlink:href="#DejaVuSans-121"/>
     <use x="1617.259766" xlink:href="#DejaVuSans-41"/>
    </g>
   </g>
   <g id="legend_2">
    <g id="patch_24">
     <path d="M 547.384104 59.822146 
L 639.565354 59.822146 
Q 641.165354 59.822146 641.165354 58.222146 
L 641.165354 23.794646 
Q 641.165354 22.194646 639.565354 22.194646 
L 547.384104 22.194646 
Q 545.784104 22.194646 545.784104 23.794646 
L 545.784104 58.222146 
Q 545.784104 59.822146 547.384104 59.822146 
z
" style="fill:#ffffff;stroke:#000000;stroke-linejoin:miter;"/>
    </g>
    <g id="patch_25">
     <path d="M 548.984104 31.473396 
L 564.984104 31.473396 
L 564.984104 25.873396 
L 548.984104 25.873396 
z
" style="fill:#fe4365;stroke:#000000;stroke-linejoin:miter;"/>
    </g>
    <g id="text_22">
     <!-- Reactive.jl -->
     <g transform="translate(571.384104 31.473396)scale(0.08 -0.08)">
      <use xlink:href="#DejaVuSans-82"/>
      <use x="69.419922" xlink:href="#DejaVuSans-101"/>
      <use x="130.943359" xlink:href="#DejaVuSans-97"/>
      <use x="192.222656" xlink:href="#DejaVuSans-99"/>
      <use x="247.203125" xlink:href="#DejaVuSans-116"/>
      <use x="286.412109" xlink:href="#DejaVuSans-105"/>
      <use x="314.195312" xlink:href="#DejaVuSans-118"/>
      <use x="373.375" xlink:href="#DejaVuSans-101"/>
      <use x="434.898438" xlink:href="#DejaVuSans-46"/>
      <use x="466.685547" xlink:href="#DejaVuSans-106"/>
      <use x="494.46875" xlink:href="#DejaVuSans-108"/>
     </g>
    </g>
    <g id="patch_26">
     <path d="M 548.984104 43.215896 
L 564.984104 43.215896 
L 564.984104 37.615896 
L 548.984104 37.615896 
z
" style="fill:#00a8ff;stroke:#000000;stroke-linejoin:miter;"/>
    </g>
    <g id="text_23">
     <!-- Rocket.jl (async) -->
     <g transform="translate(571.384104 43.215896)scale(0.08 -0.08)">
      <use xlink:href="#DejaVuSans-82"/>
      <use x="69.419922" xlink:href="#DejaVuSans-111"/>
      <use x="130.601562" xlink:href="#DejaVuSans-99"/>
      <use x="185.582031" xlink:href="#DejaVuSans-107"/>
      <use x="243.445312" xlink:href="#DejaVuSans-101"/>
      <use x="304.96875" xlink:href="#DejaVuSans-116"/>
      <use x="344.177734" xlink:href="#DejaVuSans-46"/>
      <use x="375.964844" xlink:href="#DejaVuSans-106"/>
      <use x="403.748047" xlink:href="#DejaVuSans-108"/>
      <use x="431.53125" xlink:href="#DejaVuSans-32"/>
      <use x="463.318359" xlink:href="#DejaVuSans-40"/>
      <use x="502.332031" xlink:href="#DejaVuSans-97"/>
      <use x="563.611328" xlink:href="#DejaVuSans-115"/>
      <use x="615.710938" xlink:href="#DejaVuSans-121"/>
      <use x="674.890625" xlink:href="#DejaVuSans-110"/>
      <use x="738.269531" xlink:href="#DejaVuSans-99"/>
      <use x="793.25" xlink:href="#DejaVuSans-41"/>
     </g>
    </g>
    <g id="patch_27">
     <path d="M 548.984104 54.958396 
L 564.984104 54.958396 
L 564.984104 49.358396 
L 548.984104 49.358396 
z
" style="fill:#005d7f;stroke:#000000;stroke-linejoin:miter;"/>
    </g>
    <g id="text_24">
     <!-- Rocket.jl (sync) -->
     <g transform="translate(571.384104 54.958396)scale(0.08 -0.08)">
      <use xlink:href="#DejaVuSans-82"/>
      <use x="69.419922" xlink:href="#DejaVuSans-111"/>
      <use x="130.601562" xlink:href="#DejaVuSans-99"/>
      <use x="185.582031" xlink:href="#DejaVuSans-107"/>
      <use x="243.445312" xlink:href="#DejaVuSans-101"/>
      <use x="304.96875" xlink:href="#DejaVuSans-116"/>
      <use x="344.177734" xlink:href="#DejaVuSans-46"/>
      <use x="375.964844" xlink:href="#DejaVuSans-106"/>
      <use x="403.748047" xlink:href="#DejaVuSans-108"/>
      <use x="431.53125" xlink:href="#DejaVuSans-32"/>
      <use x="463.318359" xlink:href="#DejaVuSans-40"/>
      <use x="502.332031" xlink:href="#DejaVuSans-115"/>
      <use x="554.431641" xlink:href="#DejaVuSans-121"/>
      <use x="613.611328" xlink:href="#DejaVuSans-110"/>
      <use x="676.990234" xlink:href="#DejaVuSans-99"/>
      <use x="731.970703" xlink:href="#DejaVuSans-41"/>
     </g>
    </g>
   </g>
  </g>
 </g>
 <defs>
  <clipPath id="p7d8c2ddb16">
   <rect height="257.710709" width="293.775709" x="29.954646" y="18.194646"/>
  </clipPath>
  <clipPath id="p3009786b21">
   <rect height="257.710709" width="293.775709" x="351.389646" y="18.194646"/>
  </clipPath>
 </defs>
</svg>
