<?xml version="1.0" encoding="utf-8" standalone="no"?>
<!DOCTYPE svg PUBLIC "-//W3C//DTD SVG 1.1//EN"
  "http://www.w3.org/Graphics/SVG/1.1/DTD/svg11.dtd">
<svg xmlns:xlink="http://www.w3.org/1999/xlink" width="648pt" height="288pt" viewBox="0 0 648 288" xmlns="http://www.w3.org/2000/svg" version="1.1">
 <metadata>
  <rdf:RDF xmlns:dc="http://purl.org/dc/elements/1.1/" xmlns:cc="http://creativecommons.org/ns#" xmlns:rdf="http://www.w3.org/1999/02/22-rdf-syntax-ns#">
   <cc:Work>
    <dc:type rdf:resource="http://purl.org/dc/dcmitype/StillImage"/>
    <dc:date>2023-09-29T11:13:05.873415</dc:date>
    <dc:format>image/svg+xml</dc:format>
    <dc:creator>
     <cc:Agent>
      <dc:title>Matplotlib v3.6.3, https://matplotlib.org/</dc:title>
     </cc:Agent>
    </dc:creator>
   </cc:Work>
  </rdf:RDF>
 </metadata>
 <defs>
  <style type="text/css">*{stroke-linejoin: round; stroke-linecap: butt}</style>
 </defs>
 <g id="figure_1">
  <g id="patch_1">
   <path d="M 0 288 
L 648 288 
L 648 0 
L 0 0 
z
" style="fill: #ffffff"/>
  </g>
  <g id="axes_1">
   <g id="patch_2">
    <path d="M 27.130896 274.465354 
L 318.631632 274.465354 
L 318.631632 19.634646 
L 27.130896 19.634646 
z
" style="fill: #ffffff"/>
   </g>
   <g id="patch_3">
    <path d="M 42.386429 19.634646 
L 42.386429 274.465354 
L 69.859026 274.465354 
L 69.859026 19.634646 
L 42.386429 19.634646 
" clip-path="url(#p0043f83f03)" style="fill: #3f63cf; stroke: #000000; stroke-linejoin: miter"/>
   </g>
   <g id="patch_4">
    <path d="M 111.067921 104.330014 
L 111.067921 274.465354 
L 138.540518 274.465354 
L 138.540518 104.330014 
L 111.067921 104.330014 
" clip-path="url(#p0043f83f03)" style="fill: #3f63cf; stroke: #000000; stroke-linejoin: miter"/>
   </g>
   <g id="patch_5">
    <path d="M 179.749413 50.721548 
L 179.749413 274.465354 
L 207.22201 274.465354 
L 207.22201 50.721548 
L 179.749413 50.721548 
" clip-path="url(#p0043f83f03)" style="fill: #3f63cf; stroke: #000000; stroke-linejoin: miter"/>
   </g>
   <g id="patch_6">
    <path d="M 248.430906 131.145935 
L 248.430906 274.465354 
L 275.903502 274.465354 
L 275.903502 131.145935 
L 248.430906 131.145935 
" clip-path="url(#p0043f83f03)" style="fill: #3f63cf; stroke: #000000; stroke-linejoin: miter"/>
   </g>
   <g id="PathCollection_1">
    <defs>
     <path id="m3cb59d921d" d="M 0 0 
C 0 0 0 0 0 0 
C 0 0 0 0 0 0 
C 0 0 0 0 0 0 
C 0 0 0 0 0 0 
C 0 0 0 0 0 0 
C 0 0 0 0 0 0 
C 0 0 0 0 0 0 
C 0 0 0 0 0 0 
z
" style="stroke: #000000; stroke-opacity: 0"/>
    </defs>
    <g clip-path="url(#p0043f83f03)">
     <use xlink:href="#m3cb59d921d" x="56.122727" y="19.634646" style="fill: #3f63cf; fill-opacity: 0; stroke: #000000; stroke-opacity: 0"/>
     <use xlink:href="#m3cb59d921d" x="124.804219" y="104.330014" style="fill: #3f63cf; fill-opacity: 0; stroke: #000000; stroke-opacity: 0"/>
     <use xlink:href="#m3cb59d921d" x="193.485712" y="50.721548" style="fill: #3f63cf; fill-opacity: 0; stroke: #000000; stroke-opacity: 0"/>
     <use xlink:href="#m3cb59d921d" x="262.167204" y="131.145935" style="fill: #3f63cf; fill-opacity: 0; stroke: #000000; stroke-opacity: 0"/>
    </g>
   </g>
   <g id="matplotlib.axis_1">
    <g id="xtick_1">
     <g id="line2d_1">
      <defs>
       <path id="m7c05c8afdf" d="M 0 0 
L 0 -2.5 
" style="stroke: #000000; stroke-width: 0.5"/>
      </defs>
      <g>
       <use xlink:href="#m7c05c8afdf" x="69.859026" y="274.465354" style="stroke: #000000; stroke-width: 0.5"/>
      </g>
     </g>
     <g id="text_1">
      <!--  filter (async)  -->
      <g transform="translate(41.982776 284.044104) scale(0.08 -0.08)">
       <defs>
        <path id="DejaVuSans-20" transform="scale(0.015625)"/>
        <path id="DejaVuSans-66" d="M 2375 4863 
L 2375 4384 
L 1825 4384 
Q 1516 4384 1395 4259 
Q 1275 4134 1275 3809 
L 1275 3500 
L 2222 3500 
L 2222 3053 
L 1275 3053 
L 1275 0 
L 697 0 
L 697 3053 
L 147 3053 
L 147 3500 
L 697 3500 
L 697 3744 
Q 697 4328 969 4595 
Q 1241 4863 1831 4863 
L 2375 4863 
z
" transform="scale(0.015625)"/>
        <path id="DejaVuSans-69" d="M 603 3500 
L 1178 3500 
L 1178 0 
L 603 0 
L 603 3500 
z
M 603 4863 
L 1178 4863 
L 1178 4134 
L 603 4134 
L 603 4863 
z
" transform="scale(0.015625)"/>
        <path id="DejaVuSans-6c" d="M 603 4863 
L 1178 4863 
L 1178 0 
L 603 0 
L 603 4863 
z
" transform="scale(0.015625)"/>
        <path id="DejaVuSans-74" d="M 1172 4494 
L 1172 3500 
L 2356 3500 
L 2356 3053 
L 1172 3053 
L 1172 1153 
Q 1172 725 1289 603 
Q 1406 481 1766 481 
L 2356 481 
L 2356 0 
L 1766 0 
Q 1100 0 847 248 
Q 594 497 594 1153 
L 594 3053 
L 172 3053 
L 172 3500 
L 594 3500 
L 594 4494 
L 1172 4494 
z
" transform="scale(0.015625)"/>
        <path id="DejaVuSans-65" d="M 3597 1894 
L 3597 1613 
L 953 1613 
Q 991 1019 1311 708 
Q 1631 397 2203 397 
Q 2534 397 2845 478 
Q 3156 559 3463 722 
L 3463 178 
Q 3153 47 2828 -22 
Q 2503 -91 2169 -91 
Q 1331 -91 842 396 
Q 353 884 353 1716 
Q 353 2575 817 3079 
Q 1281 3584 2069 3584 
Q 2775 3584 3186 3129 
Q 3597 2675 3597 1894 
z
M 3022 2063 
Q 3016 2534 2758 2815 
Q 2500 3097 2075 3097 
Q 1594 3097 1305 2825 
Q 1016 2553 972 2059 
L 3022 2063 
z
" transform="scale(0.015625)"/>
        <path id="DejaVuSans-72" d="M 2631 2963 
Q 2534 3019 2420 3045 
Q 2306 3072 2169 3072 
Q 1681 3072 1420 2755 
Q 1159 2438 1159 1844 
L 1159 0 
L 581 0 
L 581 3500 
L 1159 3500 
L 1159 2956 
Q 1341 3275 1631 3429 
Q 1922 3584 2338 3584 
Q 2397 3584 2469 3576 
Q 2541 3569 2628 3553 
L 2631 2963 
z
" transform="scale(0.015625)"/>
        <path id="DejaVuSans-28" d="M 1984 4856 
Q 1566 4138 1362 3434 
Q 1159 2731 1159 2009 
Q 1159 1288 1364 580 
Q 1569 -128 1984 -844 
L 1484 -844 
Q 1016 -109 783 600 
Q 550 1309 550 2009 
Q 550 2706 781 3412 
Q 1013 4119 1484 4856 
L 1984 4856 
z
" transform="scale(0.015625)"/>
        <path id="DejaVuSans-61" d="M 2194 1759 
Q 1497 1759 1228 1600 
Q 959 1441 959 1056 
Q 959 750 1161 570 
Q 1363 391 1709 391 
Q 2188 391 2477 730 
Q 2766 1069 2766 1631 
L 2766 1759 
L 2194 1759 
z
M 3341 1997 
L 3341 0 
L 2766 0 
L 2766 531 
Q 2569 213 2275 61 
Q 1981 -91 1556 -91 
Q 1019 -91 701 211 
Q 384 513 384 1019 
Q 384 1609 779 1909 
Q 1175 2209 1959 2209 
L 2766 2209 
L 2766 2266 
Q 2766 2663 2505 2880 
Q 2244 3097 1772 3097 
Q 1472 3097 1187 3025 
Q 903 2953 641 2809 
L 641 3341 
Q 956 3463 1253 3523 
Q 1550 3584 1831 3584 
Q 2591 3584 2966 3190 
Q 3341 2797 3341 1997 
z
" transform="scale(0.015625)"/>
        <path id="DejaVuSans-73" d="M 2834 3397 
L 2834 2853 
Q 2591 2978 2328 3040 
Q 2066 3103 1784 3103 
Q 1356 3103 1142 2972 
Q 928 2841 928 2578 
Q 928 2378 1081 2264 
Q 1234 2150 1697 2047 
L 1894 2003 
Q 2506 1872 2764 1633 
Q 3022 1394 3022 966 
Q 3022 478 2636 193 
Q 2250 -91 1575 -91 
Q 1294 -91 989 -36 
Q 684 19 347 128 
L 347 722 
Q 666 556 975 473 
Q 1284 391 1588 391 
Q 1994 391 2212 530 
Q 2431 669 2431 922 
Q 2431 1156 2273 1281 
Q 2116 1406 1581 1522 
L 1381 1569 
Q 847 1681 609 1914 
Q 372 2147 372 2553 
Q 372 3047 722 3315 
Q 1072 3584 1716 3584 
Q 2034 3584 2315 3537 
Q 2597 3491 2834 3397 
z
" transform="scale(0.015625)"/>
        <path id="DejaVuSans-79" d="M 2059 -325 
Q 1816 -950 1584 -1140 
Q 1353 -1331 966 -1331 
L 506 -1331 
L 506 -850 
L 844 -850 
Q 1081 -850 1212 -737 
Q 1344 -625 1503 -206 
L 1606 56 
L 191 3500 
L 800 3500 
L 1894 763 
L 2988 3500 
L 3597 3500 
L 2059 -325 
z
" transform="scale(0.015625)"/>
        <path id="DejaVuSans-6e" d="M 3513 2113 
L 3513 0 
L 2938 0 
L 2938 2094 
Q 2938 2591 2744 2837 
Q 2550 3084 2163 3084 
Q 1697 3084 1428 2787 
Q 1159 2491 1159 1978 
L 1159 0 
L 581 0 
L 581 3500 
L 1159 3500 
L 1159 2956 
Q 1366 3272 1645 3428 
Q 1925 3584 2291 3584 
Q 2894 3584 3203 3211 
Q 3513 2838 3513 2113 
z
" transform="scale(0.015625)"/>
        <path id="DejaVuSans-63" d="M 3122 3366 
L 3122 2828 
Q 2878 2963 2633 3030 
Q 2388 3097 2138 3097 
Q 1578 3097 1268 2742 
Q 959 2388 959 1747 
Q 959 1106 1268 751 
Q 1578 397 2138 397 
Q 2388 397 2633 464 
Q 2878 531 3122 666 
L 3122 134 
Q 2881 22 2623 -34 
Q 2366 -91 2075 -91 
Q 1284 -91 818 406 
Q 353 903 353 1747 
Q 353 2603 823 3093 
Q 1294 3584 2113 3584 
Q 2378 3584 2631 3529 
Q 2884 3475 3122 3366 
z
" transform="scale(0.015625)"/>
        <path id="DejaVuSans-29" d="M 513 4856 
L 1013 4856 
Q 1481 4119 1714 3412 
Q 1947 2706 1947 2009 
Q 1947 1309 1714 600 
Q 1481 -109 1013 -844 
L 513 -844 
Q 928 -128 1133 580 
Q 1338 1288 1338 2009 
Q 1338 2731 1133 3434 
Q 928 4138 513 4856 
z
" transform="scale(0.015625)"/>
       </defs>
       <use xlink:href="#DejaVuSans-20"/>
       <use xlink:href="#DejaVuSans-66" x="31.787109"/>
       <use xlink:href="#DejaVuSans-69" x="66.992188"/>
       <use xlink:href="#DejaVuSans-6c" x="94.775391"/>
       <use xlink:href="#DejaVuSans-74" x="122.558594"/>
       <use xlink:href="#DejaVuSans-65" x="161.767578"/>
       <use xlink:href="#DejaVuSans-72" x="223.291016"/>
       <use xlink:href="#DejaVuSans-20" x="264.404297"/>
       <use xlink:href="#DejaVuSans-28" x="296.191406"/>
       <use xlink:href="#DejaVuSans-61" x="335.205078"/>
       <use xlink:href="#DejaVuSans-73" x="396.484375"/>
       <use xlink:href="#DejaVuSans-79" x="448.583984"/>
       <use xlink:href="#DejaVuSans-6e" x="507.763672"/>
       <use xlink:href="#DejaVuSans-63" x="571.142578"/>
       <use xlink:href="#DejaVuSans-29" x="626.123047"/>
       <use xlink:href="#DejaVuSans-20" x="665.136719"/>
      </g>
     </g>
    </g>
    <g id="xtick_2">
     <g id="line2d_2">
      <g>
       <use xlink:href="#m7c05c8afdf" x="138.540518" y="274.465354" style="stroke: #000000; stroke-width: 0.5"/>
      </g>
     </g>
     <g id="text_2">
      <!--  filter(sync)  -->
      <g transform="translate(114.386768 284.044104) scale(0.08 -0.08)">
       <use xlink:href="#DejaVuSans-20"/>
       <use xlink:href="#DejaVuSans-66" x="31.787109"/>
       <use xlink:href="#DejaVuSans-69" x="66.992188"/>
       <use xlink:href="#DejaVuSans-6c" x="94.775391"/>
       <use xlink:href="#DejaVuSans-74" x="122.558594"/>
       <use xlink:href="#DejaVuSans-65" x="161.767578"/>
       <use xlink:href="#DejaVuSans-72" x="223.291016"/>
       <use xlink:href="#DejaVuSans-28" x="264.404297"/>
       <use xlink:href="#DejaVuSans-73" x="303.417969"/>
       <use xlink:href="#DejaVuSans-79" x="355.517578"/>
       <use xlink:href="#DejaVuSans-6e" x="414.697266"/>
       <use xlink:href="#DejaVuSans-63" x="478.076172"/>
       <use xlink:href="#DejaVuSans-29" x="533.056641"/>
       <use xlink:href="#DejaVuSans-20" x="572.070312"/>
      </g>
     </g>
    </g>
    <g id="xtick_3">
     <g id="line2d_3">
      <g>
       <use xlink:href="#m7c05c8afdf" x="207.22201" y="274.465354" style="stroke: #000000; stroke-width: 0.5"/>
      </g>
     </g>
     <g id="text_3">
      <!--  map (async)  -->
      <g transform="translate(179.76326 284.044104) scale(0.08 -0.08)">
       <defs>
        <path id="DejaVuSans-6d" d="M 3328 2828 
Q 3544 3216 3844 3400 
Q 4144 3584 4550 3584 
Q 5097 3584 5394 3201 
Q 5691 2819 5691 2113 
L 5691 0 
L 5113 0 
L 5113 2094 
Q 5113 2597 4934 2840 
Q 4756 3084 4391 3084 
Q 3944 3084 3684 2787 
Q 3425 2491 3425 1978 
L 3425 0 
L 2847 0 
L 2847 2094 
Q 2847 2600 2669 2842 
Q 2491 3084 2119 3084 
Q 1678 3084 1418 2786 
Q 1159 2488 1159 1978 
L 1159 0 
L 581 0 
L 581 3500 
L 1159 3500 
L 1159 2956 
Q 1356 3278 1631 3431 
Q 1906 3584 2284 3584 
Q 2666 3584 2933 3390 
Q 3200 3197 3328 2828 
z
" transform="scale(0.015625)"/>
        <path id="DejaVuSans-70" d="M 1159 525 
L 1159 -1331 
L 581 -1331 
L 581 3500 
L 1159 3500 
L 1159 2969 
Q 1341 3281 1617 3432 
Q 1894 3584 2278 3584 
Q 2916 3584 3314 3078 
Q 3713 2572 3713 1747 
Q 3713 922 3314 415 
Q 2916 -91 2278 -91 
Q 1894 -91 1617 61 
Q 1341 213 1159 525 
z
M 3116 1747 
Q 3116 2381 2855 2742 
Q 2594 3103 2138 3103 
Q 1681 3103 1420 2742 
Q 1159 2381 1159 1747 
Q 1159 1113 1420 752 
Q 1681 391 2138 391 
Q 2594 391 2855 752 
Q 3116 1113 3116 1747 
z
" transform="scale(0.015625)"/>
       </defs>
       <use xlink:href="#DejaVuSans-20"/>
       <use xlink:href="#DejaVuSans-6d" x="31.787109"/>
       <use xlink:href="#DejaVuSans-61" x="129.199219"/>
       <use xlink:href="#DejaVuSans-70" x="190.478516"/>
       <use xlink:href="#DejaVuSans-20" x="253.955078"/>
       <use xlink:href="#DejaVuSans-28" x="285.742188"/>
       <use xlink:href="#DejaVuSans-61" x="324.755859"/>
       <use xlink:href="#DejaVuSans-73" x="386.035156"/>
       <use xlink:href="#DejaVuSans-79" x="438.134766"/>
       <use xlink:href="#DejaVuSans-6e" x="497.314453"/>
       <use xlink:href="#DejaVuSans-63" x="560.693359"/>
       <use xlink:href="#DejaVuSans-29" x="615.673828"/>
       <use xlink:href="#DejaVuSans-20" x="654.6875"/>
      </g>
     </g>
    </g>
    <g id="xtick_4">
     <g id="line2d_4">
      <g>
       <use xlink:href="#m7c05c8afdf" x="275.903502" y="274.465354" style="stroke: #000000; stroke-width: 0.5"/>
      </g>
     </g>
     <g id="text_4">
      <!--  map (sync)  -->
      <g transform="translate(250.896002 284.044104) scale(0.08 -0.08)">
       <use xlink:href="#DejaVuSans-20"/>
       <use xlink:href="#DejaVuSans-6d" x="31.787109"/>
       <use xlink:href="#DejaVuSans-61" x="129.199219"/>
       <use xlink:href="#DejaVuSans-70" x="190.478516"/>
       <use xlink:href="#DejaVuSans-20" x="253.955078"/>
       <use xlink:href="#DejaVuSans-28" x="285.742188"/>
       <use xlink:href="#DejaVuSans-73" x="324.755859"/>
       <use xlink:href="#DejaVuSans-79" x="376.855469"/>
       <use xlink:href="#DejaVuSans-6e" x="436.035156"/>
       <use xlink:href="#DejaVuSans-63" x="499.414062"/>
       <use xlink:href="#DejaVuSans-29" x="554.394531"/>
       <use xlink:href="#DejaVuSans-20" x="593.408203"/>
      </g>
     </g>
    </g>
   </g>
   <g id="matplotlib.axis_2">
    <g id="ytick_1">
     <g id="line2d_5">
      <defs>
       <path id="mbcb640c253" d="M 0 0 
L 2.5 0 
" style="stroke: #000000; stroke-width: 0.5"/>
      </defs>
      <g>
       <use xlink:href="#mbcb640c253" x="27.130896" y="274.465354" style="stroke: #000000; stroke-width: 0.5"/>
      </g>
     </g>
     <g id="text_5">
      <!-- $0$ -->
      <g transform="translate(18.510896 277.504729) scale(0.08 -0.08)">
       <defs>
        <path id="DejaVuSans-30" d="M 2034 4250 
Q 1547 4250 1301 3770 
Q 1056 3291 1056 2328 
Q 1056 1369 1301 889 
Q 1547 409 2034 409 
Q 2525 409 2770 889 
Q 3016 1369 3016 2328 
Q 3016 3291 2770 3770 
Q 2525 4250 2034 4250 
z
M 2034 4750 
Q 2819 4750 3233 4129 
Q 3647 3509 3647 2328 
Q 3647 1150 3233 529 
Q 2819 -91 2034 -91 
Q 1250 -91 836 529 
Q 422 1150 422 2328 
Q 422 3509 836 4129 
Q 1250 4750 2034 4750 
z
" transform="scale(0.015625)"/>
       </defs>
       <use xlink:href="#DejaVuSans-30" transform="translate(0 0.78125)"/>
      </g>
     </g>
    </g>
    <g id="ytick_2">
     <g id="line2d_6">
      <g>
       <use xlink:href="#mbcb640c253" x="27.130896" y="208.524619" style="stroke: #000000; stroke-width: 0.5"/>
      </g>
     </g>
     <g id="text_6">
      <!-- $2$ -->
      <g transform="translate(18.510896 211.563994) scale(0.08 -0.08)">
       <defs>
        <path id="DejaVuSans-32" d="M 1228 531 
L 3431 531 
L 3431 0 
L 469 0 
L 469 531 
Q 828 903 1448 1529 
Q 2069 2156 2228 2338 
Q 2531 2678 2651 2914 
Q 2772 3150 2772 3378 
Q 2772 3750 2511 3984 
Q 2250 4219 1831 4219 
Q 1534 4219 1204 4116 
Q 875 4013 500 3803 
L 500 4441 
Q 881 4594 1212 4672 
Q 1544 4750 1819 4750 
Q 2544 4750 2975 4387 
Q 3406 4025 3406 3419 
Q 3406 3131 3298 2873 
Q 3191 2616 2906 2266 
Q 2828 2175 2409 1742 
Q 1991 1309 1228 531 
z
" transform="scale(0.015625)"/>
       </defs>
       <use xlink:href="#DejaVuSans-32" transform="translate(0 0.78125)"/>
      </g>
     </g>
    </g>
    <g id="ytick_3">
     <g id="line2d_7">
      <g>
       <use xlink:href="#mbcb640c253" x="27.130896" y="142.583883" style="stroke: #000000; stroke-width: 0.5"/>
      </g>
     </g>
     <g id="text_7">
      <!-- $4$ -->
      <g transform="translate(18.510896 145.623258) scale(0.08 -0.08)">
       <defs>
        <path id="DejaVuSans-34" d="M 2419 4116 
L 825 1625 
L 2419 1625 
L 2419 4116 
z
M 2253 4666 
L 3047 4666 
L 3047 1625 
L 3713 1625 
L 3713 1100 
L 3047 1100 
L 3047 0 
L 2419 0 
L 2419 1100 
L 313 1100 
L 313 1709 
L 2253 4666 
z
" transform="scale(0.015625)"/>
       </defs>
       <use xlink:href="#DejaVuSans-34" transform="translate(0 0.09375)"/>
      </g>
     </g>
    </g>
    <g id="ytick_4">
     <g id="line2d_8">
      <g>
       <use xlink:href="#mbcb640c253" x="27.130896" y="76.643148" style="stroke: #000000; stroke-width: 0.5"/>
      </g>
     </g>
     <g id="text_8">
      <!-- $6$ -->
      <g transform="translate(18.510896 79.682523) scale(0.08 -0.08)">
       <defs>
        <path id="DejaVuSans-36" d="M 2113 2584 
Q 1688 2584 1439 2293 
Q 1191 2003 1191 1497 
Q 1191 994 1439 701 
Q 1688 409 2113 409 
Q 2538 409 2786 701 
Q 3034 994 3034 1497 
Q 3034 2003 2786 2293 
Q 2538 2584 2113 2584 
z
M 3366 4563 
L 3366 3988 
Q 3128 4100 2886 4159 
Q 2644 4219 2406 4219 
Q 1781 4219 1451 3797 
Q 1122 3375 1075 2522 
Q 1259 2794 1537 2939 
Q 1816 3084 2150 3084 
Q 2853 3084 3261 2657 
Q 3669 2231 3669 1497 
Q 3669 778 3244 343 
Q 2819 -91 2113 -91 
Q 1303 -91 875 529 
Q 447 1150 447 2328 
Q 447 3434 972 4092 
Q 1497 4750 2381 4750 
Q 2619 4750 2861 4703 
Q 3103 4656 3366 4563 
z
" transform="scale(0.015625)"/>
       </defs>
       <use xlink:href="#DejaVuSans-36" transform="translate(0 0.78125)"/>
      </g>
     </g>
    </g>
    <g id="text_9">
     <!-- Time in ms (lower is better) -->
     <g transform="translate(12.223239 223.037656) rotate(-90) scale(0.11 -0.11)">
      <defs>
       <path id="DejaVuSans-54" d="M -19 4666 
L 3928 4666 
L 3928 4134 
L 2272 4134 
L 2272 0 
L 1638 0 
L 1638 4134 
L -19 4134 
L -19 4666 
z
" transform="scale(0.015625)"/>
       <path id="DejaVuSans-6f" d="M 1959 3097 
Q 1497 3097 1228 2736 
Q 959 2375 959 1747 
Q 959 1119 1226 758 
Q 1494 397 1959 397 
Q 2419 397 2687 759 
Q 2956 1122 2956 1747 
Q 2956 2369 2687 2733 
Q 2419 3097 1959 3097 
z
M 1959 3584 
Q 2709 3584 3137 3096 
Q 3566 2609 3566 1747 
Q 3566 888 3137 398 
Q 2709 -91 1959 -91 
Q 1206 -91 779 398 
Q 353 888 353 1747 
Q 353 2609 779 3096 
Q 1206 3584 1959 3584 
z
" transform="scale(0.015625)"/>
       <path id="DejaVuSans-77" d="M 269 3500 
L 844 3500 
L 1563 769 
L 2278 3500 
L 2956 3500 
L 3675 769 
L 4391 3500 
L 4966 3500 
L 4050 0 
L 3372 0 
L 2619 2869 
L 1863 0 
L 1184 0 
L 269 3500 
z
" transform="scale(0.015625)"/>
       <path id="DejaVuSans-62" d="M 3116 1747 
Q 3116 2381 2855 2742 
Q 2594 3103 2138 3103 
Q 1681 3103 1420 2742 
Q 1159 2381 1159 1747 
Q 1159 1113 1420 752 
Q 1681 391 2138 391 
Q 2594 391 2855 752 
Q 3116 1113 3116 1747 
z
M 1159 2969 
Q 1341 3281 1617 3432 
Q 1894 3584 2278 3584 
Q 2916 3584 3314 3078 
Q 3713 2572 3713 1747 
Q 3713 922 3314 415 
Q 2916 -91 2278 -91 
Q 1894 -91 1617 61 
Q 1341 213 1159 525 
L 1159 0 
L 581 0 
L 581 4863 
L 1159 4863 
L 1159 2969 
z
" transform="scale(0.015625)"/>
      </defs>
      <use xlink:href="#DejaVuSans-54"/>
      <use xlink:href="#DejaVuSans-69" x="57.958984"/>
      <use xlink:href="#DejaVuSans-6d" x="85.742188"/>
      <use xlink:href="#DejaVuSans-65" x="183.154297"/>
      <use xlink:href="#DejaVuSans-20" x="244.677734"/>
      <use xlink:href="#DejaVuSans-69" x="276.464844"/>
      <use xlink:href="#DejaVuSans-6e" x="304.248047"/>
      <use xlink:href="#DejaVuSans-20" x="367.626953"/>
      <use xlink:href="#DejaVuSans-6d" x="399.414062"/>
      <use xlink:href="#DejaVuSans-73" x="496.826172"/>
      <use xlink:href="#DejaVuSans-20" x="548.925781"/>
      <use xlink:href="#DejaVuSans-28" x="580.712891"/>
      <use xlink:href="#DejaVuSans-6c" x="619.726562"/>
      <use xlink:href="#DejaVuSans-6f" x="647.509766"/>
      <use xlink:href="#DejaVuSans-77" x="708.691406"/>
      <use xlink:href="#DejaVuSans-65" x="790.478516"/>
      <use xlink:href="#DejaVuSans-72" x="852.001953"/>
      <use xlink:href="#DejaVuSans-20" x="893.115234"/>
      <use xlink:href="#DejaVuSans-69" x="924.902344"/>
      <use xlink:href="#DejaVuSans-73" x="952.685547"/>
      <use xlink:href="#DejaVuSans-20" x="1004.785156"/>
      <use xlink:href="#DejaVuSans-62" x="1036.572266"/>
      <use xlink:href="#DejaVuSans-65" x="1100.048828"/>
      <use xlink:href="#DejaVuSans-74" x="1161.572266"/>
      <use xlink:href="#DejaVuSans-74" x="1200.78125"/>
      <use xlink:href="#DejaVuSans-65" x="1239.990234"/>
      <use xlink:href="#DejaVuSans-72" x="1301.513672"/>
      <use xlink:href="#DejaVuSans-29" x="1342.626953"/>
     </g>
    </g>
   </g>
   <g id="patch_7">
    <path d="M 69.859026 177.994058 
L 69.859026 274.465354 
L 97.331623 274.465354 
L 97.331623 177.994058 
L 69.859026 177.994058 
" clip-path="url(#p0043f83f03)" style="fill: #e49938; stroke: #000000; stroke-linejoin: miter"/>
   </g>
   <g id="patch_8">
    <path d="M 138.540518 248.839136 
L 138.540518 274.465354 
L 166.013115 274.465354 
L 166.013115 248.839136 
L 138.540518 248.839136 
" clip-path="url(#p0043f83f03)" style="fill: #e49938; stroke: #000000; stroke-linejoin: miter"/>
   </g>
   <g id="patch_9">
    <path d="M 207.22201 176.061171 
L 207.22201 274.465354 
L 234.694607 274.465354 
L 234.694607 176.061171 
L 207.22201 176.061171 
" clip-path="url(#p0043f83f03)" style="fill: #e49938; stroke: #000000; stroke-linejoin: miter"/>
   </g>
   <g id="patch_10">
    <path d="M 275.903502 243.092665 
L 275.903502 274.465354 
L 303.376099 274.465354 
L 303.376099 243.092665 
L 275.903502 243.092665 
" clip-path="url(#p0043f83f03)" style="fill: #e49938; stroke: #000000; stroke-linejoin: miter"/>
   </g>
   <g id="PathCollection_2">
    <defs>
     <path id="meb4bbb3062" d="M 0 0 
C 0 0 0 0 0 0 
C 0 0 0 0 0 0 
C 0 0 0 0 0 0 
C 0 0 0 0 0 0 
C 0 0 0 0 0 0 
C 0 0 0 0 0 0 
C 0 0 0 0 0 0 
C 0 0 0 0 0 0 
z
" style="stroke: #000000; stroke-opacity: 0"/>
    </defs>
    <g clip-path="url(#p0043f83f03)">
     <use xlink:href="#meb4bbb3062" x="83.595324" y="177.994058" style="fill: #e49938; fill-opacity: 0; stroke: #000000; stroke-opacity: 0"/>
     <use xlink:href="#meb4bbb3062" x="152.276816" y="248.839136" style="fill: #e49938; fill-opacity: 0; stroke: #000000; stroke-opacity: 0"/>
     <use xlink:href="#meb4bbb3062" x="220.958309" y="176.061171" style="fill: #e49938; fill-opacity: 0; stroke: #000000; stroke-opacity: 0"/>
     <use xlink:href="#meb4bbb3062" x="289.639801" y="243.092665" style="fill: #e49938; fill-opacity: 0; stroke: #000000; stroke-opacity: 0"/>
    </g>
   </g>
   <g id="patch_11">
    <path d="M 27.130896 274.465354 
L 27.130896 19.634646 
" style="fill: none; stroke: #000000; stroke-linejoin: miter; stroke-linecap: square"/>
   </g>
   <g id="patch_12">
    <path d="M 27.130896 274.465354 
L 318.631632 274.465354 
" style="fill: none; stroke: #000000; stroke-linejoin: miter; stroke-linecap: square"/>
   </g>
   <g id="text_10">
    <!-- Signals.jl vs Rocket.jl (time) -->
    <g transform="translate(76.230952 13.634646) scale(0.14 -0.14)">
     <defs>
      <path id="DejaVuSans-53" d="M 3425 4513 
L 3425 3897 
Q 3066 4069 2747 4153 
Q 2428 4238 2131 4238 
Q 1616 4238 1336 4038 
Q 1056 3838 1056 3469 
Q 1056 3159 1242 3001 
Q 1428 2844 1947 2747 
L 2328 2669 
Q 3034 2534 3370 2195 
Q 3706 1856 3706 1288 
Q 3706 609 3251 259 
Q 2797 -91 1919 -91 
Q 1588 -91 1214 -16 
Q 841 59 441 206 
L 441 856 
Q 825 641 1194 531 
Q 1563 422 1919 422 
Q 2459 422 2753 634 
Q 3047 847 3047 1241 
Q 3047 1584 2836 1778 
Q 2625 1972 2144 2069 
L 1759 2144 
Q 1053 2284 737 2584 
Q 422 2884 422 3419 
Q 422 4038 858 4394 
Q 1294 4750 2059 4750 
Q 2388 4750 2728 4690 
Q 3069 4631 3425 4513 
z
" transform="scale(0.015625)"/>
      <path id="DejaVuSans-67" d="M 2906 1791 
Q 2906 2416 2648 2759 
Q 2391 3103 1925 3103 
Q 1463 3103 1205 2759 
Q 947 2416 947 1791 
Q 947 1169 1205 825 
Q 1463 481 1925 481 
Q 2391 481 2648 825 
Q 2906 1169 2906 1791 
z
M 3481 434 
Q 3481 -459 3084 -895 
Q 2688 -1331 1869 -1331 
Q 1566 -1331 1297 -1286 
Q 1028 -1241 775 -1147 
L 775 -588 
Q 1028 -725 1275 -790 
Q 1522 -856 1778 -856 
Q 2344 -856 2625 -561 
Q 2906 -266 2906 331 
L 2906 616 
Q 2728 306 2450 153 
Q 2172 0 1784 0 
Q 1141 0 747 490 
Q 353 981 353 1791 
Q 353 2603 747 3093 
Q 1141 3584 1784 3584 
Q 2172 3584 2450 3431 
Q 2728 3278 2906 2969 
L 2906 3500 
L 3481 3500 
L 3481 434 
z
" transform="scale(0.015625)"/>
      <path id="DejaVuSans-2e" d="M 684 794 
L 1344 794 
L 1344 0 
L 684 0 
L 684 794 
z
" transform="scale(0.015625)"/>
      <path id="DejaVuSans-6a" d="M 603 3500 
L 1178 3500 
L 1178 -63 
Q 1178 -731 923 -1031 
Q 669 -1331 103 -1331 
L -116 -1331 
L -116 -844 
L 38 -844 
Q 366 -844 484 -692 
Q 603 -541 603 -63 
L 603 3500 
z
M 603 4863 
L 1178 4863 
L 1178 4134 
L 603 4134 
L 603 4863 
z
" transform="scale(0.015625)"/>
      <path id="DejaVuSans-76" d="M 191 3500 
L 800 3500 
L 1894 563 
L 2988 3500 
L 3597 3500 
L 2284 0 
L 1503 0 
L 191 3500 
z
" transform="scale(0.015625)"/>
      <path id="DejaVuSans-52" d="M 2841 2188 
Q 3044 2119 3236 1894 
Q 3428 1669 3622 1275 
L 4263 0 
L 3584 0 
L 2988 1197 
Q 2756 1666 2539 1819 
Q 2322 1972 1947 1972 
L 1259 1972 
L 1259 0 
L 628 0 
L 628 4666 
L 2053 4666 
Q 2853 4666 3247 4331 
Q 3641 3997 3641 3322 
Q 3641 2881 3436 2590 
Q 3231 2300 2841 2188 
z
M 1259 4147 
L 1259 2491 
L 2053 2491 
Q 2509 2491 2742 2702 
Q 2975 2913 2975 3322 
Q 2975 3731 2742 3939 
Q 2509 4147 2053 4147 
L 1259 4147 
z
" transform="scale(0.015625)"/>
      <path id="DejaVuSans-6b" d="M 581 4863 
L 1159 4863 
L 1159 1991 
L 2875 3500 
L 3609 3500 
L 1753 1863 
L 3688 0 
L 2938 0 
L 1159 1709 
L 1159 0 
L 581 0 
L 581 4863 
z
" transform="scale(0.015625)"/>
     </defs>
     <use xlink:href="#DejaVuSans-53"/>
     <use xlink:href="#DejaVuSans-69" x="63.476562"/>
     <use xlink:href="#DejaVuSans-67" x="91.259766"/>
     <use xlink:href="#DejaVuSans-6e" x="154.736328"/>
     <use xlink:href="#DejaVuSans-61" x="218.115234"/>
     <use xlink:href="#DejaVuSans-6c" x="279.394531"/>
     <use xlink:href="#DejaVuSans-73" x="307.177734"/>
     <use xlink:href="#DejaVuSans-2e" x="359.277344"/>
     <use xlink:href="#DejaVuSans-6a" x="391.064453"/>
     <use xlink:href="#DejaVuSans-6c" x="418.847656"/>
     <use xlink:href="#DejaVuSans-20" x="446.630859"/>
     <use xlink:href="#DejaVuSans-76" x="478.417969"/>
     <use xlink:href="#DejaVuSans-73" x="537.597656"/>
     <use xlink:href="#DejaVuSans-20" x="589.697266"/>
     <use xlink:href="#DejaVuSans-52" x="621.484375"/>
     <use xlink:href="#DejaVuSans-6f" x="686.466797"/>
     <use xlink:href="#DejaVuSans-63" x="747.648438"/>
     <use xlink:href="#DejaVuSans-6b" x="802.628906"/>
     <use xlink:href="#DejaVuSans-65" x="856.914062"/>
     <use xlink:href="#DejaVuSans-74" x="918.4375"/>
     <use xlink:href="#DejaVuSans-2e" x="957.646484"/>
     <use xlink:href="#DejaVuSans-6a" x="989.433594"/>
     <use xlink:href="#DejaVuSans-6c" x="1017.216797"/>
     <use xlink:href="#DejaVuSans-20" x="1045"/>
     <use xlink:href="#DejaVuSans-28" x="1076.787109"/>
     <use xlink:href="#DejaVuSans-74" x="1115.800781"/>
     <use xlink:href="#DejaVuSans-69" x="1155.009766"/>
     <use xlink:href="#DejaVuSans-6d" x="1182.792969"/>
     <use xlink:href="#DejaVuSans-65" x="1280.205078"/>
     <use xlink:href="#DejaVuSans-29" x="1341.728516"/>
    </g>
   </g>
   <g id="legend_1">
    <g id="patch_13">
     <path d="M 243.701632 55.919646 
L 314.631632 55.919646 
L 314.631632 23.634646 
L 243.701632 23.634646 
z
" style="fill: #ffffff; stroke: #000000; stroke-linejoin: miter"/>
    </g>
    <g id="patch_14">
     <path d="M 250.101632 36.113396 
L 266.101632 36.113396 
L 266.101632 30.513396 
L 250.101632 30.513396 
z
" style="fill: #3f63cf; stroke: #000000; stroke-linejoin: miter"/>
    </g>
    <g id="text_11">
     <!-- Signals.jl -->
     <g transform="translate(272.501632 36.113396) scale(0.08 -0.08)">
      <use xlink:href="#DejaVuSans-53"/>
      <use xlink:href="#DejaVuSans-69" x="63.476562"/>
      <use xlink:href="#DejaVuSans-67" x="91.259766"/>
      <use xlink:href="#DejaVuSans-6e" x="154.736328"/>
      <use xlink:href="#DejaVuSans-61" x="218.115234"/>
      <use xlink:href="#DejaVuSans-6c" x="279.394531"/>
      <use xlink:href="#DejaVuSans-73" x="307.177734"/>
      <use xlink:href="#DejaVuSans-2e" x="359.277344"/>
      <use xlink:href="#DejaVuSans-6a" x="391.064453"/>
      <use xlink:href="#DejaVuSans-6c" x="418.847656"/>
     </g>
    </g>
    <g id="patch_15">
     <path d="M 250.101632 47.855896 
L 266.101632 47.855896 
L 266.101632 42.255896 
L 250.101632 42.255896 
z
" style="fill: #e49938; stroke: #000000; stroke-linejoin: miter"/>
    </g>
    <g id="text_12">
     <!--  Rocket.jl -->
     <g transform="translate(272.501632 47.855896) scale(0.08 -0.08)">
      <defs>
       <path id="DejaVuSans-2009" transform="scale(0.015625)"/>
      </defs>
      <use xlink:href="#DejaVuSans-2009"/>
      <use xlink:href="#DejaVuSans-52" x="19.970703"/>
      <use xlink:href="#DejaVuSans-6f" x="84.953125"/>
      <use xlink:href="#DejaVuSans-63" x="146.134766"/>
      <use xlink:href="#DejaVuSans-6b" x="201.115234"/>
      <use xlink:href="#DejaVuSans-65" x="255.400391"/>
      <use xlink:href="#DejaVuSans-74" x="316.923828"/>
      <use xlink:href="#DejaVuSans-2e" x="356.132812"/>
      <use xlink:href="#DejaVuSans-6a" x="387.919922"/>
      <use xlink:href="#DejaVuSans-6c" x="415.703125"/>
     </g>
    </g>
   </g>
  </g>
  <g id="axes_2">
   <g id="patch_16">
    <path d="M 353.664618 274.465354 
L 645.165354 274.465354 
L 645.165354 19.634646 
L 353.664618 19.634646 
z
" style="fill: #ffffff"/>
   </g>
   <g id="patch_17">
    <path d="M 368.920151 36.82252 
L 368.920151 274.465354 
L 396.392748 274.465354 
L 396.392748 36.82252 
L 368.920151 36.82252 
" clip-path="url(#p916913db69)" style="fill: #3f63cf; stroke: #000000; stroke-linejoin: miter"/>
   </g>
   <g id="patch_18">
    <path d="M 437.601643 150.678614 
L 437.601643 274.465354 
L 465.07424 274.465354 
L 465.07424 150.678614 
L 437.601643 150.678614 
" clip-path="url(#p916913db69)" style="fill: #3f63cf; stroke: #000000; stroke-linejoin: miter"/>
   </g>
   <g id="patch_19">
    <path d="M 506.283135 19.634646 
L 506.283135 274.465354 
L 533.755732 274.465354 
L 533.755732 19.634646 
L 506.283135 19.634646 
" clip-path="url(#p916913db69)" style="fill: #3f63cf; stroke: #000000; stroke-linejoin: miter"/>
   </g>
   <g id="patch_20">
    <path d="M 574.964627 133.490739 
L 574.964627 274.465354 
L 602.437224 274.465354 
L 602.437224 133.490739 
L 574.964627 133.490739 
" clip-path="url(#p916913db69)" style="fill: #3f63cf; stroke: #000000; stroke-linejoin: miter"/>
   </g>
   <g id="PathCollection_3">
    <g clip-path="url(#p916913db69)">
     <use xlink:href="#m3cb59d921d" x="382.656449" y="36.82252" style="fill: #3f63cf; fill-opacity: 0; stroke: #000000; stroke-opacity: 0"/>
     <use xlink:href="#m3cb59d921d" x="451.337941" y="150.678614" style="fill: #3f63cf; fill-opacity: 0; stroke: #000000; stroke-opacity: 0"/>
     <use xlink:href="#m3cb59d921d" x="520.019434" y="19.634646" style="fill: #3f63cf; fill-opacity: 0; stroke: #000000; stroke-opacity: 0"/>
     <use xlink:href="#m3cb59d921d" x="588.700926" y="133.490739" style="fill: #3f63cf; fill-opacity: 0; stroke: #000000; stroke-opacity: 0"/>
    </g>
   </g>
   <g id="matplotlib.axis_3">
    <g id="xtick_5">
     <g id="line2d_9">
      <g>
       <use xlink:href="#m7c05c8afdf" x="396.392748" y="274.465354" style="stroke: #000000; stroke-width: 0.5"/>
      </g>
     </g>
     <g id="text_13">
      <!--  filter (async)  -->
      <g transform="translate(368.516498 284.044104) scale(0.08 -0.08)">
       <use xlink:href="#DejaVuSans-20"/>
       <use xlink:href="#DejaVuSans-66" x="31.787109"/>
       <use xlink:href="#DejaVuSans-69" x="66.992188"/>
       <use xlink:href="#DejaVuSans-6c" x="94.775391"/>
       <use xlink:href="#DejaVuSans-74" x="122.558594"/>
       <use xlink:href="#DejaVuSans-65" x="161.767578"/>
       <use xlink:href="#DejaVuSans-72" x="223.291016"/>
       <use xlink:href="#DejaVuSans-20" x="264.404297"/>
       <use xlink:href="#DejaVuSans-28" x="296.191406"/>
       <use xlink:href="#DejaVuSans-61" x="335.205078"/>
       <use xlink:href="#DejaVuSans-73" x="396.484375"/>
       <use xlink:href="#DejaVuSans-79" x="448.583984"/>
       <use xlink:href="#DejaVuSans-6e" x="507.763672"/>
       <use xlink:href="#DejaVuSans-63" x="571.142578"/>
       <use xlink:href="#DejaVuSans-29" x="626.123047"/>
       <use xlink:href="#DejaVuSans-20" x="665.136719"/>
      </g>
     </g>
    </g>
    <g id="xtick_6">
     <g id="line2d_10">
      <g>
       <use xlink:href="#m7c05c8afdf" x="465.07424" y="274.465354" style="stroke: #000000; stroke-width: 0.5"/>
      </g>
     </g>
     <g id="text_14">
      <!--  filter(sync)  -->
      <g transform="translate(440.92049 284.044104) scale(0.08 -0.08)">
       <use xlink:href="#DejaVuSans-20"/>
       <use xlink:href="#DejaVuSans-66" x="31.787109"/>
       <use xlink:href="#DejaVuSans-69" x="66.992188"/>
       <use xlink:href="#DejaVuSans-6c" x="94.775391"/>
       <use xlink:href="#DejaVuSans-74" x="122.558594"/>
       <use xlink:href="#DejaVuSans-65" x="161.767578"/>
       <use xlink:href="#DejaVuSans-72" x="223.291016"/>
       <use xlink:href="#DejaVuSans-28" x="264.404297"/>
       <use xlink:href="#DejaVuSans-73" x="303.417969"/>
       <use xlink:href="#DejaVuSans-79" x="355.517578"/>
       <use xlink:href="#DejaVuSans-6e" x="414.697266"/>
       <use xlink:href="#DejaVuSans-63" x="478.076172"/>
       <use xlink:href="#DejaVuSans-29" x="533.056641"/>
       <use xlink:href="#DejaVuSans-20" x="572.070312"/>
      </g>
     </g>
    </g>
    <g id="xtick_7">
     <g id="line2d_11">
      <g>
       <use xlink:href="#m7c05c8afdf" x="533.755732" y="274.465354" style="stroke: #000000; stroke-width: 0.5"/>
      </g>
     </g>
     <g id="text_15">
      <!--  map (async)  -->
      <g transform="translate(506.296982 284.044104) scale(0.08 -0.08)">
       <use xlink:href="#DejaVuSans-20"/>
       <use xlink:href="#DejaVuSans-6d" x="31.787109"/>
       <use xlink:href="#DejaVuSans-61" x="129.199219"/>
       <use xlink:href="#DejaVuSans-70" x="190.478516"/>
       <use xlink:href="#DejaVuSans-20" x="253.955078"/>
       <use xlink:href="#DejaVuSans-28" x="285.742188"/>
       <use xlink:href="#DejaVuSans-61" x="324.755859"/>
       <use xlink:href="#DejaVuSans-73" x="386.035156"/>
       <use xlink:href="#DejaVuSans-79" x="438.134766"/>
       <use xlink:href="#DejaVuSans-6e" x="497.314453"/>
       <use xlink:href="#DejaVuSans-63" x="560.693359"/>
       <use xlink:href="#DejaVuSans-29" x="615.673828"/>
       <use xlink:href="#DejaVuSans-20" x="654.6875"/>
      </g>
     </g>
    </g>
    <g id="xtick_8">
     <g id="line2d_12">
      <g>
       <use xlink:href="#m7c05c8afdf" x="602.437224" y="274.465354" style="stroke: #000000; stroke-width: 0.5"/>
      </g>
     </g>
     <g id="text_16">
      <!--  map (sync)  -->
      <g transform="translate(577.429724 284.044104) scale(0.08 -0.08)">
       <use xlink:href="#DejaVuSans-20"/>
       <use xlink:href="#DejaVuSans-6d" x="31.787109"/>
       <use xlink:href="#DejaVuSans-61" x="129.199219"/>
       <use xlink:href="#DejaVuSans-70" x="190.478516"/>
       <use xlink:href="#DejaVuSans-20" x="253.955078"/>
       <use xlink:href="#DejaVuSans-28" x="285.742188"/>
       <use xlink:href="#DejaVuSans-73" x="324.755859"/>
       <use xlink:href="#DejaVuSans-79" x="376.855469"/>
       <use xlink:href="#DejaVuSans-6e" x="436.035156"/>
       <use xlink:href="#DejaVuSans-63" x="499.414062"/>
       <use xlink:href="#DejaVuSans-29" x="554.394531"/>
       <use xlink:href="#DejaVuSans-20" x="593.408203"/>
      </g>
     </g>
    </g>
   </g>
   <g id="matplotlib.axis_4">
    <g id="ytick_5">
     <g id="line2d_13">
      <g>
       <use xlink:href="#mbcb640c253" x="353.664618" y="274.465354" style="stroke: #000000; stroke-width: 0.5"/>
      </g>
     </g>
     <g id="text_17">
      <!-- $0$ -->
      <g transform="translate(345.044618 277.504729) scale(0.08 -0.08)">
       <use xlink:href="#DejaVuSans-30" transform="translate(0 0.78125)"/>
      </g>
     </g>
    </g>
    <g id="ytick_6">
     <g id="line2d_14">
      <g>
       <use xlink:href="#mbcb640c253" x="353.664618" y="237.587811" style="stroke: #000000; stroke-width: 0.5"/>
      </g>
     </g>
     <g id="text_18">
      <!-- $2$ -->
      <g transform="translate(345.044618 240.627186) scale(0.08 -0.08)">
       <use xlink:href="#DejaVuSans-32" transform="translate(0 0.78125)"/>
      </g>
     </g>
    </g>
    <g id="ytick_7">
     <g id="line2d_15">
      <g>
       <use xlink:href="#mbcb640c253" x="353.664618" y="200.710269" style="stroke: #000000; stroke-width: 0.5"/>
      </g>
     </g>
     <g id="text_19">
      <!-- $4$ -->
      <g transform="translate(345.044618 203.749644) scale(0.08 -0.08)">
       <use xlink:href="#DejaVuSans-34" transform="translate(0 0.09375)"/>
      </g>
     </g>
    </g>
    <g id="ytick_8">
     <g id="line2d_16">
      <g>
       <use xlink:href="#mbcb640c253" x="353.664618" y="163.832726" style="stroke: #000000; stroke-width: 0.5"/>
      </g>
     </g>
     <g id="text_20">
      <!-- $6$ -->
      <g transform="translate(345.044618 166.872101) scale(0.08 -0.08)">
       <use xlink:href="#DejaVuSans-36" transform="translate(0 0.78125)"/>
      </g>
     </g>
    </g>
    <g id="ytick_9">
     <g id="line2d_17">
      <g>
       <use xlink:href="#mbcb640c253" x="353.664618" y="126.955183" style="stroke: #000000; stroke-width: 0.5"/>
      </g>
     </g>
     <g id="text_21">
      <!-- $8$ -->
      <g transform="translate(345.044618 129.994558) scale(0.08 -0.08)">
       <defs>
        <path id="DejaVuSans-38" d="M 2034 2216 
Q 1584 2216 1326 1975 
Q 1069 1734 1069 1313 
Q 1069 891 1326 650 
Q 1584 409 2034 409 
Q 2484 409 2743 651 
Q 3003 894 3003 1313 
Q 3003 1734 2745 1975 
Q 2488 2216 2034 2216 
z
M 1403 2484 
Q 997 2584 770 2862 
Q 544 3141 544 3541 
Q 544 4100 942 4425 
Q 1341 4750 2034 4750 
Q 2731 4750 3128 4425 
Q 3525 4100 3525 3541 
Q 3525 3141 3298 2862 
Q 3072 2584 2669 2484 
Q 3125 2378 3379 2068 
Q 3634 1759 3634 1313 
Q 3634 634 3220 271 
Q 2806 -91 2034 -91 
Q 1263 -91 848 271 
Q 434 634 434 1313 
Q 434 1759 690 2068 
Q 947 2378 1403 2484 
z
M 1172 3481 
Q 1172 3119 1398 2916 
Q 1625 2713 2034 2713 
Q 2441 2713 2670 2916 
Q 2900 3119 2900 3481 
Q 2900 3844 2670 4047 
Q 2441 4250 2034 4250 
Q 1625 4250 1398 4047 
Q 1172 3844 1172 3481 
z
" transform="scale(0.015625)"/>
       </defs>
       <use xlink:href="#DejaVuSans-38" transform="translate(0 0.78125)"/>
      </g>
     </g>
    </g>
    <g id="ytick_10">
     <g id="line2d_18">
      <g>
       <use xlink:href="#mbcb640c253" x="353.664618" y="90.07764" style="stroke: #000000; stroke-width: 0.5"/>
      </g>
     </g>
     <g id="text_22">
      <!-- $10$ -->
      <g transform="translate(339.924618 93.117015) scale(0.08 -0.08)">
       <defs>
        <path id="DejaVuSans-31" d="M 794 531 
L 1825 531 
L 1825 4091 
L 703 3866 
L 703 4441 
L 1819 4666 
L 2450 4666 
L 2450 531 
L 3481 531 
L 3481 0 
L 794 0 
L 794 531 
z
" transform="scale(0.015625)"/>
       </defs>
       <use xlink:href="#DejaVuSans-31" transform="translate(0 0.78125)"/>
       <use xlink:href="#DejaVuSans-30" transform="translate(63.623047 0.78125)"/>
      </g>
     </g>
    </g>
    <g id="ytick_11">
     <g id="line2d_19">
      <g>
       <use xlink:href="#mbcb640c253" x="353.664618" y="53.200097" style="stroke: #000000; stroke-width: 0.5"/>
      </g>
     </g>
     <g id="text_23">
      <!-- $12$ -->
      <g transform="translate(339.924618 56.239472) scale(0.08 -0.08)">
       <use xlink:href="#DejaVuSans-31" transform="translate(0 0.78125)"/>
       <use xlink:href="#DejaVuSans-32" transform="translate(63.623047 0.78125)"/>
      </g>
     </g>
    </g>
    <g id="text_24">
     <!-- Memory in MiB (lower is better) -->
     <g transform="translate(333.636961 233.773828) rotate(-90) scale(0.11 -0.11)">
      <defs>
       <path id="DejaVuSans-4d" d="M 628 4666 
L 1569 4666 
L 2759 1491 
L 3956 4666 
L 4897 4666 
L 4897 0 
L 4281 0 
L 4281 4097 
L 3078 897 
L 2444 897 
L 1241 4097 
L 1241 0 
L 628 0 
L 628 4666 
z
" transform="scale(0.015625)"/>
       <path id="DejaVuSans-42" d="M 1259 2228 
L 1259 519 
L 2272 519 
Q 2781 519 3026 730 
Q 3272 941 3272 1375 
Q 3272 1813 3026 2020 
Q 2781 2228 2272 2228 
L 1259 2228 
z
M 1259 4147 
L 1259 2741 
L 2194 2741 
Q 2656 2741 2882 2914 
Q 3109 3088 3109 3444 
Q 3109 3797 2882 3972 
Q 2656 4147 2194 4147 
L 1259 4147 
z
M 628 4666 
L 2241 4666 
Q 2963 4666 3353 4366 
Q 3744 4066 3744 3513 
Q 3744 3084 3544 2831 
Q 3344 2578 2956 2516 
Q 3422 2416 3680 2098 
Q 3938 1781 3938 1306 
Q 3938 681 3513 340 
Q 3088 0 2303 0 
L 628 0 
L 628 4666 
z
" transform="scale(0.015625)"/>
      </defs>
      <use xlink:href="#DejaVuSans-4d"/>
      <use xlink:href="#DejaVuSans-65" x="86.279297"/>
      <use xlink:href="#DejaVuSans-6d" x="147.802734"/>
      <use xlink:href="#DejaVuSans-6f" x="245.214844"/>
      <use xlink:href="#DejaVuSans-72" x="306.396484"/>
      <use xlink:href="#DejaVuSans-79" x="347.509766"/>
      <use xlink:href="#DejaVuSans-20" x="406.689453"/>
      <use xlink:href="#DejaVuSans-69" x="438.476562"/>
      <use xlink:href="#DejaVuSans-6e" x="466.259766"/>
      <use xlink:href="#DejaVuSans-20" x="529.638672"/>
      <use xlink:href="#DejaVuSans-4d" x="561.425781"/>
      <use xlink:href="#DejaVuSans-69" x="647.705078"/>
      <use xlink:href="#DejaVuSans-42" x="675.488281"/>
      <use xlink:href="#DejaVuSans-20" x="744.091797"/>
      <use xlink:href="#DejaVuSans-28" x="775.878906"/>
      <use xlink:href="#DejaVuSans-6c" x="814.892578"/>
      <use xlink:href="#DejaVuSans-6f" x="842.675781"/>
      <use xlink:href="#DejaVuSans-77" x="903.857422"/>
      <use xlink:href="#DejaVuSans-65" x="985.644531"/>
      <use xlink:href="#DejaVuSans-72" x="1047.167969"/>
      <use xlink:href="#DejaVuSans-20" x="1088.28125"/>
      <use xlink:href="#DejaVuSans-69" x="1120.068359"/>
      <use xlink:href="#DejaVuSans-73" x="1147.851562"/>
      <use xlink:href="#DejaVuSans-20" x="1199.951172"/>
      <use xlink:href="#DejaVuSans-62" x="1231.738281"/>
      <use xlink:href="#DejaVuSans-65" x="1295.214844"/>
      <use xlink:href="#DejaVuSans-74" x="1356.738281"/>
      <use xlink:href="#DejaVuSans-74" x="1395.947266"/>
      <use xlink:href="#DejaVuSans-65" x="1435.15625"/>
      <use xlink:href="#DejaVuSans-72" x="1496.679688"/>
      <use xlink:href="#DejaVuSans-29" x="1537.792969"/>
     </g>
    </g>
   </g>
   <g id="patch_21">
    <path d="M 396.392748 245.455294 
L 396.392748 274.465354 
L 423.865344 274.465354 
L 423.865344 245.455294 
L 396.392748 245.455294 
" clip-path="url(#p916913db69)" style="fill: #e49938; stroke: #000000; stroke-linejoin: miter"/>
   </g>
   <g id="patch_22">
    <path d="M 465.07424 260.277832 
L 465.07424 274.465354 
L 492.546837 274.465354 
L 492.546837 260.277832 
L 465.07424 260.277832 
" clip-path="url(#p916913db69)" style="fill: #e49938; stroke: #000000; stroke-linejoin: miter"/>
   </g>
   <g id="patch_23">
    <path d="M 533.755732 236.70183 
L 533.755732 274.465354 
L 561.228329 274.465354 
L 561.228329 236.70183 
L 533.755732 236.70183 
" clip-path="url(#p916913db69)" style="fill: #e49938; stroke: #000000; stroke-linejoin: miter"/>
   </g>
   <g id="patch_24">
    <path d="M 602.437224 251.524367 
L 602.437224 274.465354 
L 629.909821 274.465354 
L 629.909821 251.524367 
L 602.437224 251.524367 
" clip-path="url(#p916913db69)" style="fill: #e49938; stroke: #000000; stroke-linejoin: miter"/>
   </g>
   <g id="PathCollection_4">
    <g clip-path="url(#p916913db69)">
     <use xlink:href="#meb4bbb3062" x="410.129046" y="245.455294" style="fill: #e49938; fill-opacity: 0; stroke: #000000; stroke-opacity: 0"/>
     <use xlink:href="#meb4bbb3062" x="478.810538" y="260.277832" style="fill: #e49938; fill-opacity: 0; stroke: #000000; stroke-opacity: 0"/>
     <use xlink:href="#meb4bbb3062" x="547.492031" y="236.70183" style="fill: #e49938; fill-opacity: 0; stroke: #000000; stroke-opacity: 0"/>
     <use xlink:href="#meb4bbb3062" x="616.173523" y="251.524367" style="fill: #e49938; fill-opacity: 0; stroke: #000000; stroke-opacity: 0"/>
    </g>
   </g>
   <g id="patch_25">
    <path d="M 353.664618 274.465354 
L 353.664618 19.634646 
" style="fill: none; stroke: #000000; stroke-linejoin: miter; stroke-linecap: square"/>
   </g>
   <g id="patch_26">
    <path d="M 353.664618 274.465354 
L 645.165354 274.465354 
" style="fill: none; stroke: #000000; stroke-linejoin: miter; stroke-linecap: square"/>
   </g>
   <g id="text_25">
    <!-- Signals.jl vs Rocket.jl (memory) -->
    <g transform="translate(389.331236 13.634646) scale(0.14 -0.14)">
     <use xlink:href="#DejaVuSans-53"/>
     <use xlink:href="#DejaVuSans-69" x="63.476562"/>
     <use xlink:href="#DejaVuSans-67" x="91.259766"/>
     <use xlink:href="#DejaVuSans-6e" x="154.736328"/>
     <use xlink:href="#DejaVuSans-61" x="218.115234"/>
     <use xlink:href="#DejaVuSans-6c" x="279.394531"/>
     <use xlink:href="#DejaVuSans-73" x="307.177734"/>
     <use xlink:href="#DejaVuSans-2e" x="359.277344"/>
     <use xlink:href="#DejaVuSans-6a" x="391.064453"/>
     <use xlink:href="#DejaVuSans-6c" x="418.847656"/>
     <use xlink:href="#DejaVuSans-20" x="446.630859"/>
     <use xlink:href="#DejaVuSans-76" x="478.417969"/>
     <use xlink:href="#DejaVuSans-73" x="537.597656"/>
     <use xlink:href="#DejaVuSans-20" x="589.697266"/>
     <use xlink:href="#DejaVuSans-52" x="621.484375"/>
     <use xlink:href="#DejaVuSans-6f" x="686.466797"/>
     <use xlink:href="#DejaVuSans-63" x="747.648438"/>
     <use xlink:href="#DejaVuSans-6b" x="802.628906"/>
     <use xlink:href="#DejaVuSans-65" x="856.914062"/>
     <use xlink:href="#DejaVuSans-74" x="918.4375"/>
     <use xlink:href="#DejaVuSans-2e" x="957.646484"/>
     <use xlink:href="#DejaVuSans-6a" x="989.433594"/>
     <use xlink:href="#DejaVuSans-6c" x="1017.216797"/>
     <use xlink:href="#DejaVuSans-20" x="1045"/>
     <use xlink:href="#DejaVuSans-28" x="1076.787109"/>
     <use xlink:href="#DejaVuSans-6d" x="1115.800781"/>
     <use xlink:href="#DejaVuSans-65" x="1213.212891"/>
     <use xlink:href="#DejaVuSans-6d" x="1274.736328"/>
     <use xlink:href="#DejaVuSans-6f" x="1372.148438"/>
     <use xlink:href="#DejaVuSans-72" x="1433.330078"/>
     <use xlink:href="#DejaVuSans-79" x="1474.443359"/>
     <use xlink:href="#DejaVuSans-29" x="1533.623047"/>
    </g>
   </g>
   <g id="legend_2">
    <g id="patch_27">
     <path d="M 570.235354 55.919646 
L 641.165354 55.919646 
L 641.165354 23.634646 
L 570.235354 23.634646 
z
" style="fill: #ffffff; stroke: #000000; stroke-linejoin: miter"/>
    </g>
    <g id="patch_28">
     <path d="M 576.635354 36.113396 
L 592.635354 36.113396 
L 592.635354 30.513396 
L 576.635354 30.513396 
z
" style="fill: #3f63cf; stroke: #000000; stroke-linejoin: miter"/>
    </g>
    <g id="text_26">
     <!-- Signals.jl -->
     <g transform="translate(599.035354 36.113396) scale(0.08 -0.08)">
      <use xlink:href="#DejaVuSans-53"/>
      <use xlink:href="#DejaVuSans-69" x="63.476562"/>
      <use xlink:href="#DejaVuSans-67" x="91.259766"/>
      <use xlink:href="#DejaVuSans-6e" x="154.736328"/>
      <use xlink:href="#DejaVuSans-61" x="218.115234"/>
      <use xlink:href="#DejaVuSans-6c" x="279.394531"/>
      <use xlink:href="#DejaVuSans-73" x="307.177734"/>
      <use xlink:href="#DejaVuSans-2e" x="359.277344"/>
      <use xlink:href="#DejaVuSans-6a" x="391.064453"/>
      <use xlink:href="#DejaVuSans-6c" x="418.847656"/>
     </g>
    </g>
    <g id="patch_29">
     <path d="M 576.635354 47.855896 
L 592.635354 47.855896 
L 592.635354 42.255896 
L 576.635354 42.255896 
z
" style="fill: #e49938; stroke: #000000; stroke-linejoin: miter"/>
    </g>
    <g id="text_27">
     <!--  Rocket.jl -->
     <g transform="translate(599.035354 47.855896) scale(0.08 -0.08)">
      <use xlink:href="#DejaVuSans-2009"/>
      <use xlink:href="#DejaVuSans-52" x="19.970703"/>
      <use xlink:href="#DejaVuSans-6f" x="84.953125"/>
      <use xlink:href="#DejaVuSans-63" x="146.134766"/>
      <use xlink:href="#DejaVuSans-6b" x="201.115234"/>
      <use xlink:href="#DejaVuSans-65" x="255.400391"/>
      <use xlink:href="#DejaVuSans-74" x="316.923828"/>
      <use xlink:href="#DejaVuSans-2e" x="356.132812"/>
      <use xlink:href="#DejaVuSans-6a" x="387.919922"/>
      <use xlink:href="#DejaVuSans-6c" x="415.703125"/>
     </g>
    </g>
   </g>
  </g>
 </g>
 <defs>
  <clipPath id="p0043f83f03">
   <rect x="27.130896" y="19.634646" width="291.500737" height="254.830709"/>
  </clipPath>
  <clipPath id="p916913db69">
   <rect x="353.664618" y="19.634646" width="291.500737" height="254.830709"/>
  </clipPath>
 </defs>
</svg>
